<mxfile host="app.diagrams.net" modified="2024-01-01T00:00:00.000Z" agent="AWS Architecture Diagram Generator" version="22.1.11" etag="generated" type="device">
  <diagram name="Architecture_DE_002" id="generated-diagram">
    <mxGraphModel dx="1422" dy="794" grid="1" gridSize="10" guides="1" tooltips="1" connect="1" arrows="1" fold="1" page="1" pageScale="1" pageWidth="827" pageHeight="1169" math="0" shadow="0">
      <root>
        <mxCell id="0" />
        <mxCell id="1" parent="0" />
        <mxCell id="2" value="" style="image;html=1;image=data:image/png;base64,iVBORw0KGgoAAAANSUhEUgAABQQAAARUCAYAAAAgZx7YAAAABmJLR0QA/wD/AP+gvaeTAAAgAElEQVR4nOzdd5ydZYH34d+Zmt5IIZUUSAIoRSkKYq+Luvbu6666rmtBF7tid9feFgtgL6uuDQsWUEHEBtKJQKgJkN771HPePyacmTNzQoLMZALPdf1h5jztvp8zhM+Hr08pVSqVSgAAAACAIjinYbhnAAAAAADsP4IgAAAAABSIIAgAAAAABSIIAgAAAECBCIIAAAAAUCCCIAAAAAAUiCAIAAAAAAUiCAIAAABAgQiCAAAAAFAggiAAAAAAFIggCAAAAAAFIggCAAAAQIEIggAAAABQIIIgAAAAABSIIAgAAAAABSIIAgAAAECBCIIAAAAAUCCCIAAAAAAUiCAIAAAAAAUiCAIAAABAgQiCAAAAAFAggiAAAAAAFIggCAAAAAAFIggCAAAAQIEIggAAAABQIIIgAAAAABSIIAgAAAAABSIIAgAAAECBCIIAAAAAUCCCIAAAAAAUiCAIAAAAAAUiCAIAAABAgQiCAAAAAFAggiAAAAAAFIggCAAAAAAFIggCAAAAQIEIggAAAABQIIIgAAAAABSIIAgAAAAABSIIAgAAAECBCIIAAAAAUCCCIAAAAAAUiCAIAAAAAAUiCAIAAABAgQiCAAAAAFAggiAAAAAAFIggCAAAAAAFIggCAAAAQIEIggAAAABQIIIgAAAAABSIIAgAAAAABSIIAgAAAECBCIIAAAAAUCCCIAAAAAAUiCAIAAAAAAUiCAIAAABAgQiCAAAAAFAggiAAAAAAFIggCAAAAAAFIggCAAAAQIEIggAAAABQIIIgAAAAABSIIAgAAAAABSIIAgAAAECBCIIAAAAAUCCCIAAAAAAUiCAIAAAAAAUiCAIAAABAgQiCAAAAAFAggiAAAAAAFIggCAAAAAAFIggCAAAAQIEIggAAAABQIIIgAAAAABSIIAgAAAAABSIIAgAAAECBCIIAAAAAUCCCIAAAAAAUiCAIAAAAAAUiCAIAAABAgQiCAAAAAFAggiAAAAAAFIggCAAAAAAFIggCAAAAQIEIggAAAABQIIIgAAAAABSIIAgAAAAABSIIAgAAAECBCIIAAAAAUCCCIAAAAAAUiCAIAAAAAAUiCAIAAABAgQiCAAAAAFAggiAAAAAAFIggCAAAAAAFIggCAAAAQIEIggAAAABQIIIgAAAAABSIIAgAAAAABSIIAgAAAECBCIIAAAAAUCCCIAAAAAAUiCAIAAAAAAUiCAIAAABAgQiCAAAAAFAggiAAAAAAFIggCAAAAAAFIggCAAAAQIEIggAAAABQIIIgAAAAABSIIAgAAAAABSIIAgAAAECBCIIAAAAAUCCCIAAAAAAUiCAIAAAAAAUiCAIAAABAgQiCAAAAAFAggiAAAAAAFIggCAAAAAAFIggCAAAAQIEIggAAAABQIIIgAAAAABSIIAgAAAAABSIIAgAAAECBCIIAAAAAUCCCIAAAAAAUiCAIAAAAAAUiCAIAAABAgQiCAAAAAFAggiAAAAAAFIggCAAAAAAFIggCAAAAQIEIggAAAABQIIIgAAAAABSIIAgAAAAABSIIAgAAAECBCIIAAAAAUCCCIAAAAAAUiCAIAAAAAAUiCAIAAABAgQiCAAAAAFAggiAAAAAAFIggCAAAAAAFIggCAAAAQIEIggAAAABQIIIgAAAAABSIIAgAAAAABSIIAgAAAECBCIIAAAAAUCCCIAAAAAAUiCAIAAAAAAUiCAIAAABAgQiCAAAAAFAggiAAAAAAFIggCAAAAAAFIggCAAAAQIEIggAAAABQIIIgAAAAABSIIAgAAAAABSIIAgAAAECBCIIAAAAAUCCCIAAAAAAUiCAIAAAAAAUiCAIAAABAgQiCAAAAAFAggiAAAAAAFIggCAAAAAAFIggCAAAAQIEIggAAAABQIIIgAAAAABSIIAgAAAAABSIIAgAAAECBCIIAAAAAUCCCIAAAAAAUiCAIAAAAAAUiCAIAAABAgQiCAAAAAFAggiAAAAAAFIggCAAAAAAFIggCAAAAQIEIggAAAABQIIIgAAAAABSIIAgAAAAABSIIAgAAAECBCIIAAAAAUCCCIAAAAAAUiCAIAAAAAAUiCAIAAABAgQiCAAAAAFAggiAAAAAAFIggCAAAAAAFIggCAAAAQIEIggAAAABQIIIgAAAAABSIIAgAAAAABdI03BMAAAA4kPz2woty8623Vj+PGzs2hy1YkOMe+pA0NLimAoD7P0EQAACgjwt+97v88U9/zuGLF6VSSdauW5s771qRwxcvyic/8uHMnDFjuKcIAPeJIAgAANDP/Pnz8pWzvlj9fPW11+a009+ct5/xnnzzK19KqVQaxtkBwH0jCAIAAOzFMUcdlVf/2yvzkU98MitWrsysmTPzgx+fm2OOOipTpkzOXy+9LFu2bskznva0tLa2JknK5XKuuOrqLL3ppkyaODHHPfQhmTplyoBjVyqVXHX1Nblh6dI0NzXlmKOPzsLDDq2u7+zszN+uuDK33HprZs2cmUec9PC0tLTUHOOGG5fmuiVL0tHZmYWHHprFixZl3Lix+7wegGIRBAEAAPbBUQ9+UJL0BsEf/TjXXrckF19ySbrL5YwdMybPfdazkiQbNm7Mm9/+zty4dGkOXbAgy5YvT2dXZ973rnflyU98QvWYW7ZuzdvOeHeuvOrqLDzs0KxavTobNmzM7y/4dSaMH59169fnDW9+a1avXp358+dl6dKbMnXqlHzp85/PpEkTU6lU8t4Pfig/+8Uvs2D+vIwZPSafO+usvOwlL8l//Nsr97oegGISBAEAAPbBhg0bkiTz586rLvvpeefls5/4eB75iJPT2NhYXf7RT3wqO3buzK9+em4mTJiQ9o6OvP1d7857P/Rfecixx1SvFPz0/5yZdevW5Rfn/ihTJk9Okqxdty4Txo/vOc4nP5URra355U9+nBEjRmTz5s15yctfkTO/eFbe+6535Pobb8xPfn5evvGlc3LsMUcn6bnisLOzM0n2uh6AYvKKLAAAgL3YsHFjvvilL+eUk0/KlCmTq8sfdsIJecyjHlkTA9etW59f/+Y3Oe01r86ECROSJK0tLXnPO9+ecnd3fnn+BUmSTZs25Sc/Py+ve/WrqzEwSTUWrlu3Pr/53YV51Sv+NSNGjEiSTJgwIc951rPy18suS5Ls2L4jSbJq9erq/qVSqXpL8d7WA1BMrhAEAADo59rrluRVr319kmT79u255bbbcuzRR+WD73lPzXaHLpg/YN9bb78tSXLE4sNrlk+cODHz5s3LsuXLkyS3LVuWcrmcRQsX1p3DbctuT6VSyc/O+2Uu/dvlvce/7basXbcuSXLsMUfnESedlLe/+z05+ytfzeMe8+g879nPysHTpu3TegCKSRAEAACo4+5bbKdOmZyFhx6WBz/oyH3ar729I0nS2TXwttyWlua07r46b/OWLbuXVuoep62tPUnSXe6uuaLv8MWLc8xRRyVJmpub84XPfjrX33BjfnreeTnvl7/K1775rbzhda/Nv7zkxXtdD0AxCYIAAAD9HPXgB/3DL92Ye8icJMlVV19T8wKRtra23Hb7sjz91FOTJLNmzkzS85y/GdOnDzjO/HlzkyQPP/HEPONpT73HMY84fHGOOHxx3vam0/Pu938g53z5K3nZi1+UUqm0T+sBKBbPEAQAABhEh8yZk4cce0zO/OJZWblqVZKeF3l85nOfT2tLS/7pyU9Kkhw6f37mzZ2bs7705WzevLm6/46dO5Mks2fNysNOOCGfP+vs3L5sWc0Y7R0d1W1Xrup9PmBDQ0NGjRqdpqamlEqlva4HoJhcIQgAADDI3veud+a0N70l//zc5+eIxYuzZu3adHZ25uMf/q+MGT06SdLY2Jj3v/tdOf2tb8/Tn/O8HH3Ug7OrrS3XXrckF5z3s0wYPz7vf/e78uZ3vDPPe/FLc/RRD87IkSNzzXVL8oynnprT33BaLvvb5XnDm9+S+fPmZsb0GVm1alVuX74873zrW5Jkr+sBKKZSpVKp/8AKAACAAvrthRdl67ZtedY/P/0et/vBj8/NzOnTc9LDH1Z3fVtbWy7929+ybPkdmTVrZk546EMzduzYAdtt2bo1l172t9y1YkUmTpyYE48/PjOmH1xdXy6Xc/mVV+WWW29NuVzO3EPm5MTjj09zc3OS5M677spVV1+T9Rs2ZNy4cTnhuOMyZ/as6v57Ww9A4ZwjCAIAAABAcZzjGYIAAAAAUCCCIAAAAAAUiCAIAAAAAAUiCAIAAABAgQiCAAAAAFAggiAAAAAAFIggCAAAAAAFIggCAAAAQIEIggAAAABQIIIgAAAAABSIIAgAAAAABSIIAgAAAECBCIIAAAAAUCCCIAAAAAAUiCAIAAAAAAUiCAIAAABAgQiCAAAAAFAggiAAAAAAFIggCAAAAAAFIggCAAAAQIEIggAAAABQIIIgAAAAABSIIAgAAAAABSIIAgAAAECBCIIAAAAAUCCCIAAAAAAUiCAIAAAAAAUiCAIAAABAgQiCAAAAAFAggiAAAAAAFIggCAAAAAAFIggCAAAAQIEIggAAAABQIIIgAAAAABSIIAgAAAAABSIIAgAAAECBCIIAAAAAUCCCIAAAAAAUiCAIAAAAAAUiCAIAAABAgQiCAAAAAFAggiAAAAAAFIggCAAAAAAFIggCAAAAQIE0DfcE4IFsx85d2bmrLR2dXUkqwz0d9qPm5uaMHjkio0aOSKlUGu7pAAAAQJUgCIOoUqlk9boNuWvlmqxZvzGdnV3DPSWGWVNTU6ZOnphZ06dl+rTJaRAHAQAAGGalSqXisiUYBKvWrs+1N9ySnTt3ZfzECZkw6aCMGTcuI0aOTGNTk6vECqarqzNtu9qyY+vWbN6wIVs2b86I1pY8aPGhmTV96nBPDwAAgOI6RxCE+2jHzl25+u83Ze36jZk8dWpmzZ2b1pEjh3taHGDa29qy8o7lWbd6TSZNGJ9jjlyYcWNHD/e0AAAAKB5BEO6LdRs25dKrlqSldUQOOfTQjB0/frinxAFux7ZtWX7LLdm1Y0eOO+aITJ86ebinBAAAQLEIgvCPWnbnylzz95syccqUzF+0KA0NXtrNvqlUKll2881Zt3p1jly0IIfNmz3cUwIAAKA4zvFSEfgH3LVqTa5asjQzDzkks+bOHe7pcD9TKpUyb+HCjBw5KktuvCVNjQ2ZN2fmcE8LAACAghAE4V7atGVbrrxuaabPmiUGcp8cPHtWusvdueb6mzNy5IgcPOWg4Z4SAAAABeAeR7gXOjo785crrs3YCRMye/784Z4ODwAzDzkkB02ZksuvuT672tqHezoAAAAUgCAI98INN92eSiU59PDFKZVKe92+o709y5fdlpuX3pgtmzfthxnum3K5PNxToI95ixalsak5S268dbinAgAAQAG4ZRj20dbtO3L7nSszf9GiNDbe81+dzo6OfOmLZ+ZX5/2s+rKR9ra2HLZocT71ubPT3NKyP6Zc1ze+ck5+8ZMf55vfPzcjRo4ctnnQq6GhIXMWLMhNS5Zk3pwZmTxpwnBPCQAAgAcwQRD20fVLb8voMWMzedq0vW775bM+l8sv+2s+88UvZcGhC5MkG9evz8033TisMTBJDlu4OCee9Ii0tLYmSXbu2J4f/+D/8vRnPSfjxo0f1rkV2cSDDsr4SRNzw82355QTjx3u6QAAAPAA5pZh2Ae72tqzet2GTJ89a5+2//3vfpvnPP/F1RiYJJMmT86JJz1iqKa4z0465ZF50zvOqF65uG3b9nz7a1/O1i2bh3lmTJ81O+s3bs627TuGeyoAAAA8gAmCsA9WrVmfhsbGTDxo72+BrVQq6erqyqqVK/bp2B3t7bnlpqXZuH593fXlcjnLl92WZbfdmu6urp75rLgry26rfd7chvXrsvTG66ufN65fnzvvWJYk2bJ5U5bddmvK5XI2rl9f3a69rS3XXX1lkuTaq67KtVdfmR3bt2X1qpW54e/XDZjLyrvuzPJlt+3TeXHvjZ84MS0tLVm5pv4/CwAAADAY3DIM+2Ddxk0ZN2F8Sg17b+ilUimPfPRj86P/+04qlUqe8tSnZ+bsOXW3/d63v5HvfPNrGT9+QjZt2pjjTjgxbzvjAxk5qufZfhdf+Nuc+amPpdJdTltHe8aMGZtv/+An+dm5P8ydy5fnQx//dPVYl/z+ovzip+fmS9/6bpLkT5dcnL/+6Q+ZMGFSLvrdBWlsasoPf35+/nTJxfnZj3+YL33ru9mwfn0+/9lPJEk+/5lPZPacuXnjW96ebdu35T1ve1O+/cOf5qDJU6pjfPgD78mjHvv4HDLXG5aHyriJE7N2w6YsWnDIcE8FAACAByhBEPbBlm3bM3HK3p8deLf/eMPpmXbwwTn3h9/PD7/3vznyqKPzvBe+JCc8/OTq24l/e8Gv84ufnptzvvGdHDx9RrZu3ZJ3v+X0fOvrX8qrXnNabrrh7/nkhz+YMz7w4Zzw8JPS0d6eO5Yvu1fPILzib5flWc9/Yb7+vR9l3LjxaR0xomb9jFmzctbXvpOXPf+ZOfsb/5tZs3siVLlczoQJE/PHi3+ff372c5P0XJV468035X3//bF9Hp97b/TYsVl1xx3DPQ0AAAAewNwyDPugra2j+hKOfdHS0pIXvPRf8q3vn5s3vvWdKXeX8953vCVvfcNr09XZmSQ5/7yf5fAjH5RtW7fm5qU3Zs2qVTn6IQ/NNVdckST5/ne/ncc98Sk54eEn9RyztTWHLlx0r+bd0NCQV73mtEyddvC9eqNwQ0NDHv2EJ+aPF19UXfaH31+Yo499aM0Vgwy+ltbWdHR0pFKpDPdUAAAAeIByhSDsg+7u7jQ0NN7r/VpaW/PkU5+WJ5/6tPzhot/lv993Rv5w8YV57OOflDWrV+W6a67K5k0ba/Y5dGHPi0iW3XZ7nvbMZ9+nec+cVf9W5X3x+Cc9JT/94fezadPGTJw4KX+46MI883kvuE/zYe8aG3v+Oevq6k5zs39FAwAAMPj81ybso9J93P+Rj3lczjrzM1m1oudlI1OmTcsJDz85r/vPN+9xnx3bt+1xXdfuF4wMlQWHLsycQ+blz3+4OMc+9PisuOuOnPyIRw3pmAAAAMDQc8swDIGdO7YPWLZqxV3ZsnlTFhzacwXgsQ89Phf+5vxs3rSp7jEWLDwsl1x8Ucrl8oB1B02ekhuuX5L2trbqspUr7vyHbjNtauq5Im3b1q0D1j3+yU/JJb+/MH+4+MKc/IhHVV92AgAAANx/uUIQBtm2bVvzomc9LYsPPzILFx+eSQcdlPXr1uZ3F5yf4x/28Jx40slJkue+4MX548UX5Q2vfnme+dwXZvLUqbn15puycNHhefgjTsmLX/aKnPbvL887Tn99nvDkU7Nt27YsvfHveeu73peTH/nofOtrX85/ve9dedhJp+TOO5blZz/+YSZMnHiv5zvpoMmZOu3gfOXsL+TUpz8zc+fNz7wFhyZJHvv4J+XrXz47d96xPKe//YxB/Z4AAACA4eEKQRhkY8eOy9lf+98cd+LDsnnjxlx5+WXZtXNnXv+fb8l7/+tj1bcMt44YkTPP/mqe8ezn54brr8tvfnVeOtrbM3P27CTJnEPm5qyvfTvzDz0sF1/429x04/U55tjjUqlUMn3GzHz6C+dk/PiJufyyv2T8xEn5n7O+nIee8LDqPA6aPCULDz98wPz6Ly+VSvmvT3w606fPzCW//13WrF5dXTdp8uQcdfQx2blze4596HFD9ZUBAAAA+1Gp4lWWsFfn/uqiHHb4EZk0tXhv2H33207PrDmH5N9f+4bhnkohbNm0KTdee22e+vhTvFQEAACAoXCOKwSBPdq4cUOuuOzSPPpxTxjuqQAAAACDRBAE9ujC35yfaQdPz6LFRwz3VAAAAIBBIggCe7Rq5Yo887kvGO5pAAAAAIPIA6qAPXr9f75luKcAAAAADDJXCAIAAABAgQiCAAAAAFAggiAAAAAAFIggCAAAAAAFIggCAAAAQIEIggAAAABQIIIgAAAAABSIIAgAAAAABSIIAgAAAECBCIIAAAAAUCCCIAAAAAAUiCAIAAAAAAUiCAIAAABAgQiCAAAAAFAggiAAAAAAFIggCAAAAAAFIggCAAAAQIEIggAAAABQIIIgAAAAABSIIAgAAAAABSIIAgAAAECBCIIAAAAAUCCCIAAAAAAUiCAIAAAAAAUiCAIAAABAgQiCAAAAAFAggiAAAAAAFIggCAAAAAAFIggCAAAAQIEIggAAAABQIIIgAAAAABSIIAgAAAAABSIIAgAAAECBCIIAAAAAUCCCIAAAAAAUiCAIAAAAAAUiCAIAAABAgQiCAAAAAFAggiAAAAAAFEjTcE8AiqyydGkqS5ak/MdLkhV3pVRdU6r3xx5+qv1Qqv2fGqV6O5X6bzlg0PTdcOBRe9aV+my2x5n2379UZ+Q6A5T2NHC/QfvPYY/f157OpVSqs236nFPPD+XJk9N58inpnr8g3YsPrzMxAAAAOHAJgrC/lcup3HJzyl/9aip/+lMq3d3VVZWamNZbrCrpt3z3tvXiWiX9e1i/vLWH0Fdvo1L/5aVS7fH7qJRKNctr51fa8/K6oa9+dhwQEPdQRQcsr9s493yOdUcv9QbBxtWr0vj365KGhnQf85C0Pe+F6T5sYdLYWH/eAAAAcAARBGE/qqxZk+5PfzLli/9QE5h6N0hSuvuPyoDqV12+e6Oa1ZXKwChYSVLqTXj9PlaPWqmU+oWx3SNV+gWz3QvqRsFKpTYK1syvzx79l/c5id551w68x+U1H/ucZ//lu8eonfeez7F/3Ow9TKX3d1ZJUi6n8crLM/rKy9P1kOPS9op/S3nm7P57AgAAwAFFEIT9pPvHP0r3d7+b3HVXz4L+geluouD9Kwru/rHpyssz+s470v5PT03HM5/Tf08AAAA4YHipCOwH3T/6Ubo+85lU7ryzdkUlqVRvCK5d3vtHJf03qfTbqGZ1pdJvu7t/6Ld8wLCVvrvWjtR/eaVmBgPW1c5nwMj1l9euqhlnr8v7D7in5ZX+W/R+qneO9c+v3++sz4+ldWsz8tvfSMuPflBvTwAAADggCIIwlCqVnhj4qU8mHR27Fw2se6LggA/32yhY6e7OiP/9Zlp//MNUyuV6ewMAAMCwEgRhCFXuvDNdH/9Y0ufFIYko+ECPgil3p/WbX03zrTfX2xMAAACGlSAIQ2Xd2nS86fSB8W83UfABHgWTjPz4R9K4cmW9PQEAAGDYCIIwRLq+/vVU7rgjSZ34t5so+MCOgqW1a9L63W/V2wsAAACGjSAIQ6Cy/I50nX9B7TJRsOYQRYmCTZf+JY3Lbq+3FwAAAAwLQRCGQHnJdcnWrQOWi4K1hyhEFOzoSOM1V9fbAwAAAIaFIAhDoOsn5/bEoXpNTxSsOUQRomDLb86vtzUAAAAMC0EQBlnl9ttSueWWnp9FwTpzL14ULK1dnaalN9bbGgAAAPY7QRAG246dqezYUf0oCtZRsChYau9IdmyvtyUAAADsd4IgDLLO7313wDJRsI6CRcGWn55bbysAAADY7wRBGGzlcv34JwrWmXuBouAefs8AAACwvwmCMATqRzRRsPBREAAAAA4AgiAMEVGw/+JiR8E9nDkAAADsd4IgDLY+8UcU7L+46FEQAAAAhp8gCENBFMw9BbO6h9i97gEdBQEAAOAAIAjCUBEFc0/BrO4hdq8TBQEAAGDoCIIwyAa2JVGw3yFrxhAFAQAAYP8SBGHQDYxZB2oUTJKU+h6jZpD+hxEF+41xb6KgMAgAAMCBomm4JwAPTJVUUqq2tlSSlCpJSn1/HLhHpTRweaWSUqnfwnrLK0mlVDNqn7GT0tixaZw4IS2HHZamObPSOHVqSq2taRg1MuXNW1LeuTPdK1em8/Zl6b5zRcpbtqTS2ZnsHqM65X4nUP98KqlUSin1W5aUUqmkdvnuBXW+kp6YVqr9Hnu/oj579F/e53vsnXftwHtcXvOxz3n2X757jNp538M5AgAAwAFCEIQhM/xRsDRqZFqPPCKjnvj4jHjosWmaMzulpr3/tS9v2pzOm27Orj9ckra/XJquu1Yk5bIoeJ+iYP8TAwAAgOEhCMJQ6FPOhiMKlsaMyuinPCljn/n0NC88LKXm5ns1/YaJE9J64vFpPfH4lDdvTttf/5YdP/hR2q+5VhS8L1EQAAAADgCCIAyymuftDUMUHPmIkzLxja9Ly4L5ScN9f0xow4QJGfXkJ2Tko07Jzgt+k61fOCfdGzaIgqIgAAAA91OCIAyB2qvoen4Y6ijYMHFiJr3xtRn91FNTamqsXVkup3vLlnRc9/e0XXFVOm+7Pd0rV6bS1tYzcClpnDIlTXNmp+XwxRlxwnFpmjE9pREjqocojRyR0f/8tIw45eRs/tin0nbRxUl3tyjYb4w9RUEAAAA4UAiCMNgqvX/sryjYsvCwTH7/GWk98oja7do70r5kSbaf+7Ps+uOfU968pXdlqe8fpXStXJX2a67Njp//IqWGhrQcvjij/+nJGfnYR6dx2tTqbo2TJmXSh96X7f/73Wz90teStjZRsN8YdaNg//MAAACAYSIIwqCr1Pw01FGwZdHCTDvzU2k6eFrflWm/bkk2n/PVtF36t1Q6O7Kntw9XR+8bzMrltP/9+nT8/YZs+9/vZczzn5PRz/rnNIwenSQpNTVl7MtemoaJE7P5Y58SBfcpCgIAAMCB4b4/YAwYqFIbBfv/UJOHKr0rKzXb9d2kUnd5y+KFmfaZj9fEwEp7RzZ98ZysefVp2XXJn1Lp6OjpVPUP3OePgWNUUknXypXZ/NnPZ91/vCGdN99Ss370U0/NhLeentx9a3G/E6h/PpU6t9DunkH/5ZU+38uAXQZ+j3W+9YHLa1fVjLPX5QN/cfWXV/pvMfATAAAADBdXCMJQ6XPp2FBcKdg8Z3amfuIjaZo5o3LdJ3QAACAASURBVLpN94YNWf+eD2bnH/+c1Hn7cKVUSamhMU1Tp6T1uIemefbMJEm5vT0d11yXjr9fn0p7R83YlSSlcnc6lvw9a//9dZn4jrdk1OMe0/PCkoZSRj/t1JQ3bsrWL57jmYJ7vVIQAAAAhp8gCEOgXkwazCjYMGZ0DnrnW9M8Z3Z1XdddK7L2Le9I+99v6N2+bxQsldI895CMf8XLMvpJT0ippWXAvDtvvS1bv/nt7Pz1b1Pp7Oh3PpWUN2/Jxvd8IOWNGzPmOc9OGhuSUiljXvLCdN5ya3ae/5uUKhVRsN8Yrg0EAADgQOKWYRgi9W47HZTbh0vJuBe/IKNOelh1WfemTVn7rvfWxMDe4XsOMvJhJ2Ta2Z/LmKedWjcGJknzgvk56D3vysR3vDmlESPrnE8llfaObP7M57Pj/Auq60pNTZlw+hvSdPC0fufo9mE1EAAAgAONIAiDrZKBz5AbxCjYPPeQTHj5/+u9FK1czoaPfDJtV15djX/9tSxamCkf+VCa+rwteI8aGzPmn5+Wiae/fsDYvVGwPZs/+sl03HBjdV3DpIkZ95p/r3OOomDffyYAAABguAmCMFSGIgqWSjnoDa+tvu03Sbb97Lxs/3Xv1Xr9o2CpsTEHnfH2NEwYX11W3rEjm8/5ala97JVZ9fyXZP3bz0j7Ndf2zrFUyuhnPD0jTzlpj1GwvG17Nn3oo6ns3FldN/Jxj0nrscfUOUdREAAAAA4UgiAMiUq9P+5zFGw98oiMOuXk6iZda9Zk0+fOTsrl2tH7jDPykSen5cjDe/dZvSZr/u012fz5s9J+9bVpX3pTdvz6N1nzqtdm2w/Prc6x1NSUcS97ac9zAvcQBTtuXJpt3/pOdXmppSVjX/qinheODDhHURAAAAAOBIIgDLIB8WkQo+C4Zz8jpdbW6nG2fPt76Vy9pm5rujsKjnr0o1JqbOxZWC5n05lfrH3WYKVn1Ep7RzZ//qx0LL2puqr5sEPTdMic9A9mvVMrZ/tPfp6ulauqy1uOPSbN8+ft4RyLHgUBAABg+AmCMKQGLwo2Tj4oo05+eHVx15q12f7r3+zefmCw6xmmkpZFC3v3Wb0mu/566cBnDe6OguXNW7Lroj9UFzeMHZOmGdN7k2SdKNi9dm12/ur8mn1GnHLyPZzj/oqCGfA9DmcU1AUBAAA4UAiCMATq5qP7GAVHHHl4zUtBdv7xz+lavTo1e9SpTqXmpurP5e3bq8/821MU7Fyxos/OpTSMGdNnanWiYKWSnRf8NuWt26rLRj7ipJ43GQ9rFKwcUFcKKoIAAAAcKARBGAoDutl9j4KjHvmIZPetv5Wuruz47UV1IlWdKNjn+YKlESN6bzlO/SjYOGVyn8+VlLfv6DfvgWN03npbOm+/vfq5ae4haZw6ZS/nuL+uFDyAoiAAAAAcAARBGCqDGAVLra1p7XPrb3nzlrRff2Pd1tQ/CnbcdEv156aZM6pvAe4dvnfjhjGjM+rRj+wdZ8eOdK9ZU2fe/YJZuZz2yy7vPc748Wk8ZE7fQfZwjqIgAAAA7G+CIAy6PQWmPuvuZRRsGDs2TQdPq27TuWpVujZs2ENEq42COy/5Y9LdnSQpNTZm0mmvSfO8ubXbVyopNTdn3L+8NK0PelDvOLcvS+fty/cw/dqTa79xac3ViM3z5/WLcKIgAAAAHAgEQRhs/avWIETB0qiRaZw0sbq+c/md1ZV7i4I7LvxDOpb1Rr3meXNz8FlnZuzznp3m2bPSOHVKRhz3kEz+8Acy/l//X9K4+18L5XK2fvf7qXR21jm/gVGwa8WKVLq6qps1zZgx8NwLHwUBAABg+DXtfRPg3qgNTKXqj5VS9VPvuto/eupRqVS7dyUpNTXWPPuva82a3Rv0bNXnx35zqSRtbVn/wY9k+tlnVo/RNP3gTH7X26oBr9TQUH0+4d12XnRxdvzq/CSVlAYeuM+8e06uvHFz7fMKR4+qf+57OMe+J1D/fCqpVEp371ozkT6HrBmjzlfSEwVLfc6oZn57+p3VnkS939c9LhcFAQAAOIC4QhCGQG8AGpwrBRtGj+43QN8/936lYNsVV2bdu9+f8tatvStKpZSam1Nqbq6NgeVydv7hj1n/3g8m5cruedc9cJ8/Kj3z7rNZw5jRvVcbulLQDcMAAAAcMFwhCEOk9yKx+36lYLmj4x4Gyt6vFKxUsv1Xv0nX6rWZ+OpXZsQJx6XUNPCvf9eq1dn2o59k63e+l8qOnTVjVEr3fKXggGm1d+y+YrB3o6JfKQgAAAAHAkEQhtCgRcH+z/FrbqqNXPsUBctpu/LqrD7tTWldvCgjTzw+TbNn9axrb0/7Nddm16WXp3v9+urVbaW+MWsvUTBNjTVjVjo7q28wLomC/UcGAACAYSMIwqDrd6voIETBSlt7ytu2p2HsmCRJ88wZ6bmRt3TvomAqSVt72q65Nm3XXFuzrlQnWlUqlX2Ogo0HT6u59bh7w8Z+Z1fwKAgAAAAHCM8QhCExMAoOWF4ZsFW9P5JKJeUdO9K1fn11y5Z585KGhqT/0/0qvXtWag7Sd5MBA+8epn60GrC8MmDUJEnznDk1tyF3Lb+j/27pe3K18670227gCdQ/n/vTMwXrDQwAAAD7nyAIg61ydxMavChY3rY9nStWVbdqnHxQWubMqe5zIETB1mOO6r06rlxO5623DRij8FEQAAAADgCCIAyRwYyCla6utF+3pLpF47ixGXH0g2vK2XBGwdKoUWk95ujqqq6169K1alW9kxMFAQAAYJh5hiAMoZ5HylVS87TAyj/2TMGdf70sE1/5Lyk1NyelUkY/7jHZ+vNfJt3d1Qfv/SPPFCzVDrx7jpV79UzBEQ86Ik0zplcXdyy9KV3rNyR3j14pZcpnPp6WwxcP/JIG7X0b9/5ANY8Z7OxI2/m/zY5vfyeVXbuG5JmCAAAAcCAQBGGIDVYU3LXk+nTecVdaFsxLkow68fi0LDwsHTfc2LdA7f8o2NCYMc98ekqtrdWT2/Xbi5Lucp/pV9IwcUIap07Zty9tmIz+1/+XxpkzsuWD/51Kd7coCAAAwAOSW4ZhPxiM24fLO3Zk229+V13TMHZMxj/vWb1v9h2m24dbD1+ckY88pfq5a83a7PrLX/tP/36j9REnpWnuIUN6+zAAAAAMJ1cIwiDriW4DrwobjCsFt/z4p5nwouencdzYJMm4p5+arT/5edquuS61h9k/Vwo2tLRk3L+8JA2jR1WX7/zN79K9+3bhvtNvu+KqlDdsrPud1RgwVOmeV9+rY9Vf2DhtapoXL+pZO2pUGmfOSNctt/ZEwVJp8K4UBAAAgAOAIAhDZQiiYOfyO7Pt57/MhBc/P0nSMGpUpr79zbnzJS/vvcV1P0bBUY99dEY/9tHVz+Xt27P129+t810km//n80l1yIFjlPr874DVfcYu1fzQb3mdmDhw2qX+h8zIJz0x49//7t4tmlv6zH1woiAAAAAcKNwyDEPgnm4Vva+3D6//3Fnp7nOl3Yhjjsrk009LGhoy8DBDd/tw84J5Oejd7+i9ZTnJlq98I12r1/QftWZO1dEr9Vb3blQ77zo36/Y7gfrncy/ePnxPBuH2YQAAADhQCIIwRIYqCnZv3JR1n/hMKl1d1aUTXvrCTHzpC1NqatwvUbB5zuxM/ciH0jB2THVd+zXXZut3/q/PvO+/UbDuYlEQAACABwhBEIbQUEXBref9Olt/9svqDqXm5kz+z9dn/Iuen1Lj0EbBpjmzM+Wj/5WWRQury7o3bMyGj30qlba2fvO+f0TBes1OFAQAAOCBShCEwdavPA1FFKx0tGf9Jz+bnZddXl1Wam3NlNNPy0FveG1KTU1DEgVHPOSYHPw/n0rrkYdXl5V37cqGj3wi7UuuH/hW4vtJFNzTBEVBAAAAHoi8VASGQr8XilTS502zg/Sika7167P6He/NzLP+J60LD03SEwUnvfJfMvLoB2ftf38s7TfdktLdl8DdhxeNNIwclfEvfkEmvuoVKY0c0buuszOb/ucL2XHBb6uhbsALSCpJpVQzas2XUh2938tM+sxqwLn3/R77nFrNCdQ/n0oqlf4vGqmkbpHcPUadryT/8ItGAADYq5272rJ+4+Zs3bYj7R0d6e4uD/eU2I8aGxvS0tycsWNG56CJ4zN2zKjhnhI8IAmCMMjuzkul/RAFO1esyF3/9trM+NRHMvIhx/TsUCpl5AnHZfZ3vpGtP/5pNn/3++lcfkfS3X2vo2DD+HEZ/chTMuEVL0vLoQtq5lzeuTMbPvzxbP/peQO/g/tdFNyDQYyCciAAwJ51d5ezfMWq3H7Hymzdtj0NDQ0ZOXp0WpqbU+rzEjse+CqdHenctjO337ky3d3dGTVqZObNnp55s2emuVnCgMHibxMMkf0VBbtWr86K178pU992esae+uSUmnr+WjeMGpkJL3lBxj391Oz445+z7Re/zs6//HX3c/7uOQq2LliQMU95YkY/4bFpmT9vwFw7l9+ZDR/9RHZe8qckqY1/1bmLgn1/ZwAA1Ldi9bosufGWtHV05qApU3L4/AUZO25cSg2ecFVklUolO7ZtzcZ167P0tjty8+135ojD5mXu7Bl1//sDuHcEQRhC+ysKdm/YkNXv/kB2Xvq3TH7j69I0dUp1/4ZxYzP2n56UMU98XDZ9+evZ8NnP3+OVgi3z5mX62Wem6eBpA8+nuzs7zv9tNp35xXTedVefOVZEwZpzrBMFAQCo0d7ekcuuuT7rN2zKlGnTsmj+/LS0tAz3tDhAlEqljBk3PmPGjc/MuYdkxbLlufb6m3PbnStz4jFHZsxotxLDfeH/coHBVudxdPvlRSPt7dnyo59m+fNeki0/+HEqHR01xyg1NWXUI05KqbW17wQGvCCjacbBA2NgpZKOW27N6te9MWvf9d503nlX+hvwQpE9La8MGLXm1Cr1Tq7v8nqrB/VFI6k+QrB2Yc0MBqzr/z3WmREAALtt3bYjv//LFdmxqy0POvbYzF+8WAxkjxobmzJnwYI8+PjjUk5Dfv+XK7Juw6bhnhbcrwmCMBSGKQomlXStWpPVZ3wgtz/12dn0tW+lvHNndW2puSnZfUvxHqNgvyva2q65LqtPe3PuevYLs/OSP6fS2Zn+bx/uneMDJQpW+h+yZgxREADgH7duw6Zc/Ncr0tTamiOOPTajx40b7ilxPzFi5KgcfvTRGTdxYv78t2ty58o1wz0luN9yyzAMgXq3qO6v24fvXte5/M6s/egnM+rkh1ffQjxw3N4f6tzImyTZ9rPzsuPC3w+887WlOSOPPiojTzkpzTNnJknK27Zl16WXpe2yK9K9qfb/sdvT7cMNI0ZmxLFHZ8RJD0vTtJ4rE7s3b07bXy9N+xVXpbx12365fXig3SP1/9X8w7cPAwCwbcfOXHrVkoyfNCkLFi32nEDutYaGhhx6+BG5o+XWXHndjRk5ojWTJ00Y7mnB/Y4gCIOukmpgG+YoOKBz9blEbk9RcE9n1HcaLfPnZdLpp2XUyQ9Pqbm5Ztuxz35GOm69LZu/cHZ2XHhxUi73mXttFGxZtDCT3vzGtD7k2AFvjxv7nGem46abs/nML6Ttz5fuhyi4xzMflCgIAFB0HZ2d+esV16Z1xKjMXygGct/MWbAgHR0dufTKJXnUwx/imYJwL/k3MAyZSt1bVPfn7cN7mFadcfvNeU+7VZLWxYty8Bc+k9GPfuSAGJgkKZXScuiCTPnwBzP22c8YeJzdkx/xkGMy7XOfyYjjjxsQA5MkDQ1pWbwoUz7x0Yx6wmP30+3D9QzS7cPuGgYACu7qv9+Uzu5KFj74yDQ0+k9R7rv5CxelZcTIXH7NDXt8fBFQnysEYUgN85WCDaUBx+q3c90rBeudR1JKw7ixmfLB96R51qzeVeVyyrt2JeVKSiNG9DynMEmptTUHve1N6Vh6U9qvXVJztMYpU3LQ+85I45TJtcfZuStJJaURI1Nq6omEpZEjMumMt6dr2fJ03Hzr0FwpuFeDcKUgAECBbdi0JStWrc2iBz84zc33/PKQX//i51m/bm318+QpUzN37rwcunBRmur9H9L7Qd85NZRKmTZjRo4+5iGZPGXqsMxnMNy89MbMmD07o0eNHu6p/MMaGhsyf/HCLLn8ityxYnUOmTV9uKcE9xuCIAyy6pVnfe4ZHZYo2NiQ8c96RppnzexzkHIqd9/Cu6dgVu+EdpezMU/7p7Qevri6qnvTpmw656vZedHFqbR3pPWIxZn4uldXtym1tGTi61+T1f/+ut5bh0uljH3uM9N8yJzqcbrWrM2WL301u/70l6S7O63HHJ0Jr35lmufPS5I0jBuXcf/28qx/+xlJuTLoUbDerdUDfwWiIADAP6JSqeTqv9+UiZMmZcKkSXvd/te/+Fm2b92WBQsPS7lczl//dEmWL7s906fPyJvefkYWHXHkfpj1nufU1dGZ83/582zevDmvfeOb88SnnLrf53Nfbdy4Ia9/1b/mOc9/UV75mtcP93Tuk5GjRmfKjBlZctNtmXnwlDQ1yRywL/xNgaEynFGw1BMDp77zrWkYOaK6bfstt6Xc1tazSb8x7jEKJj0h79Qn934ul7PuvR/qeeHIbl0Xr0vHLbdl+pe/kObZPVcRth6xOM1z56TztmU9hxkxIqMe86je+be3Z/2735+2S/+WuyfWfcFv03n77Zn2hc+mccqUnuMcc1Qap01N96rV/R+YeJ+j4EA9FbRSKQ1aFAQAKKo16zZk67btOer44/d5n4eddHJNqNq8aVM++ZEP5k2n/UfO+fp3MqPvHSv34Pvf+Va6Ojvzope9/F7P+57m1N3dnTM/+dGc+amP5UEPPnqf53OgmDTpoLzxLe/IUcccO9xTGRSz5h6S9atXZ/mK1VlwyP3rdwHDxYMbYAjUe8Tf/nym4PhnPi1Tz3hbGkaNrG7TtuT6rP/0mT1X2O1hjD1dIJgkKTWk9cgjqsvbb1ianb+/ZMD2nStWZNtPfl793DBmTJrnHlJ9pkfDyJFpWTC/d15XXZO2yy6vGbCSSjpvvjU7L/hddXHjQQel8eBpvc8OHORnCtZXqfMrGIRnCgIAFMiyu1Zl/MQJGTnqH3/pw4SJE/PeD300kydPydmf/8w+73fn8uVZvvz2f3jcPWlsbMy/v+4/U0pyxd8uHfTj7w9PfurTM2PW7OGexqBoamrOQVOnZtmdq4Z7KnC/4QpBGCIDn83X82FIrxRsKGX8M5+eg99/Rkotvc9mab9haVb8x2npWrsu1bcPl+55jHrnUupz+X3XqtU9tx/XuSyua8XK3g+lUhrGjt09x923+/Z5iUjXqlWplMs1bx/uucqvks6VfY7T0JCG0WP6zKf/pYD35UrBe/L/2bvv+CjK/A/gn9mSbHpvpJJAgNB7LyooCiIoAopdz+7p6e9seOrZ7rDXs/feAcWCSFNBpAcIhJJCei+bZJNt8/sjYbOzO7upm002n/frdZKdeeZ5vrPZzWU/eWae7pspSERERNTfmM1mlJZXIT4lpct9qdRqXLT8Urz28vMwmUxQKpWorqrCvj27UF5WiuCQEEyeNgOBgUEAgN82b8IvP60HAMQnJCEyKtpyea+z49rLx9cHA2LjUVZaAgD46rOPcfZ5C1FRVoYD+/ZicOoQDB81GgBQp9Vi/57dKC0pRuLAZIydMBEKm1WWG+rrsG/vHhTm5yEyKhoTpky13N+vsrwce/fuRl1tLdJGjkTqkGGW48xmM/bs2olTOdkIDApC8qDBGJg8CAqFwum+rz77GBOnTEViUrKl/kVLluLkiWPIPHIEAQEBmDZzDnysJhkAQGVFOfbt3Y3GBh1GjR2LOq0WTU1NGDNuQoeev+4WGhGBo0VFaNA1wtfqKikiksdAkKi7WWaeCT0bCioUCLroAkQ/eL8kDGw8eBj5t9wBU2mZtNd2h4Li6ZOCaDRZFvtQxUQBCgVEk8nuXFTxVtP0RRFmrdbqoQiYTJZQUBUT0xyiiaI0FASgsr7/odkMc12dTd3dFAq2qZtCQSIiIqJ+pkZbB5PJhKCgjoVtjiQlJ8NkNKKkqBCCIOCGq1YiZkAcYmIH4FRuDl598Xk89+obSEwciPqGestxtTXVlnCtqCDf6XEdUVtTbZll98UnH+FoxiHs3LEdKYNTodFoMHzUaBw+eACPP7gKkTExCAoKwkfvvoWBgwfj0Sefha9P86zJY5lH8OgD9yEwKBjR0dH4fs3XKMzPwyVXXI3tv23Dc6sfx/BRo+DtrcEHb72O8y9ciquvvwmNOh3uueNWVFSUI23ESNTXafH5Rx/i9fc/drrvdL0RkVGWQPCd1/+Ht159GQNTBiE2Ph5HDh3CB++8iZffeg8BAYEAgL27d+Hxh1YhLi4eQSHBePfNV1Gn1WL5yivcHggGBAVBEARUVdcyECRqBwaCRK5gdY+6ngoFvQcmIvLe/4Og8bbs1+1PR+Gd98JYXApIcjMnoaCjUzKb0XToMDRjRgEAvIcNg++cmaj/dYvklnyq2FgELGq9sbK5rg6G7NzWfhp00J/MglfqYACAZuxo+EyaAN3OXZJQ0GvQIPiddablOFNFBUzFJTLld0MoaHuusjsZChIRERF1lLauAQqFAt4+Pm03boewsOb7S9fW1GDo8BH48ruf4a1pDn9EUcQ/b78Z337xGe74532Yv+B8HE4/AL2hCTfffpelj5jYOKfHtdeGH9ejSa/HpClTLdt+37oF3/64yTKrTq/X4+knHsX5Sy7CJVdcDQAoLirEHTddh0/ffxfX3ngLTCYTnn78Ecydfx6uvPZ6S19msxlabS2eXf0Y7l71MCZNnQYAyM3Jwk1XX465889Fbk4OTp3Kxudrf4KXl3T15h27djrcJ0cURcyYPQcPPPKf5ue4tgaXXng+fvxuLZZdejmaGhvxzH8exUXLVljuyVhTXYXlF5xnuT2QOykUCmh8fKCtb3B3KUR9AgNBIlfp4VBQ4ecHpb+fZF9jxlEYS0otnYidDQVFADBDu/5HSyAIhYDIhx9A1YAY1G/eBrGpCd5pwxB6242WBUUAoOlQBvQ5rYGgubER9Zu2WAJBwdsb4Y89jOo33m5eZdhogmbcaATf+DcoIyNaz2XP/tZzsSu/a6GgHOuQ03orQ0EiIiKi9tMbDFCr1XZXgnRWZUU5ACA2IQEA4K3RQN/UhOPHjqJOq4XBYEBJUdv3kevMcV99/gmqKithFs0oKipEYX4+7l71EELDwi1t7vjnfZJLbI9mHEJZWSkuvuQyy7bomAE4f8lSbP31F1x74y3IPHIY+XmnsGLlFZLxFAoFMg6mo06rxalTOcg7lWPZp/HxRW5WNkLDw6Br0OGT997GWfPPRXxCkqVNaGiow31yAgKDMHPOWZbHgYFBGD1mLArz81rO5TBqaqqx7NLLLW2CgkMwaszYbvv+dpVarYZeb3B3GUR9AgNBom4m2j7ooVCw6fgJ1G7YiMD5Z1u2By+/CObaWpS/+D+IRlO7QkFnJ1b73XoELrkA3mlDAQDK0BCE330nQm+7CTCLEDQaCOrWHyuiXo+Kl/7XfFnx6SmKogjtl9/Af/45UCc1/yKniopE+Kp7YG7QAWjpx+p+hebaWtS8/S5gNtvV1FdCQSIiIqL+yGw2Q1B031qWuTnZCA4JQUBAIEwmE15/+Xn8sW0rhg0fjoioaFSWl8M3PsFpH509DgBi4uKgUqsxfeYcjB4/3nIp7Wm2C6cUFxUhMCgIKrVasj0+IRHl5c3hZkF+Hvz9AywzFq3Vtdx6p7GhQfKL5oXLViApJRlx8Yl44NH/YN3XX+LzTz5EYlIyFl+8HPMXnI+0EaMc7msv/8BAmEzNv4MXF8ufS2+iUAgw2X5mICJZDASJup1om/n1SChoatCh6N5/ASIQOH8eIAgQlEqE3XgdoFCg/PlXIBqNnQoFT49rrtGi5IGHEfPC062zABUKKPz87I9pakL56qfRlH6o9SxbBjaWlqHsoUcR9fQTUEZEtPbjL9OPrhEVj/4H+mMnWi57tvnrYzeFgo50VyhIRERERF1jMpnw9RefYuHiiwAA27dtxeZfNuDtT76wLAiib2rC+rXfOu2ns8ctXX4pLrvq2g7VHBYWjurKStQ31FvuYQgAFWVliI1r/n06ICAIWm0tGnU6aGwurR7Q0mbWmXORkJgkO8aMWXMwY9YcVFZWYOvGX/Di0/9FSEgoJk+b7nRfR4WHR6C6shINugbLvQ+JqO/qvj/VEFEzEYAo2s8UPL0wh2Rb6wPRbtvpw0T7bTLbAcBU14Ci+x6E9pdNku1h112N8FtvgOCltnQi26uTqWyndzUdyUThzbejfutvEA1GmYYi9CeyUHLvv1D75RqbPloHbty7D8W3/AONu/ZANJns+zGboT96DKV33YP6Db9a1e3okmarZ1juebRqJH3qRfvn0uabIfe9aQ4F5Qux294L7qlCRERE1JfV12nxn4cfgGg2Y1nL5bcVFeUwGY1QtSxWJ4oi1q/9FsqWx0DzpcFF+QWSvtpzXHcZNnw4/P0D8MFbr1vus6fV1uK7tV9j9lnzAACpw4ZB7eWFrz772O741CHDEBefiLdfexlGQ+ulsKf7Muj1MLfMiAsNDcPCxRfC3z8AFeVlTvd15Vzef/M1y/i6Bh3S9+/rVH9E5F6cIUjkKqIIURB6fqZgXT2K7nsQEEUEnDO3eaNCQOj118CkrUPl2+9bOpGdKWh3HrBroT+RhaLb/w8+Y8fAd+Y0qFtWAzZr69CwYyd0O3fBVFnV3JvdhL7WmYJNR46i6Jbb4TNuLHymT4UqOqq5n6pq6P7cCd2uPTDX1ErvSSICoiB270xBOTZTA7tlpiARERERtctff2633K+vpLgY2VnHMX7CZDz/6pvw8m5eRG/azFn46L23cN1lKzB89GjkZmUBAEaNGWfpZ+bsM/DDum/xgiIg7gAAIABJREFUr7vvRERkJG698+52HdddfP38cfvd9+Gpx/+Ng/v3Iy4hAYcO7EfaqFFYctEyAM1h3Y233oFXXngGBw/sw4DYeGQeycCsM87Eisuvwj/v/xceffB+3Hj15Rg9bhyadDpkZBzGWx9+hk0bN+Dt115B2ogRCAwMQuaRI/Dx9cW0mbOd7uvsufz9rnvw5BP/Rvr+fYiNj8fxo0e68+kioh7EQJDIldwUChpralG06iFAEBBwdvONgQWVCgHz56Lqw08gnr7RrmwoKH8etivzik16NOz8Cw07/4LdhbwtSaB8iCYNBUVdIxr+2IGGP3Y0Hypzea316sOtdffBUJCIiIiI2jR/wSKUlzUvJqdUKDB1xiwkDxqEuPhESbvIqGi88cGn2LFtKwxGI5ZdcjkCg4JwMP2Apc3ocePx0hvvYP/ePQgPj4TZZGrXcXI1RUZFO6172aWXISk52W779JmzkfrBpziwdw/q6upwwUUXY/jI0ZI25y1ajFFjx+Lggf2or6/HlOkzMH7iZADAkLTheP2DT7B/z24U5ufBPyAAl155LRQKBc4+dwEGDhyI48eOoa5Oi3ETJmPqjJnw1mic7pOrV67+mbPPksycnDHnDKSkpmLfnt1Qq1W48dY78PhDD8BH5hZCRNS7MRAkcjV3hYLVtSi8exUGDhkMr8TmGyQL3hoIajVEvb618y6EgtZfSOI523NsIxSUDiP2eCgoe7qSc2QoSERERNRTOrLoRWhoGBYsvlCyLSo6RvI4ZfAQpAwe0uHjOlrT0hUrHe6LiIzC3PnnOT0+Lj7RLvQ8zc/XD9NlZvYJgoDUYcOROmx4h/bJ1StX/4zZc+y2xQyIRcyAWMvjkpIixA6Ikx2DiHov3kOQqCe47Z6C9RCbmmxLsR/Q/rZ7kv7lxrDvpo1zlBlAdDCw6ODyWrvtot2okprE1kYyu1sbOTv31i9szt3uoA7cU5CIiIiIqA9qamyU/E7++7YtMOoNGDd5shurIqLO4AxBIheQmRDnlpmCmiGpUIaG2NdnaWbVuZPZco7G8JiZgvaDyJy39AQ6PFPQfhQiIiIioj5l/dpvsebrLzBs+Ag0NupwKD0dd967SrKCMhH1DQwEibqdaB/+WXb1XCjoPSgFsS8+BVV4uKWNuaYGYmMjrJpJB5SbLSe2NlFGhCP+w3eat1vV4+yK2NqvvkXVO+/DOhT0GpSM6BefcXKUvZr3PoT26zUttTeHgt5jRyP83/+yKkK+Euut1S+/ioaNmyynJjiaIugw+OxsKEhERERE1LddsHQZEgYORE52FoKDgnHrP/6JiMgod5dFRJ3AQJDIVdwYCnonJyH+9Rct9w4EAFOtFhVvvgPRZLIuRTYUtCm49R+lEl5JCbYNnFIEB9ufo5cX1Ikd7CcwUFqVKEKh0XS8H5sbHttcuC3FUJCIiIiIyEKpVGLCpCmYMGmKu0shoi7iPQSJXMn23oGOttveb0/yRfMDufvWiS19WfMalIL4t1+VhoFaLQrvug/aLb/bdSJ7T0H7gttu0ha5c+wiR/cabLOQNg6TPvWi/fZO31OQiIiIiIiIyP04Q5Com9mFQD04U1AzJBVxLz0Nr/jWVb5MtVoU3r0K2s1bLfUJNp1IZwo6PDOIej0atu90fo2wDcOpPNtiYa6vR8OOv1q7aUd/xsJCu23mmlro/vyruQvZPuw3GsvKYblhYnvumQh080xBIiIiIiIiIvdiIEjUE3ogFFSHhyH22f/COyXZst1Uq0XhPQ9A++sW22GdhIKOmSorkXf1Dc0PBMk/koPtgz7pORpyT6Hwuptam8iMK0A+sLNeUKQp4wiKr7/FbvvpjmWecau62wgFbXd3NRR0MAwRERERERFRT+Mlw0QuIHupqIsvH1bHx0EzZLBkW8Xb70O7cRNgNjuoUebyYZnLkkW7LXb/OLm01qpmyXbR9kubUeQv7XV0mbDddtFuVJm627h82HY3Lx8mIiIiIiIiD8BAkMhFejoUNBQUoikrR9Jt2NWXw2/G9OaZbTIFyYaCsvV5eCgo26C1UfeEgkRERERERES9AwNBIhfqyVDQUFKK/DvvgT73lKWFMjgIcc/9F34zpjksSC4UlOXRoaD9LtGmEUNBIiIiIiIi8hQMBIlcwioY6sFQUHfwMPJuvQuGoiJLC2VwMOKeWw3faVMcFsRQUEqQ7GYoSERERERERJ6Fi4oQuYwIy2ITosyCHS5aaER3OAOnrr8NCW+9AnVUFABAGRKMuOefRP5td6Fh5y7ZgloXGnF8LqrICCR99XFHngTX69BqHfKLewgajeSxWVtn+VryzIvo/EIjDAaJiIiIiIiol2AgSNTNRNE6J3JXKHgEudfchITXXoRXfBwAQBUWiojbbkTOrj0QzGaHoaBdcmU9/U2hgCo6qiNPR59jqqqCIa9Asq1bQsEeqJ2IiIiIiIioPXjJMJGLiNZBmt02aUNXXD7ceCQTebfeCWNFpaWFMjgYCh8f2Ut7nekvK+SKRiPqvvgaxrw8B7loFy8fJiIiIiIiIuoFOEOQqNs5WqbCDTMFDx6GsbwCqrBQxxXZFuQguRJFQGxsRN2vm9Gu+W5tNBGcPJJscjK9Tn5zhxq30htQ/8uv0G3dBlEUW54bQXJcV2cKEhEREREREfUGDASJXEiatbknFHRaHxyEgg4Yq6qRf9PtLY+s2gsOAj7BpqXVGILMF5I+hNadgqSddRO7gVuGcRAV2m4XHNxVULAK/7otFOQcQSIiIiIiIuodeMkwkUtILxN29+XDjmqTHu9sQRFJKfbbbS+h9ajVh+3H6Nzlw0RERERERES9AwNBIleQSbDcFgpaETTeUPj42A3MULAHQkEiIiIiIiKiXoKBIJGr9JJQ0KStszzyTkpE5D/vgKDxdhwKyowst/owQ8EOhoJMBomIiIiIiKiXYCBI5ALSkKvt4M2VoWD1mnUQTabmB4KAkCUXIOLvN7ccJh1BERSIoKVL5EZlKNjaSGZ326EgERERERERUW/BQJDIRRyGgvZJV/NXLgoFqz77CpUff946gFKB8L9dg9CVy5sXwGjZro6JRsJb/0PQeee09msyw1BYbFMjQ0GGgkRERERERNSXMRAk6nYi5MM5afjXU5cPiyYTih5bjZqffrEMICgViF51NwLOmQsIAnxGDkfSp+/Bd9yY1pWAzWbUfPcD6nfstB0WtokYQ0GGgkRERERERNR3qNxdAJGnkYZjQst/Tz+0PLK0FVp32myTdioKAmw32223GsN6XNFgQOEDj0AVEgy/KZMAAAqNBgMefRAVKckIu/wSqCIjWrs1GlHxzgcoe/YliAaDXUHNNbZ9LhABUZC0at4n/Udy0tLnq/kLEU7OUVoGLEdIB26pUYRg9+TKbBcBUZCMKlO+3clJv+Oy505ERERERETkfpwhSOQCtjPmHM0UtDlK5nhpp12ZKWisrET+vQ+iMfO4pakqLBRRd/1dEgaa6xtQ/NhqlD7zAswGg8OCOFPQ0khmt4OZgkRERERERES9AANBIhdpbygo2iddMttbN3YlFNTnnkL+XffCWFYuW7Opqgr5d96Dyo8/h2g02RzPUNC2OIaCRERERERE1BcxECRyoY6Egj11T0Hd4SM4dcs/YG5okByuz85F9mXXovaXTcDpVYltK2IoaDM2Q0EiIiIiIiLqexgIErlYRy4f7qlQsH7XHhSs+jdMtVqITXrUbf8T2SuvQeORTKvDZOM7hoJ2Y7c/FCQiIiIiIiLqDbioCFF3kw2epAtuNP/39EPLI5mOXLfQSPW69Wg8egwKP180HjkGsaHBfoEMm4Fbj7cviAuNtLXQCBEREREREVHvwECQqJtZZtfJBmanWzgOBcWWL22isO4PBU1mNB7NtDpIsAvSGAp2Xyj4e3gUatZ8B18fH8w9Z67dWKc16hpxLPsUPvx6PUYOHYSJY4Y7bHvo6AnsOpABADh/3iyEhwY7bPvdL9tQXlkNf18fXHz+PIft6uob8OX3GwEAI4akcHyOz/E5freOP2vqeJSUVqCyVov6+gYYDEbLrGyD0YjsvEIAQEhgACLCQhz2WVVdi7KqagBAwoBoaLy9HLY9VVCMRr0eaqUSAxNiHbbj+D0zvlqtgsbbG8GB/ogIC0FMVDi81Op+8frvr+OfKiiG0WjC6EmTHLZraGjAxg2/AgAWLloAhYIXshERuRoDQSIXkAvSgA7MFGy5+tQ2SHPFTEHrBiJDQdjqrlDQz2QAggKh8dbYjWFNUAjQeKkREhQAXx/nbTXe3ggNDgQAKJVKp20DA/xgNpvhq3Hep0KhsPTJ8Tk+x+f43TG+v78vqqprUVFVg+27DsDP3x/+QYEICouEUq2CouVnbFOTHvV6IwAgOioS8fFxDvssLi6BkF8AAEhOTYWfn6/DtgZBgfr6BnirvTA4Lc1hO47fM+MbjUY0NTZCq9Wi4PAx7D98DHExkUiKH+CRr3+O74cAP180NDa1OX5QUKDTNkRE1L0E0dFNtIjI4tsfN2PwsDSERka02bbyttuhW/8DgJY8SCZkat0kWP3XcoDTtg66BORCQbntVmPIdA2cjrpsOpM7l9bjHZ1j2+cCwa6V3D+SMey7aeMcZZ4YwX7glmFkn0X77YLdqDJ1t44hTJgA5fMvyvZtraaqCkfT07Fw7kyo1fybDRH1bUUl5Ug/egKNTXpED4hF5IAYeLcRTFD/YTaZUFFWhqK8POibGjF4YAJSkxPaDJmobzmWlYuTp4qczhAk6i6Z6QcQ7O+LsSOGuLsUot7uDX7aJHKhLs8UlGkr3SbtlDMFHZxjL5opSETUH5jNZuw7lIlTBcUIj4zEkFHJ8PL2dndZ1MsolEpEREcjPCoKJfkFOJGTi/yiUkwdPxL+TmYdEhERUdfx5gxELma5p6DtdlHSAtKHjibutm53xerD1g3kypA7l9bjHZ2jKLPNZrto10ruH8kY9t30ndWHiYg8WZPegN//2o/CknIMGTUKKcOGMQwkpwRBQHR8HEZNnAgoVdi6Yy/KKqrcXRYREZFHYyBI1AO6GgqK9kmXzPbWjQwFJcXafmkzCkNBIqLuojcYsO3Pvahv1CNt7BgEhzhemILIltrLC8NGjUZASDC27zqAkvJKd5dERETksRgIEnU7BwET0OVQUC5IYyho/0XvDAWJiDyb2WzGzr2HYDCZMWzMGPj4+rm7JOqDFEoFBg1LQ1hkJHbtO4zaunp3l0REROSRGAgSuYDDgAnoUigo19ZBlwwF7Yu1/dJmFNeGgkREnu5AxjFU1dZhyIgR8PLycnc51McNTE2Fxs8f23enQ28wuLscIiIij8NAkKibKZNTALg2FLTpzeZ4aacMBSXF2n5pM4oLQ8HERNk+iIg8QVlFFXLyipAyZCh8/DgzkLpOUCiQOjwNJpOIjGPZ7i6HiIjI43CVYaJu5nvGbGhffAlAczgku5Iturb6sPRQR9tbO+Xqww7O0eZcLEe4YPVhYeo0u2OJiDyBKIpIP3ICIWFhCAkPc9rWZDTivrv+bnmsUCgxIC4OSQNTMPec+fD183d1uQ5ruub6mzF0+IgOH19SXIRn/vMoHnxsNfwDAlxQYf+lUqsRlzwQ2ZmZSIqLQXAQn18iIqLuwkCQqJspYmOhiouHMT8PgGtDQcA+SGMo2PtCQSE0FEdFAWWbtwIAZs2ZJdvPaacKivD9xm2IjY7EpLGOP5wWlZThr/2HAQATRqUhNibSYdvdBzJQUFwKAFh09myn46/bsBWiKCImMpzjc3yOz/HbHD82KgJ19Q0YNSxNtm3G4SMoK20ef+q0KUjfvw8LF1+E5JRB0Ov1OJWTha8++xiff/wBLlxxJcLDwxEeHo7hI4c7HL+8rAyHD2UAAIalDUNklOPztx5f7uev2WxG+v59qK2txdYt2wBR7ND4ISGBSN+/Dwaj/GWtbY1PzkVERaGssAgHM09i5qQx7i6HiIjIYzAQJOpmyogIqEcOhzEvzyrXck0oKNdWuk3aKUNBB+fo6lBw4EDovLxQU1omrc+BJr0BVTVaBAU6nwmhNxhRWV3bfEwb91eqb9BZ2rY1flV1LcyiiAB/55f9cXyOz/E5PgDojSYMiB0Abx8f2bY6nQ41Na3jA8CkKdMwyWrmdH1DPZ594lEcOXQIaSNHwbeNy44NBiNqampx+GA6ystKcNGyZQ7b2o7v7Py1Nc3n397xASAg0HnbjoxP8mKTEnE0PR21dfUIbOO1SURERO0jiI5ujkVEFt/+uBmDh6UhNDKiXe11P21AxY03Nz+w+s1fgH3AZGkiEzK1bhKkXQnSjqWHOtreulH2w4jtdqsxbMqwPBDstsmfS+vxjs5RkNlms93uqRPk/pGMYd9NG+co+71x8D1zMMPDbrsAKO+9H8pFi2Tb26qpqsLR9HQsnDsTajX/ZkNEvVtNbR02/bELI8aNhV9AYJvtDXo9zp83G4/89xlJIAgAWm0trlx+Ec4+9zzceNs/2jX+lcsvxPKVV+C8RYs7VX9bNbVHbk4WbrhyJT5dsx4hIaGdroOc279zJ5Jio5CWmuzuUqiDjmXl4uSpIoyeNMndpVA/kJl+AMH+vhg7Yoi7SyHq7d7gp00iF9DMngllTDRMRcU2k914T8F+N1PQxweKuXPt2hEReYKS8kp4eXm1KwxsS0BAIGafcRaOZDRfitxQX4fNG3/BkUPpqKmpQUxsLC648GLExicAAP696m6UFBfhxWdWY8uvG3DWOefhnPMWtnlcR3W0P7PZjJefewqBgUG46m83AgBMJhPWr/0WB9P3QaVUYeqMWZh1xlmdqqe/Cg4LQ3FZJQNBIiKibsJAkMgFBB8fBNx2K6rvf6B5Qw+FgoB9kMZQ0L2hoPLqayD4+tq1ISLyBNU1tfBr4/YGHTEgLg7btmwCAOz+ayd+37oZg4cMxcBBg7Hrzx247YZr8cb7HyM8IhLzFyzCjt9/w9jxE7HgggsRn5jQruM6qiP9iaKI51Y/geOZR/H0S68CaA4I77vzNgAC5pw1D3V1Wrz24nM4lZONy66+rmtPWD/iHxiIsqIimM1mKBQKd5dDvUiRTovSpgZ3l0EdEOylQaJvkLvLIOr3GAgSuYj/pSugP3AADZ9/2byhB0JBubbSbdJOGQo6OMduCgWV8+ZBecmldvuIiDxFva4RPgHB3dafn38ATt/NZtYZZ0lm0S25eAUuv3gx/tqxHectWozJ02YgKjoGM+eciRmz51jatXVcR7W3P1EU8cYrL+DggX149pXXLSsOb9q4AcVFRXjn4y+gUqsBAANTBuGxB+/HpVdew3CrnTQ+GpjNZjQ26eHro3F3OeRmxY11KG6sw/9O7MZRbQWy6qrcXRJ1QLTGH+NConFp4kik+IUg3rfrs8yJqOMYCBK5UMgD96Nx6zaYi0uaN/RUKGh5xFDQbaFgSAhUt98OKJUgIvJUBqMJAd14v9PS4iIkJCVZHjfU12Hvnt3IOnEcDfV1qCgvQ21NdZv9dPa4rvT36Qfv4rtvv8a7n3yJ0LBwy/aMgwdQWlKMRx+8z7LNLyAUPj5+0NbWICg4pNN19ScqZfPrzGAwAvLr11A/oDeZkFFbhhv2rEeBTuvucqiTihvr8EPRCfxQdALBag1eHn8uJofGwkfJeIKoJ/FPkkQuJAQEIPydN6GIsrqkSLT+UpQ8ljSRWe+ndZMo7Uq069i2N5vjpZ3KbbbbbjWGTRmWB7ZltB4m2m9zUJAo04nteZ/+UrZX0aal1Rj23bRxjrLfGwffM6txhOBgeD35FBDevkVoiIj6KlEU7f5I0hUZh9KRnJwCAMg8moGrL12GP3/biuiYARg3YTJCQ8Pa7KOzx3W1P7PZDACoKC+XbBcUCoSFR+Ci5Zda/ucfEIK/3XoHAgJ5yVy7tfzhzcz1EPutA9UluHnvD1j4+2cMAz1ItaERl/35La76ay02l+a6uxyifoURPJGLeaWlIeLD91B2+VUwl5Q2b+yBmYJcaMRNMwUDg6B67nkIw4aBiIjab//e3TiacRj/uGcVAGDNl59jwsTJ+L9VD1naVFZWIDvrpOQ40SYgau9x7dXe/lZedS109Q145IF78cJrbyEmNg4AkJCQhC0NPyNl0GD4+TdfRvz7bzuRmDiQlwsTtdOhmlJcvnMNKvU6d5dCLvJHeR52VhTg4ylLMD083t3lEPUL/C2EqAeoU1MR8cmH8L1oSevGHpgpKIrys+s4U9D+i+6YKag460x4/e8VKBgGEhG1m1Zbix+/X4tH7r8HV153A2IGxAIAFIICGRmHUFVVCaB5ph4AxCcmWY4NDApC+oG9klCwPcd1RHv7EwQB/7jnfsQnJeFf9/wf6rTNM5jmzT8Xam8vPLf6CTTqmsOMq6+7Cn5+vO6VqD0O1pTi4u1fMwzsB4yiGct3fI3fy/PcXQpRv8AZgkQ9RJ2SgpDV/4Fm5gxo33wHhsOHe2SmoFxb6TZpp5wp6OAcncwUVKSkQLliBZTz5wPe3rbPnkcwmUz4Y9cBAMDYEUMQ4O/nsO3+w5mo1dZD4+2FSWNHOGzX1KTHzn2HAABxMZFIToxz2LagqBQnc/M5Psfn+L18/MzMY6ivq4e3lxeGjxzusN3zq59A/MDBMJtNKC7Mh6+PBg8+sRpjxk2wtFl22eW4767bccu1V2FAXBJ8fHyQmJQMldW9WZdfdiWefPQhXLFsCVKHDMWyy6/B+CkzUFxShpUXno+AwCCEhIQiZkCs5Di9Xo9DBw8DAMJCm+/ht/qRB6FsWfTjtH89+gTOWbgIZeWVePDee1FTVQ5fX1+7/k7Lys7B0hVXYM1XX+DRf92LJ55+Ab5+/nhk9TN45vFHsWzRfAyIi0dNZRWmzDoTM+eciaioSMTGxTp8rkpLSpGfXwAAGDo0Fb5+XX/+rc+/r4xvNBia7x/ohLtf/xy/feN35Pt/sKYUy7Z/Ba1R77ANeZ7L/vwW70xahDMjk9xdCpFHYyBI1IMElQq+iy+Az7x50G38Fdo33moOBrnQSJ8MBRXJyVCtvAzKM+YALZeBeSqTyYwNW3fA388XqckJTj8QZBzLQnFpOQL8/Zx/IDAYsPtA8wcCURSdfiApLiu3tOX4HJ/j997xs09moaK8Ar5+frKBkEqtxpMvvAK9Xo/0AxkQBAFLV6zE5KmT7domJiXjvU+/xo4//kBO9ikolUpcee21CAxqXY1yxqw5GPX1OhQXFSIuIRHbNm9DRXkFps06Ezfddht8fX0RPSAWFeVlklmERoMBRw43z/QbOmwonnzhFdnzSU4ZhFOn8jFq7EQYjUZMmTIRqcOGSfqLjh6AJ194BYEBgdi54y9UlFdgwuTpGDI0BfUN9QgMDELqkGF4/YNPUF5WioqyMvgHBGLL5m04cjgDoig6DUQqKiostSYmxjsN5Np6/uXOv6+MbzaLiI92fm9ed7/+OX77xu/I93/Fjm8YBvZDRtGMG/esx7YzrkS0xt/d5RB5LEG0vfEKEdn59sfNGDwsDaGR3btIhKjTQdTpoNu4CcbsbKdtLTmUXYLnrK3kkeO2sk1kQkGHXQntG06wa+20nUzv7apHkHvk4Bwt/23zaW19PoSYaCjnngXBWwP4dO8lXzVVVTiano6Fc2dC3Y0rd3aVWRSRnZuPmKgI+Ppo3F0OEfUSP2/9E2HR0RgQn+DuUsjDNep0OPDXX5gzbQJCgjz7j3Ce5lhWLk6eKsLoSZPafYxJFPHAoc34KPeg3X1Cqf84L2YQnhlzNgJUXu0+JjP9AIL9fTF2xBAXVkbkEd7oPZ82ifohwccHgo8P/JYtdXcpRE4pBAEpSbzBMxEREbneMW05PsxJd3cZ5GY/FJ3ARXFpOCc62d2lEHkkLipCREREREREvYLRbMZLJ3a5uwzqJd7I2oN6o8HdZRB5JAaCRERERERE1CtUGxuxruCYu8ugXmJnRQGOacvdXQaRR2IgSERERERERL0Cw0Cyta6QrwkiV2AgSERERETUg95+4x1kZzlfTIyovzpSW+buEqiXyajha4LIFRgIEhERERH1oKamJphMZneXQdTrVBkasa+q2N1lUC+T01CL7Lpqd5dB5HEYCBKRQ5cuWYh333jVbvt7b7yKRfNmY//e3ZK2t1x7JURRdNifyWjElcsvxB03/02yvaK8DK+++Cyuv+ISLDp7DlYsPg933nIDvvrs4+47GSIiol4iLj4OPr4+7i6DqNep1TfiqLbC3WVQL1Ogq0VBo9bdZRB5HJW7CyCivuWzjz/AV198ioceX40x4yZI9p08cQx/bNuKGbPnyB770/rvUFJchJCwMMu28rJS/P2GaxEZHY2LVqxEeEQk6uu0OJWbg/KyUleeSo+qra1FWUnz5Q4xsTHw9fV12FZb34CMYyehVquRlprssJ3ZbEbGsSwAQEhwIGKjI7u3aCsGoxEfff0D5s2ajLiYKJeNQ0TUHyxafL67SyAiIqJ+joEgEbXb2q+/xIfvvIlVDz+OiZOnyrb58J03MW3mLCgU0gnIBr0en374nt2MiDVffQGIIp58/hV4eXm5rHZ3K8gvxOZfNwMAFixagMTEBIdtS0rL8eXJHHh7qZGWer3DdgajCZ+t/RkAMH7UMCw598zuLdqKaBZxMicP0yeMdtkYRERERERE1DMYCBJRu2z4cT3eeOUF3PuvRzBt5izZNksuXo71a7/Ftk2/Ys7ceZJ969etgZe3NyZPm46TJ45bthcXFcBbo/HoMBAAhqUNxbC0oe1qO2hgAhbOnQm12vmPaG8vNR6755buKK9tAuCj8YZCyTtNEBERERER9XX8ZEdEbdq2+Ve88PR/ced9D2DmGY5noYVHRGLBBUvw0Xtvw2xuvVm6vqkJX3z8AS67+loolUrJMSNHj0NRYQFee+k5VFVVuuwcqGu81Gqsuv06DEqKd3cpRERERERE1EUMBInIqQP792Lno41kAAAgAElEQVT1Yw9j2aWX46x589tsv3zllSgvL8XmX362bPtuzdfwDwjAnDPn2bVfdOFSrLjsSmz48QesvPB83HPHLdj40w8w6PXdeRpERERERD1OrVAgwTcQQWpvd5dCRCTBQJCInEoZnIrExIHYsnFDu2bwBYeEYPGFF+Oj99+ByWRCo06HLz75CJddfZ3dfQUBQBAEXPW3G/HJ1+twyx3/B4PBiGf++xhWLr0A69d844pTIiIiIiJyKaUgYHhQGF4ZfxZ+OWMpfp59ER4bOQOTw2IQ4qWB4O4CiajfYyBIRE75+/njsaeehdlswgP/9w/UN9S3eczSSy5DTXU1fvlxPdZ88yVCQkMxc47zBS80Pj5YcMESPPvK63jvs2+QOmQoXn7+aRzPPNpdp0JERERE5HJRGl/cNWQCfpx9Ea5LHonB/sGYFBaN+9MmYdMZF+OHWUvwyMjpmBgajRAvb4aDROQWDASJqE2hYeF4/OnnUVZagkfuv7vNy3n9AwKwdPkleOu1l/H5R+/h8mv+BkFo/686UdHRuOPu+yCKIo4cPtTV8omIiHqV/Lx8NDQ0uLsMIupmPkoVLowbjO9nLcF/Rs9EnI+/bJvJYTFYlTYZ285ajh9nX4RHRk7H+JAoBKq9GA4SUY9hIEhE7RIXn4hH/vs0jh7JwJNP/FuyaIicxctWoE6rhVKpwrQZ8qsSO1NWWgIAiI3jIhbtoa1rQGk5F2UhIuoL1q35DoUFRe4ug4i6iUIQMDYkEp9OXYBPpy7A+JAoS7DXaDJibcEJfFeYBa1BD5MoWo7zVigxKTQaq9ImY8e8S7DpjGV4eMQ0jAoOh0apYjhIRC6lcncBRNR3DB0+Avc/9Bj+vepuvPbSc7j59rsctvX18cUn334PtVrtdHbgYw/eh/q6eowePwHRUTFQeamRk3US6775CmPHT8SY8RNccSoeZ3d6Bg4czsQdf1vp7lKIiIiI+o0QLw1WpU3GjYNGw1cp/Xh9oLoM96X/hp+LciACCPf2wbkxA7EkdhDmRSfCT6W2tFUJCowLicS4kEj8a/gUpFeXY13BCXydfxwHa8phtgoSiYi6AwNBIuqQydOm4+//dy+ef/IJhIaGYcXlVzlsGxoa1mZ/F6+4DJt/3YDfNv2K4uIiiKKImAGxWLHyCixcfCGUSmU3Vk+dJQJobGyCl5caSpnFYYiIqP1mnzEbEZER7i6DiLpAo1TiyqTh+PfIaYj09pXsy2vQ4vGMnXg/+zCazCbL9vImHT7MycCHORkI9dJg4YBkLI4bhDMjExCo9pL0MSo4HKOCw7Fq+BRsKc3D5X/+iEJdXY+cGxH1DwwEicihT779Xnb7/AXnY/6C89vV1pbtrMIhacMxJG145woki5TEOAT4+bbdsJMMegMef+EtXLF0IVJTEl02DhFRfzB8RJq7SyCiTlIJCpwZFY9HRkzH+NAoKK2uhNEa9Hgz6yCezdyNIl09nM3pq9Q34oOcDHySexSh3hqcE52ERbEpOCMyHqFeGks7AcCcyHicE52Id7MPd7putUKB0cERiPXxh0EUkV1XjWPaKsklzETUvzAQJCLyAAmx0UiIjXZ3GUREREQea0RQOO4eOhFL4gZJLvcFgJLGeiz94zvsrCiGUXR+r21rRtGM0sYGfJiTgc9PZSLc2wdzoxJwQewgnB+bDJWggADAT+XVZl9yvBVKXJI4FHcOmYBE3wB4KZUQRRGNZhMOVJfh6aO78FNRDoNBon6IgSAREbVJoVRg4pjhCAoMcHcpRERERD0qUuOLG1JG4fqUURjg4y+72EeFvhEZtZUdCgNt6c0mFOrq8EFLOFi8+EYEqb073V+g2gtPjZ6FKwcOh5dCehsejVKF2RFxGBMcgaeO7sZTR3fB0MaigUTkWRgIEhFRm1RKJS44Z467yyAiIiLqMb4qNRbHpuCuIRMwMjgcKqH1PsoFujqUNNZjXEiUS8ZuMpucXnLcFrVCgbuHTsQ1ySMtlzWbRRHleh3UghLBXt4QAASpvXHfsEkoaNDi/ZyMbqmdiPoGBoJERERERERELRSCgEmh0bg/bTLmRiVCY7XIXa1Bj7UFJ/BM5h6cHZ3oskCwq0YGheOGQaMtYeCphlo8fGgHdleWQKVQYEHMQNyeOg7h3j7wU6lxT9okrC/KRnmTzs2VE1FPYSBIRERERERE/Z4AINY3AHekjsPVA4cjxGpxD73ZhJ0VxVh95C9sLDkFvdmEedG9d6G1C2IHIayl/jqjAZfu+AHbywst+9Ory1DWpMML486At0KJZL8gnBkZjy/yjrmrZCLqYYq2mxARERERERF5tlBvDb6efj7uHDLeEgaaRRFZ9TX45/5tuOC3NfihKBt6s6lnCurkNcNKQcCE0NaZi1tK8yRhINB8Xt/kH8fR2koAgJdCibEhkZ0ulYj6Hs4QJCIiIiIion5voF8QJoZGWx5rjXp8mJ2BpzJ3I7e+tucLklu9pB28FErJKsiOaq/WN6Fa32R5bD0jkog8HwNBIiIPkJWbj8KScsyYNMbdpRARERH1SUpBegHdsj++x4biXIhdWt6j5zWZTaixCvpGBIVDgP2EwyiNL6I0vpbHpY0NPVMgEfUKvGSYiMgD5BYUY/eBw+4ug4iIiMhjZNVV97kwEGi+HHhbeYHl8YyIAViWMETSRiUocOOg0RgSGAIA0JmM+LOiqEfrJCL34gxBIiJqk8lsxt70I0hNTkRQoL+7yyEiIiIiJ77JO46/Dx6LeN8AKAUF3p98LmZGxGJjySn4KFW4OD4VC2KSIbRcl5xeXY5NpafcXDUR9SQGgkREHmDKuJEYN2Koy/o3GU1Y+/MWXLF0IQNBIiIiol4up74WDx/ajlfGz4VGqYSXQoGbB43BdckjoRAEqKwujy5r0uHeA9vQaOqhxVKIqFdgIEhE5AF8NN7w0Xi7uwwiIiIisjExNBqXJjb/4VZr1OO/GX+hwWRs+8AuXK0sQsTHuUehUarw6MjpCG1ZMMRLoZS0O1lXjbv2b8VvVpcYE1H/wECQiIjapFKrcPXyRYiJinB3KURERER9SlpgKG5PHQcAKG1qwPOZe9sXCHZyleHT9GYT3jiZjp0Vxbh50GhcnJCKAJUXAKBAV4ePcjLwTvZhnNBW9cE7JRJRV3FRESIiapNCEJCSFA9fH427SyEiIiKidjKJIvZWleD63b/gSG2lZfv6wizcn/4HjjMMJOq3GAgSEREREREReTCzKMJkNlsem0SxT66gTETdh4EgERERERERERFRP8J7CBIRERERERF10O9lBXjg4B8AgPImHXTtuS8gEVEvwUCQiIiIiIiIqIN2VhRhZ0WRu8sgIuoUXjJMROQB/tx7EO9+vs7dZRAREREREVEfwECQiMgD6BqbUFOrdXcZRERERERE1AcwECQi8gABfr6IDA91Wf8GoxHvfr4O+UUlLhuDiIiIiIiIegbvIUhE5AEmjE7DhNFpLutfNIs4mZOH6RNGu2wMIiIiIpJ3dnQiAtVeXeoj1jegm6ohIk/AQJCIiNomAD4abyiUnFhOREREnkUAkBoQgpsHSf/w+Y8h4/FM5h5k1VVD7GTf8b4BWDAgucs1LhyQjIXd0A8R0WkMBImIqE1eajVW3X6du8uQ0NWZYDYBf35fBaPebLNXkPnK8QPJ5pYtAgBRkNsnbWM/rGC/Sf4Lp+Pb7mjrKJmhHdfipB6HjxzWIsjXJ9O/ACBmiArRg1Tw8gGUKsfPLvVvRpMeOkMdMgv3IKf0oNUeJ68ZR+9Xu9duJ/qQ6VBw0ND529BJBTbtnNbR3p8N9j9K5LtzVrTgcI8djbc/JiVdAKVSDY3Kr41RiXqHGI0frkoegb8lj0SiX6Bk342DRuPs6CS8fHwfPs49grImXbv79VYocX5sCh5Im4KRweGW7VX6RhhF299bel5xY727SyAiN2MgSEREfYq20oi9G2uwfW0ltJXGlg+yMuGeYLut9ZOxXBRo349cKCf9kCz3kV2w+WTd6X5skgnbY+y2yYzd8X7kgg6rZ0+wedw6sM02+X4EAPiuCRCA+BFqTFjkjdihKgiceEotTCYDDhf8iR/2vYXMwt2W7XavSQdBl+x7wC7QaiNwF2zeWbJjOajB4c8FmwpkUjXpjyDBQchvX79ctm//M8ZuJPvnxen73ratgz8dCMDPB19DiG80ZgxajtGJ58DfO8S+A6JeIEDlhfNjU3DnkHEYHRwJpdXr2mA2Q61o/j+nZP8gPDlmFi6OH4JnMnfj5+Ic1BsNTvse6BeEu4dNxMrEYfBXqS3bi3T1eOTwn6hr43g5Bbo6VHQgkHREBJBVV42Pco50uS8i6tsYCBIRUZ+grTJi90/V2PVTFapLDTj9EVQUAUEQWx+f/qp5h9W2lj2i9cw/0Uk/YvOH6tZNrdtaDhUFEbYf/kVRlHxY7nQ/ECFYTVG0Paa5S+lxtmN3vJ+WZ0q0Dgesnr3W/1ifjuW5tv0u2PZjGVkE8g4ZkHfIiPjhKkxc7I3YYfyVpL87mPcH1u7+H04U77fLoOxeky2vacnrEA7eA5JjHb0npa9n0ToUbP3RYf1uk6/B4c8Fm/eCaB8KWr29Wqu0PUGZ+q0OcfIzxqZ2u/enzHMsed/b1GD3c866BhFVDcX4Lv0FbM/6ClOSl2B80kL4egWBqDdQKxSYFBqD+9Im4ayoBHgrlJZ99UYDNhTn4r3sQ7g2eSTmRifCV6mCSlBgangMPgw5Fz8V5+Dpo7uxu7IYBrN0pp+3QolzBwzEw8OnYmRwhOWtYzCbsaU0D/88sA0Hq8s6dfnxi8f24o2TB9tu2A51Rj1MYmcvgiYiT8HfvomIqNc7sb8eG94tRV6mzmq2i7Mwj6Fg5/vpuVAQgoi8w0YUZpow5lwvjD3PGz4BMtORyKNV15fih/3vYGP6RzC3XEYn2s7SA0NBabveHwoCAirqCvBD+ss4WrQd84Zfj6RwLkxF7iNAQIJfAP45dAIuT0pDgKp1gQ6D2Yx91aV48sgufF+YBb3ZhJ+Lc3FBbAruHTYJI4PDoRIU8FGqsCR2EM6IiMdHuUfwXOYe5NTXQAQQ6+OP+9Im4cqk4fBrmRUoAihpbMCzmbvx6okDbc4stGOV2elMJtQYmrr+RBARtWAgSEREvdq+TdX48pkCiCagY2EeQ8HO99OzoaDJCOz5rgn5h4xYdI8fNP4MBfuL6vpSPLXuOuRXnQDgJJBr3cxQ0EH9vTUUFAFkle3Fm9tuxRXTnsSQ6Kkg6kkCgGAvb1w1cATuGjIeA3z8LfvMooi8Bi2eO7YH72cfRo1Bb9mnN5vwZd4xbCjOxTXJI3BH6jjE+fpDgIBgL2/cOngMFscOwrPH9uCktgr/GT0TaYFhluONZjM2l+XhngO/YX9VaeeL76XUCgUUEGAUzZxtSNRHMRAkIvIA2roG6BobERke6u5SutWBLTX4/MkCy+OOh3kMBTvfT8+GgoCAkmwT1vynDkvu94e3Xy/+FETdorq+FP9dczWKqrObN9iFagwFPSkUNJuN+HDHPVg55QkMi5kBop5yZlQCnhs7ByOCwiXbtQY93sg6iGczd6NI53iBjRpDE57L3INv8o7j7mETcUVSmmUGYJyvP54dM9vumIomHR7L2Ik3TqZDZzJ27wm5kQABiX4BuDg+FeNDouCv9kJZUwO2lRZgTcEJVOsbwWiQqO/gbbyJiDzA7vQMfPLtj+4uo1tlpdfjy6fzmz+ZthCt/gsRsN0DnG4us6fL/Yi2TVq3Wfqx/zVYtPmreaf7kRZqd4zdNpmxO95PyzMl6cbq2RNtHrcObLNNvh9Rsrv5UVmuGT8832BXN3mep767HoXVWXbvCdvXktyHS7vXpNyxcPAesNkk/550UoPsWA5qcPhzwaYCmZOU/ggSbR47rl/6vrJpIy1V0tDueXH6vrdtK9ej9AARzYvGfP7XQ8iv4mIG1DPCvX3w5OhZkjBQhIgv845hysZP8M/9W52GgdZyG2pxy55fMXvT5/i+MEv2vQ0APxfnYNamL/DCsb0eFQb6KFW4N20iDsy/AqtHz8KyhCE4L2YgrkwajrcnnY3951yOi+JToXC0BDsR9ToMBImIqE0iAF1jE0w2N892FW2VET+8VQyj4fQnXIaCljb9IBQsOm7CgZ95nyRPtnb3q8ivOG55zFCw/4SCTYYG/HjwZegMWvtOiLqZRqlCoLr1XoH7q8swd/NXuHTHehyprexUn3urSnHRH+uw6Le1yKitsGyvMxpw655NWPL7Ohyx2u4JvBVKrB49C4+OmC6596K1eN8AfDB5Pv6WPLI3X+lMRFYYCBIReYCUxDjMmDTWZf0b9AY8/sJbOJmd57IxThNFYN3/CpGX2SAbMAEMBT09FDQZRfz+SROKT5js6qa+L/3UH/hm5ysQRbP8a5ChoG2PHhcKZpXuxU8HX7HvgMgFTodTZlHE6ycPYHNpnsN73gkQEO7t02afBrMZ6wuz8GFOhmVbXoMWn506ikYPmhV42tL4VFyXPMIy+6/BZMCPRdl4L/swtpcXWp5PjVKFh0ZMxbjQKHeWS0TtxECQiMgDJMRGY8LoNHeX0S0KT+qQvrWm5ZHtB3CGgpY2Hh4Kmk0i/vqmCWZmgh7FZDJgza5XYBZNzgMrhoK2PXpcKPhX1lpU1BWAqCcZzfJBINA8w+2JUTOw5cxlSPANbF9/kt8nHF1E3AXd3mHH+arUuGXwGGiUzcsPnGrQYvFva7H0j+9w3a4NOHfbN7ht7ybLCsrRGj/ckDLKnSUTUTtxUREiImqTQqnAxDHDERQY4PKx/vqxEiJkbqh/ukGXFwjhQiOd76flmWp96qTPntU3zup0LM+17XehrYVGctMNqKs0IzCCf7/0FPlVJ3C8cK/New/yr//WtyQXGgGs3mNWVdqeoEz9Tp9jaamSE+qJhUZ2Z6/DOSNvApE7Bau9sSJxKP4+eCxSA0IgCMD9aZNw4+6N7i5N8t66adBoLBgwsMdL8FGqMCY4AkDzzMjVR/7CxpJTlv1agx5vnTyICaFRuGbgCADAtPABCPf2QXmTrsfrJaL2YyBIRERtUimVuOCcOS4fx2gQcej35tmBDAUZCkIQcWy7HhMu0IA8w/aj37d8a23fe5B//TMUlLaBZ4WCB/J/YSBIbqNRqjA3KgF3DZmAqeEx8FIoLfsWxabg4UM7UNzYvgVHesKwwFAMCwx1aw2V+kb8XmY/s9comrGhKAdXJKVBJSgQpPZmIEjUB/BP7kRE1GsUHNdBW2VE8yfGlv+Kp/fy8uH+ePnwqYNG2Usoqe/RGxtxtPAvAKdfInLvR1htk74nbF9Lci8LXj7suH6nz7G0VElDV14+XNNQiuKaE/YHErmQQhAwLiQSb086G59MXYDZkXGWMLDRZMIvxblYueMHlDVxxXtbggCHqwgrBGm0wP/rJur9OEOQiIh6jRP766weyc0+4UzB/jZTsOCIEaIZEFonblAf1WhowMmSg5bHzS8R2/ce5F//rW9JzhQ8PYztz0XbE5Sp3+lzLC1VckKumiloghHZ5fsRHTQIRD0hUuODx0dOx9XJIxDp7WvZbhLNyKitxDNHd+Pr/OOW++H1JrsqS3BM27mVkbvCT6XGvKhE+KnUCPPS4KyoBKRXl0kCP7VCgUWxKVC1hIKV+kaUNjJQJertGAgSEVGvcWRnbTs+aDIU7G+hYM5+A5LHq0F924GcbXbbGAoyFMws3oGpKUtB5GoKQcCqtCnwVbZ+BBYBFOnq8PrJdLx+Mr3dIZYgCIj3CcCsiDjLtmiNH2ZFxOHn4mw0mrp/RawPczLw8vF93d5vWzRKJX6afRFmRcRBKShw99CJyK2vxc/FudCbTfBVqXDLoDFYHNsc7IsAtpTmoUrf2OO1ElHHMBAkIqJeoyyvCfYffhkKtrsfDw0FqwrNwHhQH1dQedIuVAIYCvb3ULCsNgdEPcU6DGwwGfH5qaNYfWQXjmmr2t2Hn0qNSxOHYlXaFCT4ti62FuqlwefTFuDLvGN49PCfOFFXDbMH3POi0WTCC8f2YnxIFPxUakRqfPHptAXYU1mCIl09hgaGYkhgiOXnR36DFm+cTHdz1UTUHgwEiYg8QFZuPgpLyjFj0hh3l9JNGAoyFLTuhzwJQ0GGgtatidxhS2keHjy0HdvLCzsU2k0Pj8VjI6djdmSc7H4vhRIrE4fh3JiBeProbrx8fB/qeuHlxx21ruAknsvcg/vSJkEpKKASFJgcFmPXrs5owD0HtuFwTYUbqiSijuKiIkREHiC3oBi7Dxx2dxldJto8avvm9VxopH8sNEKewfY9I7OXC420UYMHLzRC1ANO1FXj4j++w7wtX+H3soJ2h4FxvgF4c+LZ2HjGUkkYKELEdwUn8cDBPyQr6oZ6afDEqBnYMfdSLIpNsQv7+xqTKOLRjD9x0+5fHa68nF5dhgt+W4PPTmX2cHVE1FmcIUhERG0ymc3Ym34EqcmJCAr0d+FIot1sGs4U5ExB8hCWhMj6PWPfhDMF+99MQaKeYBZFPJPZvGhIeykFATcNGo17hk3CAB9/y0tZBJBRU4GHD23HusKTMJpFfJp7FA8On4LlCUOhUTavhDU8KAyfTV2IH4qy8M/925BdX9P9J9ZDDGYz3s46hHUFJ3HegIGYFBoNf7UXyhobsLk0D1tK83rlYixE5BgDQSIiDzBl3EiMGzHUZf2bjCas/XkLrli60LWBoNWsFYaCDAVP90MexCYhYijIUJCoJxnNHfs/FbMoYlr4AMT6tP7uU96kw+sn0/HS8X2SRUiy62tww+6N+OTUUTyQNgXTwwdAIQjQKJU4KyoBvqq+/9FbhIjSpga8l30Y7+dkQAkBRtHs7rKIqJN4yTARkQfw0Xi7eOZeD7K7hLT5ES8f7mQ/0kLtjrHbJjN2x/tpeaacfs9kvs+OLh+2q4b6NNv3iMw3WLTZIdp9Yf+esH0tyb1uePmw4/qdPsfSUiUNu/PyYaLeRgTw3yO7UKSrR5PZhG/yj+Pcrd/g34d2yK5IrDeb8EtxLi78fS3u3L8VufW1MIsi3jx5EBkedl89URQZBhL1cX3/zxRERORyKrUKVy9fhJioiJ4Z0G62GGA/I0Zu9glnCnrmTEGGBp7g9HeydSaa7XvGvj1nCvaPmYJEvdnB6jI8cngHagxN+L4wq12LhFToG/Hy8X3YUJyDyxPT8NLxfV3+f7JgL2/EWa1q3F2aTEaUNzXK/hGCiDwbA0EiImqTQhCQkhTv8nFsZ9d0Vyio8VPCN7D5//IEANoqIwxNYqdDQS8fBfyClJY2jfVmNNaZ2uiHoaB1o46FguRJPDEUVCpUUCvVUCu9oFKqoRAUULf820yAvyYQKoUKNbpKyRkaTHqYRRFGkwH/z957x8lR3InbT/fk2ZnZnHPU7ipnIYECwYDA2Jhgg20cfg7Y5g4f9p0P+2ycMxx+z3c+H44YGzAmY4JJAoFyzlqlzTlOjt3vHyPNTlpptdqkpZ7PBzTTXV317Z6u3qlnKgTVIMGQn5ASjApt5ktBgWA6owK/PrHvvI9TVJUj9n7+Y/8746La7qpewMdK68Yhp1i8oSC/Or6Ph07uO68VlwUCwcWPEIICgUAgmEaoCY358ZCCy9ans/4zeZEc/vcrp2g66Ilr2I5eCtavtHDTPfmR/F75fQ/vPDkwinyEFIxONFopKJh5XIxS0KA1YjOlk2pKJz0li1xbATm2AjJSskk1ZZBisGIx2DDrLWg1uvC/8tm/aquqisM3REgJ4vY58QRcuHwO7N5B+pyddDs66Ha00e/uweEZZMjTTyDkTxq/kIICwfRkvP6O5RjM5BjM45RbLN+fu5KTrkFe7WyakPwFAsH0RAhBgUAgEEwzkg/7vRApaLZqYkpwO6J6841BChotsfmFAup55COkYHSi0UhBwcxkOktBrUZPQWoxZVnVlGRWUp0zmxxbAVZjKhZjKgatcVyugSRJ2IxpAKSbs0ZM5wt6cXqHcHgHaR9qprnvOC0DJ2gbbKTT3ow/6ENIQYFgBjJJv4plGkzcv2AN17/9NM1ux+QUKhAIphwhBAUCgUAwfVCHX4ynFBypqLHOKWgwjtCKFVJwYqSgYMaQeA9PDykoyxKF6WUsKF7OvOLlzMqbi9WYikmXMi1WwjVojRgsRjItuZRlzWJl5VWoqoI36MHlc3Cq9whHOvdyuGMXDV37UYmd6H9aS0GBYBLRyuNTn3WyTKHJQpPLPmHOTiPFVC4eaz7Km90t41rGsow8Plk+G40kMTs1iwcWruX2zS/iV0LjWo5AIJieCCEoEAgEgmmDeuZ/cT38wjvHLgV9ntjGsU4vxac+LymoxH/7j24xCyk4AVIQwQxiekhBCZPeTFlWFauqrmJV9ZXkp5Uk1JOzoagKgZCfYChAIBTAG3Rj9www5BkgEPIz4OoNzwUoQTAUZMjTh6qqWAw2TPqUSD5GnRmLwYpea8RmTMNmSseoM6GVdWg1utNzEWoSypckGZMuBZMuhSxLHkvL1qKi4vY52dm8kV3NG9nfth27px9FVaatFBT1WzDRnLnFZEnizsr5nHLaeaOrecwr5Gbojdxbv4yPldbzgY3PsK2/c/yCPY1NZ+Df65aSotFFtm3qbeehMcxleDYebz5CrtHM9QUVSMAHCqu4u2YRPzuyHQnQSDKSFK6/CqqYY1AgmGEIISgQCAQzgC279nP42Ck+9eEbpjqUC0RN3miN7B6bFHT0x64ImJ6jo+24Nz71qGWesz8Yk581XTtGuSikYHSis0pBwYxiqqSgRtZQnFHB6lnXclnN+yjOqIha+GNknF47du8APY5OWvpP0j7YTKe9lQFXL4PuPgY9/fiDnphjInVAit4WnSCuRkYlN+pMWI3ppJkySE/JJtOSS1F6OcXp5WRZ88NzFuqtCXVRQiLFYGV19XpWV6/H6R1iT+sm3jj6HD8BF6sAACAASURBVA2de/EE3NNTCgoEE4Q3FMQe8Efez0/L5qU1N/JkyzHuO7CZw/a+UeclAVfllfHAwjXU2zIB+OXiK1j9xmN4Q+PTo04jyXyoqIqfzF9NWYptXPI8G/aAn3t2b6DWlkGVJQ2NJPHduStpctlZmJ7N2pxi8owpDAV87B7s4dGmI7zW1STEoEAwQxBCUCAQCGYAHq+PIfvMmfNlvKVgX8dwYwAgr8LIgXftcUJh9DLPORRCCanImvC+jDxd5Bd0IQVHk8/5SUHBzGQypaBWo2VByQrWz7uFRaUrSTFYzxpbn7Obxt4GjnUfoqFzP62DjQy6enF4hyJpkg0ljl99OLFOJuutGHsBVMAb8OANeOhxtIc3RsnCFL2V9JRsCtJKqM6dS03uXMoyZ5FqSk+Ix2JM5dKqa7mk4ipO9BzmjaPPsPnEq7h89mkkBQWCiaPX5+Gre97iF4vWMSc1PE+nhMTNxTVcnV/GQyf2c//RHXR4XGfNJ9tg5r45l/Dp8tkYNcNN6CprGovSc9nU235BcUrAwvRcvj93Fe/LK0WexKkKjjsHuXvXmzy+8nosWh0GWcNfLlmfEMO8tGxuL6nlubYT3LXrdbq87kmLUSAQTAxCCAoEAsEMwJpiJicrY8LyDwSDPPLki1y1ejlF+bkTVk6YxB5+FyoFu5t9BHwKOkO4J1DFvJSYfOJKPafM6+/wEwyo6E8LwfxKIwazjNelnLdcjDk7IQWJ/exFH8EZRRL3MxlScFHpJdy24k5mFyxErzUkDS0QCtDQuZ/dzZvZ27KV1oFTODyDBJUg8UJupNiTxXkhUjDmqkStgOzyO3D5HbQOnGRb4wa0so40UwYV2XUsKlnFotLLyLEWxMSlkbXU5M6lKmc21829nce3/w/bTr2JgjIcpZCCghnKhu4W1rzxOJ8qn8NXa5eQZwx/B7Bq9Xy5ZhE3FVVz/9Gd/LHxII5A7A+IEhLrC8r54bxLmW3LjEgyRVV5q6eVf93zNnsGuy8ovnxjCnfPWsRnK+aSrh9esGgy/wK+2tnEjw5v4/tzVyHBiEJSJ8t8qLiKVL2BW959nqGAb5IiFAgEE4EQggKBQDADWDK/niXz6ycsf1VROdHYwqol8yesjLgSGU8p6HWFaD/ppbTODEBRjQlbpg57X2BMUrCnxcdQT4Ds4rBcyMjXUVBp4OQ+z3nlI6TgaKWgEAYzAZURxN5ESEEgx5rPZ9Z8lTWzrkEja+OOU/H43Rxu382bR15kR+NG7J4BQlET6SdbfTi+gT5VUjA6bVAJ0Ofqps/VzY7Gt9Fqfk59/kLWzno/i0svw2JIjcQoSzLF6ZXcc+VP2d3yLn/YfD8dQ83DUU6ZFBQIJg4VGPD7eLBhF0+3HudrdUu5rbQWq1aPLEmUpti4f8Eabi+t5ceHt/FSxykCikKuMYVvzV7Bx8rqsGr1kfy6fW7uP7KT/zux74KEmEmj5ZbiGv6tbimzrBnhRUROc9I5xA8ObeHBRetiyp4ogqrC292tBBUFnRz+8dQR9PP39lPsG+yhwJTCdQUVlKekIiGxLqeYf65eyPcObZnw2AQCwcQhhKBAIBAIzo0EJqMBWXPuubYuhNgpacZPCgb80LDDERGCOoPMgstTefuJ3ph84ko9q8w7tNnJmuLh3kbLr0/n5D43samFFDx3PqOQgoIZxURLQSSJhSUruOfq75GfVhyTVlEV2gebefXg02w4/CIdQy2RY+LdVMI9OY2l4Jn6rKISCPnZ27qVva1byUjJ4tLqa7m6/mbyU0uHxaCsYXHpaipzZvObjT9ka+MbqOrUSEGBYLJQVJVTriH+adcb/LnpMF+rXcYVeSUYZA06WWZFZj6PrFjPK52NPNt6nH+tW8qc1MzIfR1UFd7oauG+A5vY0d9JaIw3sITEiqx87q1bxhW5JZiihiAPBnw80niY+4/soMlt5/6Fa8fj1M+JVpK5o7w+IgOdQT+f2PIyL3acwq+EkCWJX5/Yx2+XXs2yzDw0ksSd1fO5v2En7mDgHLkLBILpihCCAoFAIDgnep2Ob9z9mUkoST1Hb7HTacYgBQ9tsbP21mx0hvCKeYuvSmfriwP4XKGYfOJKHVHm7XlziMtuyojMI1i3wkJhtZG2Bu95y0UhBc8uBQUzj4mUgiurruBr638cM0+gikpr/yme2vkwbx15CYcvPBfgiEIuaZwXhxSMpt/Vy/N7/8SGo89xadW1XDP7VooyKiLp0kyZ/NPlP8C08Ue82fDscJRCCgpmMAFFYWNPG3sG/s71hRXcU7OYBek5aCQJi1bHTUXV3FhYFTNsttPr4sGju/jNyf30+71jLrvQZOGfaxbxyfJ6sg3myHa/EuKt7lZ+dHgr7/S0j3kF5LGSrjewIjM/8v7PTUd4rv1EZPEQRVU5ONTH9w5t4elLb0AryWTrTSxJz+XtntZJjVUgEIwfQggKBAKBYJpx7lWDxyIFuxq9nNzvYtaSsCTILtYzf42NrS8OJOQTV2pSmdfd7OPodid1K8L5yRqJqz+dw8PfaiHoP/8eh0IKCik484n9JCdCCpakl/HVa34QIwMDIT9P7fwjT+18mH5nz/ABCVJtZkpBVQWHd4iXDjzGu8df5vLaD3LTos9ErpFBa+TTq/6NloETHO85MBzlJEpBgWAqcAT9PNp0hDe7WrijrJ47q+ZTmmJDYngOvaCqsKG7lW/tf5ftF9ArMEWr4/qCCr5Zv4K61MxInVBVlWPOQR5s2MWjTUfOOgS5xGxlccZ5zuOswoDfyynX0Fn/lpo1uoigVIGNPa1JVxI+NNRHt9dNgcmCLEkUmS3nF49AIJhWCCEoEAgEgmnI+EvBYEBl24v9VC2woNFKyLLEmluyObzVgb0veN5SUFUkNjzeR+WCFPTG8BCb8rlmVt+ayRt/7j0vuThcrJCCyaWgYKaQeM+MnxSUkPjC5fdiM6VFtnXbO/jJi19jf8v20wtoDKdNKttmsBSUJLB7B3lmzx/Z0fQ2d637DjW58wAw6VO445J7+O7znyOoBoejFFJQ8B6g0+viZ0e283z7Cf69bhkfLxuek/kHB7fyYMOuMc8VqJVk5qdn8/W65VxfUBEZkgsw6Pfx56bDPNiwixPOwXPm9dXaJXy1dsl5la8Cja4hPrblJTafZSXkoKrgU4KR96m65AswGTSayCrLKuANhZKmEwgEFwcTOxmUQCAQCATnhRrzOnFOwdP/V6PSxCSJSpMkn0Nb7JzY64zsySzQc/UnctFoSZpPXKnhhm3UntYGD1teGIgklyS47KZM5q21hRu6o8wnttjoPWp8ktgzVhOuwOl8Eq7A2PKJDTThmIRtSco+/3xOXynhAWcsifdMkjQJ93D0i/g6E6Y4s5w5RcON5fbBFv7tr59mT/NWFFVJfg8mVo2wkEsWd/zzKNmxSWJPPHakOnmWGJKWNUIMIz4XhhO0Dpzkhy/+Mw1d+yL7K7JqKc2alfh8Tfb5jHT9zvqMSTwhUc8F0wUVOGzv53+O743Z/pemw2OSgRLh1YPvm3MJr6y5iRuLqiIyMKAobOhu4cZ3n+XLu98clQwcKxJQnpLK+vzys6ZzBP00ueyRYz5SUotFq4tJo5EkPlhYRcbplZCDqsJhe99EhC0QCCYJIQQFAoFAMG1QiW/Ijq8UDAVVXn24C793uKfQwivSmL8mdcR84kqNadiqisrbf+2j5YgnklZnkLjhi3nMvtQa/lYtpOAY8hGyYMYy4j2TJOl5SsGSzEpM+uE5uZ7Z+Sda+k8mOTYuhvekFAS7d4Cnd/8eRQ338DHqzBSnVyV/vgopKDgPHE7XVIcwpRhkDbeWzOLVdTfzjfrlEYGmAm0eJ3ftep31bz/NW92t5zUEOagoeEOhUf3nC4VihvwaZc1Z87YHwisKn+Gy7EJ+ufgKSsw2TBotaXoDX6pewNfqlkbS7Bno5oi9f9TxCwSC6YcYMiwQCAQzAIfTjcfrJScrY6pDGRdihxWO7/DhpsNuNj3Xx9pbswHQaCVu+EIBXU0+2o57kuYTV2q4YXt6CJzbEeTZ/+7kjvuKSM0O/5puTJG58cv5IEkceNs+qnyIilYMH44dPiyYYYx4z1zY8GGdrEeWon/rVpPUPZLf/8NV8j0zfBhAkmL7Bui1huFi4p+v8SeYJP6zXuPYUKNOSDDTeOjPT6E36Fk0u5a5dVVTHc6kMjc1ix/Nu4yr88vQRFX2gKLwu1MHuO/AJrq97jHl/UDDTh5rPjqqtGaNll8uvoIFadmjzv/3pw7wibJ66lMzAbijrJ5bimtoctnJMpjIMpgiaT2hIPcd2CRqsEBwkSOEoEAgEMwAduw7xN6DR/nyZz861aFcOEllwfhKwdf/3EXFvBRKasO9iUxWDbfdW8wfvtVEb5vvvKVgxwkPf7u/g49/uygyn6DBJHPTv+SRnqvj3af6UUJCCp5/PlGWQXDRk9DbbZyloMvnIKQE0cjhr7cfXPxxNh9/k/bBZiEFk0hBqzGVDy74BLI03HMoGPJH5yikoGBMhBSFzq5eXu7exEtvvkt2Zjo2qxWfz4vBYJzq8CaEDL2Rf69bxherF2DWDDexFVVlY28bX9vzNtv6Oy+ojFa3kz0D3aNKa9HqcAUD55V/r8/D7Vte5PnLPkixObzokEmjpdYW+2OzJxTk3n0b+Udn03nlLxAIph9iyLBAIBAIzokKeLw+QopyzrTjViDhRmT0xvEaPux1Kzz2kxYGuoYbv9lFBj753VJyS40j5hNXarhhe3r7ib1O/vSdVtz24Qm2dQaZ930ymw/fW4AtSzeqfGJeqXHvo9InPWM1IfLT+cRfgTHmExtowjEJ25KUff75qLGBCi5qklThJPdMkuNGMXy4z9mDPzhcpwvSSnjwo39hWeUatLJ2hGPjYkisGsy04cMSEoXp5Xzjul9GFhUBUFSFPldXfI6Jz9dkn89I1++szxjBTEdRFVRVpad3gBONzfzu//7As08/x9EjDQT85yerpitaSeb20lq2v++jfKV2cYwMPOkc4vM7XmP9W09dsAycLPYN9rDuzb/yt5YG/ErsgiGKqrKjv4uPbHqB/z62Z4oiFAgE44noISgQCAQzgMrSIqwp5nMnHCMBf4Af/OI33HHz9dRUlk5YOQliaAJ7Cva0+njqF23cdm8JZmu4h0x2kYGP/UcJf/lRMx0nvUnziSs1prfLiT1OHv1hGzd+OZ+MvPDwYUmC2Sut5FcYeeV33RzZ4uTMonwj5RPdtUb0FIzvmyW42InvwTZePQX7XT34Qz5MDD8LMy05fO9D/8PbR17mbzv+wPGuw4TUUNyxZ/Kb2T0FkSDXVsjaWe/nurm3YTUOr8YM4A24GXAlLhCQ9Pkaf4JJ4j/rNY4KVTDzif4RqL2tnfbWdjbIMkXFRdTWzaK8ogxZc/Y57qYjuUYzv112NVfklmCImqPPHvDz+1MH+M+jO2lxOxN+9JjunHQO8fEtL1FuSWVlVgEFJgtDAR+7B7rZN9iDPeA/dyYCgeCiQAhBgUAgmAGUFOZRUpg31WGMC+cWQ+MnBY/ucPDkg63cck8RxpTwl/mcEgOf+l4Zj/64hVP7XecvBfc6+fP3Wrjhi3mUzh4WExl5Om79WgGHNzvZ8FgfXY0+VFVIwdHkI5ghJPr+mDcXKgUH3X14Ax5STekxx2hlHZfXv58VVevYdvJtXtz3N/a1bCMQCrwnpKBeo6c+fxGXVl/D4tLLyEhJPqeYL+jF7h1Ift2ZOCkoB1I4cexE0pii8fv9DAzaaTjRSIrZdM70gqkjGAyNuO9Mj9mQEqKlpZnmpiZ0ej1VNVVU11Sjpl48n61fUcg1miMyMKSqvN7VxA8ObWNrXzv+yRpVMQH4lBBH7P1i0RCBYIYjhKBAIBAIzomskVm6YDapNuvEFhQZbjY5UlBVVfZtHEJV4PZ7S9Dqw3tSs3R84tulvPL7Lra+2I+ikJBPXKkxMq/jpJeHv93K1Z/OYenVaZyZt1+jkZhzqZXK+Wb2vGFn45P92PuCQgqeMx/BjCHZIh9Rby5ECiqKQtdQG7m2gqRFm/UW1tauZ2X1lTT1Huedhn/wzrHXaO47HpYUM0gKypJMVc5sFpWuYlXV+8hPLUGn0Se9Lmdw+50MuntJfL5GFTMBUlDnyeaVl/9x1tiiOdncOuq0gqlBoxndrFSKEn66B/x+Dh04ROOpRkrrZyFxcTz3B/1evrV/E89c+gEa3UP87PAO/tbSwGDAN9WhCQQCwagQQlAgEAgE50Sr0fCBq9dOapmT1lNQVdn/zhB/+VEzt3ylCJMl/Eu/yaLhhi/lU1Jv4oVfd+IaCp2XFPQ4gzz7yw4atjtZ/9kc0vP0kVhNVg2XfCCdxVensu3FQba/NMRAZwBVEVIwaT6CGUO4fk6cFOwYbGFe8dLI9hf2PM7qWVdjMw0Pj9Vr9FTn1lOdW88dq+6i097OzlPvsLtpM0e7DmD3DOIPesOS8CKQgrKkwaAzkp6SRX3+QuYWLmVe8XLSzVkxC4ZE4/I52NH0FkvL1mLWWwDocbSjqGd6NE2eFPRaG/nKRx9MGmc0Xo+Hvdu2sXblEtJTJ/jHKcEF8bNf/ZEhu/OsacIrXKtoNFoqKsupqq6ipLSYFo8d9Y0tkxPoBaICr3Y28aWdr/NaVxNNLvu0+ZMlS3LMKsc6+eIbki0QCCYeIQQFAoFAMI1QkzYYz+yaMClIWAq67EFuuaeIrEIDALIsseiKdIpnmXnuVx0c3+VkuL18bimoKiqHNjtoPuJh9c0ZLLk6HWPKcM8JvVHm0g9lsOzaNA5vcbLz1SHajnrxe1UhBUksSzAzmEgp2DnUFpNm0/E3eGTTr7hh0e1cXreeXFvBaRERRiNrKUwroXDh7dyw8HaCoQDtgy009jbQ2HuMxr7jtPU34vDZcfnseP1uwvOhTY0U1Gn0WAw2rMZU8tNKqc6dTVlmDeVZs8i25ifkGZM/KoPuPjafeI3n9v4Jo87EpVXXRPZ3DLUkxD8ZUlDw3kGSwzeCJEsUFxVTVVNFZWUFWt3F2yQNqgq/Obl/qsOIoJVklmXm8fnKedTbMiPbP1RUhU8J8j/H99I8jcSlQCCYWi7ep69AIBAIZhwqYxFM4ycFT+5z8bv/aOSDdxVSs9gS2ZNdZOCOb5Ww89VBNjzew2B3ICafuFITZJ5zIMiLD3Wzd4OdtR/OYtZSS2R4MoDeJDN/nY25a6y0H/dx8B0Hx3a46Gnxo6jD+QgpKJgpTJQUbBtojtmfZytk8/E3eWjDz3l658MsKb+UNbOuYXbhQqzG1IS4tBodJZkVlGRWsHpWWJYFlSB29wD97h4GXX10DrXS7eiga6iNQc8ATp8dj9+J02vHH/Lj8bvGLAVNuhSMOhMpBitmfQpWYxrZ1nzyUovISy0i25pPujmLjJTscw4BPoMv6OFY10E2n3yNbac20OvoQEVlSdlqNFGrL/c42pNc54mXgoKZjQRIkoSqquTm5jCrtpbqmir0+tHdv+95zsPc6WUNd9cs5N/rlpGuN8bsKzJb+dfapXyoqJov7HidN7qbUZIt6S4QCN5TCCEoEAgEgmnHVErBnlYff/puI1fdkcuqG7LQ6MJ7dQaZFddlMGuphXee7mPr3/sJ+tVRS0GQaDvm5bEft1Fca+LSGzOoXW5B1gyXLssSRTVGimqMrLk1k46TXg5tdnJ8t5u+Vj/Rrej3khQUzCDih8COsxTsHGqLOaYgvTiSrtfRzSv7n+K1g8+Ra8tnbvFSlpZfxtyixWRbR16USStrybBkk2FJXIxDUUL4gl78IT/+oJeQEsIf8uH2OXH7XQAMeQbwB32RkzsTvl5rxGZMQwKsxlQMOhM6jR6tRodBa0CnMWDQGcckxR3eIQ537GZv6xb2tmyha6gVf8gfE0OerSjqGip02dui3gspKBg7EsMfbXFBHgV52aiSzOKVK6cyrIuTUdYRCbizch7fnbMKw+kVm1UgoISQkNDJ4Z7RlZY0HllxLe/f+Azb+zsnJmaBQHDRIISgQCAQCKYlUykFvW6Fvz/UyfHdTm74YgFZBeEhxEiQnqvn+s/ls+R96bz2SDdHtjgIhUYvBUNBlcYDblqOeMguNnDZTRnUr7RiMMoxX/yNFpnyeWbK55kJ+FR62/wc3+Xi+C43bcd8BP0qSkh9T0jB8+oiIZi2qNEvJkgKtg80xWSSYyuI9E46c2xICdI+2EL7YAuvHngGg9ZIcUYZs4sWUZc/n5r8ueTaCtDKOjTnmHdLljWY9CmYSBnTNblQFDVESAkx4OrleM8hjncf5FD7Lk71Hg0LSjUUW0ujeivmRgnBkKrQfbqHYCTpZElBwYyjIC+H5YvmMreumjSblYaTTZxo7pjqsKYNGklmVVYBOwe6cAUD45JnpSWNb8xeEZGB9oCfPzYe5I2uFkwaDbeWzOKGgkpkSSLHaOb7c1dx86bncQT841K+QCC4OBFCUCAQCGYAJ5taae/q5dJlC6Y6lAtDjX87dVJQCcGRbQ5ajp7gqo/nsuSqdPSm8C/skgz5FUY+9s0SGg+62fhkLyf2OPF51PhSk0pBgFBQpavRy9/u78D6+x7mrbGx4HIbOcWGmOHEADqDRH6FgfwKA5fdnIHPrdDa4KXliJfWo156mv14HAp+rxIWIzNSCgpmAsl6h42nFOx1duMP+TBow8PlCtKK0SATJBjJNfpYRVXwBNw0dB3iWNchnpH+DIDNlEZVTh1F6WWUZFVSklFBfloxRp0Jo9aEQWc6pywcL1RVxRf04At68QTc9Dm7aO0/RXP/CZr7T9Daf4JeZ1c4cfy8hhIJzzZUCVmWybYOr8asKCE67Ymr906KFBTMOG6/8dqpDmHaUmVJ4z8XruOa/DLu2vk6vz6xb1zy/WhZHVkGEwDOYIDPbH+Fv7Uci+z/a0sDP52/mn+ZtRgJWJdbzPy0bN7paRshR4FA8F5ACEGBQCCYATS1dbL34NGLXwgm6S4ylVJQVSVcQ0Ge+WUb+zcOceXHciifkxIZ5itJUD7HTNnsEtqOedjyQj+HtzpwDYVGJQXPDPt19Ad59+l+tjw/QEmdifoVFqoWW8gs0KHRJjaZDWaZygVmKheYAfC5Ffo7AvR3BOhq9NHV6GeoJ4RrKPyfElIvbikomCFEC3Pi7qvxk4LtAy2UZ1cDkJdahCTLhH1gfN1LjO5MDHbPILuaNrO7aXN4pxQeOpxmziTNnEGqKYM0cwYZluzwvynZmPUWLEYbRp0RrRxeVTzFcPbVcFVVxe0Pr8bq8bsJKgEGXL04fXYG3X0MuHvpdXZh9/Qz5BlgwN1LIOiPxHSG6GdZzGInSeWbilbWkWnJjWzxBtw4PIMgkeS5MLFSUHQSFExnKi1pHHcOcaHTV5i1Ou6qXsA36pdj1YbnT/x6/XI2dLdw1DFwwXGuzi6KVLc3upp5tu1EzH5FVfn2gU38v4o5pOoMaCWZS7MKhRAUCN7jCCEoEAgEgnMSUhR27TtMTUUpqTbLuQ8YIyqj6y12vlKwYl4KLUfcBPzqmKSgJMGJvU5aGtzMWZnK5bflkFNiiKSSJCiqMXHTvxTS1+5n/8Yh9r5lp/OUd9RS8Mxw4lP73TTud2N6rI+cEgOzlqVQuSCFvHJDUjkIYUGYX2kgv9LA7EvDn4/fq+BxKHhdCkM9AQY6gwx2B3H0BXE7FFyDIdyOED6XGp4LMXIZpp8UnK7GQFVVXt+wgS3bttPe3kGK2UxxcRHrVq9m7pzZkXQtra1otVry80aep+69xkRKwc6h1ogQtBhtWI1p9Du7463VOaVgfJxBJUivs4teZ9dwDLH/AOG5AbUaLRJg1Jkj22PLkiLn4/N7APAFvShqKOlKwfGbEuvk+UlBrawj2zJ8P3baWyJpk/9YMHFSUCCYToQUJeb946uu5w8nD/JAw06aXPbzzk8jSazJKeaH8y5lcXoumqiKE1QVCkyWcRGCOYbhZ80RRz+BuPOAcM/BU64hFqTlhI8xmi64XIFAcHEjhKBAIBDMAFYsmsuiObUTln8oGOLZVzZwx83XT6gQPMN4S8HapTYWrk3n2V+1EQyMXQr6PQq7Xh/g8FY7C9als+7D2aTl6CIpJQmyCvWs+0g2qz6QSeNBNztfHeToNkd4OPEopOCZPR5HiKaDbpoOedAZ+rCmayNzClbMNWPN0IYb5CM0qPVGGb1RJjUbcsuGV3NUVVBCKqGgihIMvw4GVFxD4SHHHqeCqoBzIBROPHx2qIqKJEtRW2JfbH7KgaM/dAGf2Uif/fTD7/dz5z/dzZGGBtatvozammrsTid79+3j3c2befxPD0fSfu9HPyErM5MffvfbUxfwdEA9879E2TaeUjBhpeHUQvqc3VFljV0KJtzLSWSbP+jFHwpHeGZhkTMkk4IQW42T1oG4OJOL+tFLQaPORKo5I5Jflz1q/sDJloICwTTilGuIbf2dLMsIC3OrVs+XqhdwXWEFvzi6iz81HmIw4BtVXqUpNr46awkfL6vHphv+O+wJBXm48RA/PbydJvc5JOMo68iA3xt5XWy2opEkQnGrCBtkDfnG4e9w/f7RnYdAIJi5CCEoEAgEMwCT0YDJaDh3wouI8ZWCEitvyEbWSDz/6za8bmXMUhDA4wyx+fk+dr46wOIr01h+fSa5JbE9+PQmmZolFmqWWPC6Qxza5GD/RjstRzx4nCFUJSroSLHJZIlKwAf9nQH6O4fY9Y8hJEkiLVdH0SwjxbUmCqoMZObr0BtldEY5oZEejSSBRisl9Da0ZZ314xgVu19zxQjB8HmMjxScbjzy6GMcOnKYpx57jIL82J5/qiosx4jECzmSybYLk4Idg7FCsCijjINtu+PKmlgpmCDkksQZ/QtBvDObaCmYl1occ/3aB5sSrrOQgoL3Iv1+Lze/8xx3z1rMp8tnk643IksSFSmp/GzBam4pqeEnh7fzamcTQ5glGAAAIABJREFUfiWUNA+zVsfNxdV8rXYZs6zpyFGVZHt/J/ft38Sb3S34Rjg+hlH+Kdza38ml2YUAXJ5TwqqsQt7uGZ4XVELic5XzyDGGexIqqsr2PrHKsEDwXkcIQYFAIBCcE61Oy6c+fAP5udkTXFJsy3C8pCCoSBJccn0Wadl6nv5lC73t/guSgqDi9ypsfqGfXa8NUrPEwrL1GZTNTsFwevGRMxjNGhZdmcaiK9Ow9wU5td/F0R1O2hq89LX7OdMmOJsUjBYTqCoDnQEGOgPsf9sR7vFj0ZCeqyMjT0dWkZ7sYj0Z+TrMNg3GFBljihyZ+3DCUBNFTXjzzJOCBw4eorCgIEEGAjFx3/vN+9iybRsAXd1dmM1m/uuB+yP7Dx4+zMv/eJXGpiZKiot5/3Xrqa2piez3eDzc9S/38JMffJ93Nm1m0+YtFBYWcPeXvhhJs2v3Hl557TU6Ojupq63ljo/eTop5ePjYtGOCpWBLf2NMcfmpw6vpCikY3pkTtaAIhIdZJx47OVJQGEHBdEIFWj1Ovrb3bf7W0sDX65dzVW4JRo0Wvazh0qxC5q/I5tn2E9x/ZAf7Bnsid7AELEzP4d765azPL8ekGW5qd3vd/PrEPn55bDc9Ps+4x/1ESwOfrZiLTacn12jm/5ZexU+PbGd7Xyd6WcN1BRXcc3pBEYDdg93sGuga9zgEAsHFhRCCAoFAIDgnsiRRWVY88QUlEUrjIwWHqVtuI7e0mr//pp19bw+ihNQLkoIg4fMqHHjHzqEtDgoqjSxYm0b9ShuZ+XrisWVqmb82lflrU3E7QnQ3+Ti1303TQTcdp3w4+oOjkoLxcxN6nSE6nCE6TgwPAdJoJUwWDUaLjDFFgzVdgy1LhzVDgzVDg8mqwZSiQW+S0BlkDGYZjTZ8nMEsMyZGkggzTAqWlpbw+oYNvL5hA1esXTtiulUrV/D3l18G4KorrkCnG/7q9dSzz/GDn/yUdWtWU1lRwbubNvPYE3/jR9/9Du+78goAQqEQ23fu4s5/+me6e3pZsWwpVsvwkK+/PvkUP/vPB7nhuvXMqqnh7y+9xN9fepm//eURjEbjxJz8BTCikIvZHpV2DFLwjNw6Q35a7LNLSMHwYivRdNpbRoh/MqSgQDD9UFSVrX0d3Lbp73ygsJKv1C5hXloWWknGqtPzsdI61uUU85sT+/n1iX34lRCfrZzHXdULKDQNP6P9SojXu5r53sEtbO3r5EIXJxmJHX2d/PHUQb5QPR+tJFNjTefXS66i3+9FJ8uk6YZHkbiCAX50aBu9EyAmBQLBxYUQggKBQCCYXiRpgF6oFHTbgzHHZuTpue1rpcxfk8bLv++gq8l7wVJQBZSgSmuDh7ZjHt54tIeKeSksWJdKzWJrUsFmtmoom2OmbI6ZUFDF4wzR1+6n6aDndD4+BnsC4TCi4oktVYr2CUQ350NBFddQENeQBAQAhs9OImr4sIwsh19LmrAAjh9SnCjmTucUtdnZr0QuyXhKwenI//vEHezctZt/+devUVVZyfuuvILrr72GosLCmHTXX3stz73wIlmZmXzklpsj23t6e/npAw/w1S/fzW233gLAXXd+nn+656v8+Of3c9mqlZhMwxO+Nxw7zp6tm5Hl4fuot6+P+3/x//Gd//gG66+5GoCP33Yb62+8kcf+9iSf/NhHJ/ISjJmJloKDrgFcPicphnCjvCC9JMliOZMrBQsyyphTuAitrKOhcz8neo6cjimqlEmUgnm2WEnabW8bOYZJkIICwXTFHQrwaPMRXu9u5vOV8/hc5TwKTBYkoNBk4VtzLuHG4mqcAT8rMvMjw4NVVeWky84DR3fwSNNhHAH/eZdtkDWjrioKKvcd3ESq3sCHS2ZhkDVoJIlsQ+zCIfaAn2/uf5fn208IGS8QCIQQFAgEAsE0ZJyl4FtPdqPRylxxe15kOK9WJzHvsjTqltvY9doAbzzWRX+nH0W5MCkoqeF3bkeQA+/aObjJjtGsoXqRhXlrUqmYn4IpyfBdjVbCkqbFkqaltN6MqoKqqLjtIVobvHQ1+ehu8tHV6GOoL0QoEF4MRA2dXQomDkMeFgcqEAyoBAOh2Ma+RELjHxKlYPxKqzHbxlEKTsc+RBaLhYd/+xC79+7l0cef4Le//wP/+9BvuGzVKj7/mU8zp77+rMe/tfEdZFnDrTd9KLJNq9XypTs/x+2f+BSHjxxl0cIFkX3fu++bMTIQYMPbG5EliWved1Vkm81mZeXyFRw8eGicznRimEgp6A/56XV2RYRgYVoJEtKUSEG9Rs/HVn6JmxZ/Er1WD0iElCBvHX2J/3rtu7j9zimRggVppZHj7N5BXD7H2WMQUlDwHqfb6+Z7B7fwdOtx/q12KTcWVZGi1SEB81JjJ+F1BwM83tLAjw5t5bhz8LzK0csasgwmrswt4QOF4TJGy6Dfxxd3vs67ve3cVb2AMrMNvUaDqqp4QiH2DnbzvYNbeKunFWWa/tgmEAgmFyEEBQKBQDBtUOPejJcUDAYVXvtLB01HXNzw+UIKK82R9Dq9zPL1mSxYl87+jYNsfbmP1gY3fq96QVIw0vhVJbyuEPs3DrF/4xAmq5byuWaqFliomGcmLUePMSWx96AkgaSRsKRrqV1uoXb58BAkn1thoCvAUE+Aga4gg90BhrqDDPUE8LgVAl6FoF8l4FMJ+tWzSsGRrlvyxn+8UBljPmOSgtOThfPns3D+fFxuN2+8uYH/+tX/8tkvfIknH3s06fyCZ2hsaqIgPw+NRhOzvaaqCkmSaG5tjRGCNqstIY+m5mZcbjd3fOazMdvb2tqZNasmIf1Uo6okl1XjLAX9QR899g5KMysBMOpNpKVkMuDqnXQpeO28W/jIss/FlKmRtVxe935O9hzlie2/nZLhwzm24Z6svY5Ogkp0L2ohBQWCkTgw1Munt73Cn5oO8d05K1mSkYcm7obf3t/Fdw5sosXtHFWeOlkmQ2/k6rwybiisZG1OMRn62CkfVMAZPHcvQ3cwwEMn9vHwqYPMSc2iwGwhqCicdA3RYO+fhj+vCQSCqUQIQYFAIBBMI9SEt+MlBRVVpWGnnV/9q5s1N+Vw6QdyMFmHZYzBJLPkfRksWJdO6zE3u14f4Mg2O/2d/nAeFyIFo87A4whyaLODQ5sdaHUSOcUGCqtNlM81k1dmJLvYgM5w9laywSyTV24grzxxZWm/V8HrUvB7FPxeBZ9HxeMI4fcouOwhQgEI+BTcDiWhD557MEQo2guM2FMwYQsALYd8+DzKe04KAqSYzbz/uvVUV1dx60c/zuatW7jpgx8cMb3RaGRgMLHniN/vR1VVsjIzzlmmwRD+/O/+0pcSPpP0tLTzO4HJQFKTfO7jLwWDoQDd9uHVM7WyjhxbPgOu3nDSSZKCOlnPNXNvHnEezOvnf4Rndv2JQMg/qVLQYrBiNQwL5m5HG0ElmPBsmzQpKAyF4CIjqCq82tnE2z2tfKJsNt+dszKyei/AmpwiNl7xEX54aCt/bDyIN5R8NeFMvZHrCiu4sbCKdTkl2HSJ8w5DuIq82dXMPzqbRh2jTwmxc6CLnWLhEIFAcBaEEBQIBIIZwJZd+zl87BSf+vANUx3KBZMggcZRCqqE59R76fft7Hqjn3W35rHoigy0uuG8tDqJsvoUyupScA4FaT7i5sC7gxzZ5sDeFxgXKXim9RwMqLSf9NJx0suOfwxiMMpYMrTklxsprDJSUGUkt9RAavbohwzpjTJ64xgXBLlAHvpyB11N4R4M4ykFLybSUlMBsFqsMdv9cfNHVVVW0NPTy4FDh2KGF2/ashWNRsOs6nP38KupqgLCImbJokUXGvqkMRlSsH2gOVKeVhMWgkc79g/HMAlSUKvRUZheGjmu295Bt6OdOYWLgfDCHu9fcBvP7v4zISU4aVIw25KPJA0/I7odHShKKElZkyMFBYKLFV8oxP+d2McTLUf5Rv0K7qych/n0EN9is5VfLbmSO6vm8/V97/ByxylUIMtgYn1+OTcWVXFVXhlmzcjN8X2DPTzbdoInW49xYKhXDPMVCATjjhCCAoFAMAPweH0M2R3nTniRMNFSEFWis9HL4z9vYsMTXVz6wRwWX5GOwaQZbvVKYEnTUr/CRt1yGwGfQusxN0e2OTi2y0F3s4+AX0FVTpc0RikYSa2q+DwKvjY/fe1+Dr5rR9ZIaDQSZpuW3DIDuaV6csuMZBXqycjToTfJaDQSskZCmhoHGEP42jLi9R+7FJx+/P7hPxEMBlm2dAkF+fno9XqOHT/Og7/8bwry87lk+bJI2oL8PF5/cwOdXV3kZGcjyzJXrltHaUkJ937zPn703W9TV1vLvv0H+OkD/8lHbrmZ7Oyss5Qe5op1a5lVXc03v/M9fvjdb7Ng3jwCgQCHjhyhsrwcq9V6zjymiomWgq0Dwz1pZEkmPzVxlfSJloIhJciQux9TarjnULY1l0xLTkw+n13zb1xR/wGe2fUw7x57FbffNeFSMC+1CDnqgdE51BJzASZfCgoEFzcDfh//tvdt/tx0mPtmX8K1+eXoTs/5Oj8tmydXvZ9XOhuRJZm12UWYtbqEYcYQ7nm4b7CXv7ef5MnWBhocg/hCQVFHBALBhCGEoEAgEMwArClmcrLOPcRwrASCQR558kWuWr2covzcCSsn+lvvREtBCQlFUek45eGJ/2zm1Uc6WPq+TBauSyen2IgmqtegJIV73lXMtVAx1wL/L5+h3gCnDrhoOeKm6bCbgS4/rqEQSkglurDzkoJRLXJVAiWkooRUhnoDDPUGaNhxJnm4kW1J15KWrSM1W4stU0dqlhZrphZrmhZLhhatPrxasE4fTq/VhxsoGp2EPJECcbyl4DTEYDDw4suv8F+/+t+Y7Wsuu4wffufbMTLuU3d8nHc3b+GaGz6IwWDg4d8+xKzqav77wf/k37/5LW7/5KeRZRlJkvjoRz7M3V/64qhi0Gg0/PLBB/j+j3/KJz7zOVLMZvyBAAaDgV/8/GcsXTzNeg2q8W8nTgp2DrWiqkqkJ1x+WlFysTeBUtAf8rGx4R/csvTTAEiSTNxaQsiSTFVOHV+95kfctvxOntvzZzY2vEK/q+d0RuMvBXNtRTHHdQ61xZ3U5EtBgeBiR1FVdg90c9vmv3Ntfjn31i9jUXouEmDUaPlAYVXS43xKiL0DPbza1cQzrcc55hzAEfCLWiEQCCYFIQQFAoFgBrBkfj1L5p99VdMLQVVUTjS2sGrJ/AkrA87Rwyy8Ydyl4JmNgz0BXvtLJ28/3U15vYWFl6dTOd9KRp4+yZx5kJqlY8HaNBasTUNVwdEfoLslvBJw23EPPa0+hnoC2AeChALqmKVgvO44s0CIqko4+oM4+oO0Hj2dV1SgEuEFU/RGGaMlvKqxyRKeM1FvlNHoTscw/D8saRo02tiTjV99OBln0tj7giP0Spp5UvD2D9/K7R++FYfDQXtnJ6qqUlRYiCUlJSFtaUkJLzz9JCdPniI9PY283LBULyku4i9/+B09vb309fVRXl6OQR87h5TZbOZ3v/4VVZWVSePIzcnhvx74OU6Xi6bmZkxGE8VFheh0ox9mPlre2baHwSE78+prKC7MG+l2OC8mSgoOuQdxeO3YTOG5FAvSS8JpJlEKqqg8sf131ObPY07R4ph73hf0otcYYsotTC/lC+u+zocWf5INR17g1UPP0DbQiKqOrxTMi+otqagK3fa2BNE3qVJQIJhBeEJBnmo9xru9bXyibDZ31SykyGRJSLN3sIfXu5p5ru0Ex50DDPp90/FPnUAgmOEIISgQTCHq0aOoBw6gvLMR2lqjvk5Lyf4Z4VXsm8jLJAZDSnaQFJdXYqFEJ0zeAIxqCpwl5oTjpSQlJylAGqnguELjYxjxeo10LpKUJC1R5xR+oWRlEVh1GaGKSkK1dUkCm4FIYDIakDUTPy71rGIovGHCpKCqSvg9Ckd32jm6y441XUdhpZnZl9ioXGAlt9iYdGiuJIEtU4ctU0fVgvAX/1BAxWUP4hoKMdDlp6fFR2+bn/5OP0O9Aex9Qfwe5cwJjEkKJsqS2HwCfoWAX8VlD8Xd81Gv4iqeNHzDJ247vT35QiPR6mACpOA0xWq1MmsUQ3MNej11tbOS7svOyiI7K/kQYVmWRzU/oCUlhdl1E/s8cns8bN21ny279mOzmFk4pw6320PmeeSRXKqNvxR0eIcYcg9EhGCOLR+trA0vnjGJUrDf1cO3n7mLNbOuZWHpCjSylh2n3mF/63Yqc+q4cfEdzMqbG5Nfrq2ADy/7HNfMvZltp97m+T1/4VjXwbAYHAcpmBu1wrDDO4jL7+DM6sNTIQWFBRHMRLq8bu4/uoMX2k9yd80iLs8tptfn4bWuZp5vO8Ex5yCDfq+4/QUCwZQihKBAMNkoCurxYyi/+x3qu++iRq08psa0w2MbRzHbiZYEZ3bGK4MzL+K+fY8g+pIlSnCKCYspDBPTkEiITxp5e1LRN4IAiBeIsRdg5O2JfoOznWPS0qMkiKazA83B/SDLhBYswnvrbYSqa0CjSXbkjECv0/GNuz8zaeVNtRSUpPB+R3+AI/12ju6wozfKZOTpqVlko2qBhfI5lnDPOzn5/arRSRFJmF9hhEvC20NBlWBAJRRUcduDDHQFGOwOYO8LMNQbxN4fxDUYxNkfxDkYQlHCcaKqkYeBqo5eCp6/XByjzEsQKuMnBQXTB1kjEwop2J1u3tm2h5AS4sjJJurr66iZVUNqWuo585gMKejyObF7h1dxthhspJoz6HN2jxzDBEnBIc8Az+35Cy/sfQxZkgmdXsCjse84m46/xrziZdy69P8xu3ARGnn4q3mqKYOr6j/I6pprONi2i6d3Pcye5s0ElMAFScHoHoJ6jYGKrFn0ObtQp1IKCgQzkJCqcsjex127XqfQZKHf78Uet8CUQCAQTCVCCAoEk4ja3U3ogftR3noreS+bmC/fMa33qN3JGvckkQAkNmJi30ZyTfyCfrqk+EbP6Q1JpWCShkQy+ZCwPWkDMLbgEbfHNTSSN9ZGaLyc5Rzj5eZwNnEySVHQ7NpByq4dBJcsxfupz6IUFsUfKRgj00IKRr33eRQ6T3npbPTy9lPdyBqZvFIj5XNSKKk1U1hlwpapw2DWxKxaHI9GK0WG5ZqtGrIKDWe9Dm57CL9XwTEQxOtS8HsV3PYQQb+K2xEk4FPDQ5b7gpFjnAMhQqfnMowW8KoKrqEgSmh420ivpNiNJDyxkjzDHP2hqLzHTwoKZTA9CZ3+sF1OFzt37GL7th2kpadRW1dLbd0szGbziMdOtBQMhAJ0DrUxu3AhAGZDCqnm9IgQHDGGCZxTUFEVFFWJqROegIdtJ99i28m3qC9YwIeWfIrFpatIMQwPMTRojSwqXcmi0pW09p/iuT1/YdOJ1+h39aCqyoixJ4vTakrDrB8e1m7Sp/CN6/+LjQ0v8cSO39DSfwIFNbbqTYIUFAhmMgFFodFln+owBAKBIAEhBAWCSSL01JOEHn0UWlvDG0b44iyk4EUmBU+/1O7YTkpTE7711+O/8eb4IwWjJF77TCcpGKl5Zxr3IYX2kx46TnrY9Fw4VXqunsx8AzklBvLKTOSWGLBl6bCkajFaNGNqBJttGsw2DWk54z8n3Hjz67vb6Gr0T0hPQcH0RlHCYmpocIitW7ayZfNW8nJzqKquoqa2BqPReLp+n0uqjZ8UbBtojuRr1qeQZs5IeIZMthSMnGNUnTiz61D7Hg4//2XKs2tZP/cWVlZfQZYldhGnooxyvnj5N7ht+efZfOINXjv8LMe6DhAMBZLGHh9nRkoWBp0pZr8syayZdR3LytfyzO6HeX7vIzh8diEFBQKBQCCY4QghKBBMAqEnnyT4iwfBH9tQFlJwZklBqacb0yN/BEXFf9Mt8UcKRkW8EpzeUjD+iIEuPwPdAY7vdSIRvqfMVi1mm5bULB3lc1KomJ9CySwzetPEz8c4VYzn8GHV6OSFhmd54SeTFLzgrGjOMY+oGjW0vbOzm87OLjZv2kJVVSWqfOZZOzlSsH2gJZKnLMnkpRYO5z9NpaCqqpzsPsx/v/F9ntjxW9bVXseV9R+gJDN2UZn0lCzWz7uVK+pv4Gjnfl4/9AzbGzcy4Oo9qxRMN2dj1BpJhkmfwkeW3cn84uX871s/4FRvg5CCAoFAIBDMYIQQFAgmElUl9NRTBB+4H07PFZjwRV1IwRklBdVQCOOfH0aSJLwf/BCSPHOlz4SgJhF+XFxSEFXFlqkjp8RIQYWJ3FID2UVG0vN0GIwadAYJrX7m3xfjJQUlv5HF+aupXhbbq0kw+ew91EDDyaZzppMkkJABlcKSYmpm1VBeUc5j7+wAmDQp2DnUSlAJoj09L19RetkI9Xx6ScFwngpd9nYe3/YQL+77K0vLL+P982+nrmBBTEwGrZF5RUuZU7iYQXcf20+9zWuHnuVA246kUjDbmh8zT+G7x/9Bbd58Mk/3RJQkifqCRXz/xt/y4xfvYX/b9gmXggKBQCAQCKYGIQQFgglEbWkh+LOfJm4XUpCoFtGMk4IoIQwP/47Q3LkEq5OvKjreOJxuPF4vOVkZk1LehDJSQ3IaSkG9XsZs1VBQFZ5DsLQuhcLK8FyCSImS4LwvhQpKSEUJqagKhELh+QKVoIqiDM8H6HWF8J1esTgUVHENhlCj8okPwzUYIhgcvmmThimdde/pPVL0GxwDwZj94yIFQ1ryrGXMqT33Sr6CiaW9q+esQlCWZRRFISMzk7q6WqpqqkacR3AypGCfoxuv343FaAMgP60oJqPpLgXP/P1xeId44/ALvHnk71Rk13Ljoo+zrGItNmNaJDZZkslIyebqOTfxvtk30j7YwoajL/DusVfpGGrBF/QCkGcbnuc2pAR5ds8jPNjzTT687PO8f/7tGE73HrQZ0/j6dQ/ywxe/zP7WiZaCCAQCgUAgmAKEEBQIJoqebvxfuSepkAAhBWe8FARMP/sx7m//gFBBQfyR486OfYfYe/AoX/7sRye8rElhmkpBnUEmPUdHYZWZqgVWimeZyS83nXURkRFPUQG/V8HrDss8nyuEczDEYI8f52AI12AQtyOExxHC61YI+MKLiIQCKm776YUEYh4HUa+kuPexO6K2SeeZjxSfJEEKTtTqw4LpiSRJqKpKaloqNTXVzKqtwZZ67pWGYeKlYL+rD2/AExGCObZ89FoD/qDvopOC0uk4TnQf5ucvf51saz6X1VzFurr3U55Vg06jj5QpSTKF6aV8dMWX+MiyOznRc5htJzew7dRbMUOP3X4nQ55+3H4nf3jnAXY3beLOtfdSnBFOYzHY+MKa/+A/nv4M/e6eCZWCAsEZbHojtbYsjth7pzoUwTSi0GSl0Gg5d0KBQHBeCCEoEEwQwT/8AbU5PKG5kILvTSkodXdhePRPuL/ytfijLjpUwOv1odfr0EzgMGg17s10kIKmFC1F1WZql9qomm8lp8SIyaIZ9TkF/SpDfQHsfQEGu/30tfvp6wjPNehxhHA7gnidCj6PQqx/i1/VN4nMG6E+JYgWEuvKyM+Ns+UzxrkAhRScMSiKikaWCSkKaTYrNquF6toaZtXXjym/iZSCQ54B7N4hsqzh4bBpKRmY9ClhIRiV7mKSgmfocXTw1M6HeXHfX6nLX8Da2utYUn5ZwiIkGllDTe4canLncMvSz8Scp9vvwu4ZjJS/t2UL33/+n/n69b+gNLMKCC9isqx8DS8feCLhb/n4SkGBIEy6zsjCtFwhBAUxlJlTKbekT3UYAsGMQwhBgWACUJubCb7yj9htQgq+J6WgdutmNE2NhErL4o8aVypLi7CmJB+aNx4E/AF+8IvfcMfN11NTWTph5YSbpee/Au14S0FZlqicb2H+mnRql6SSlqMfVS/AgF+hq8lLx0kvnae8dDZ56Gn14fMo+D0KQX+08oyvW+eem/DCZJ6QgoILx2wyMn92DfPraijMz+GVt7ZgtY6+10ayvxETJQVVVNr6m6jIrgEg3ZxJisHCoLs/idi6+KQggDfgZU/LFva2biMjJYsFJZewuuZaFpetisydeAZD3GIimZYc7l3/AHuaN3Okcy/tg80MePp4cd9jfG7NvWhkDRIScwqX8PKBJ5L+LR8PKSgQxFNny57qEATTjPpUcU8IBBOBEIICwQSg7N8PdntCq0dIwfegFPT70ezZPeFCsKQwj5LCvAktYzKZCikoayTSc/UsvjKT5VdnkZGnR9Ykl1GqCsGAgtseovGgk6bDbhoPueg85SEYOD3nn5q8h1+MEhvDgiXR9VijAY0mHLveJGPL0mJN15GaqcWSpsWcqsGYImPL0KHRSlgzwn/2zTYNOn2Sczunezt7gt98tY3uJv+4S0HB9GDlkvlctXpF0r9joybxT1d48wRJwY7B1sjxFqONNHMGbQPNCbLqYpaCYamm0Ofs5vVDz/Lm4RfItORwSdUVrK65mqqcegw6U0J91Mo65hUtY17RMkJKCEUNoaoKsqxBIw/3gtZqdDGFjbcURFRxQRw3/P/snXd8G1XWht9RsyzLcu8tvTfSKwkhkEYCyYbA0iGhht573dAX+JYFFpayLCydhFADoRNaSEjv1b13SbbqfH/IHmlm7siyrWIr5+FHrLlz5p5zZ+Zq5r66JWcQ7t31faTDIHoQi7MHRToEgohKSBAkiBDg/GitrOHSDomCx58oqNvwJeynL5Fa9ypUahUmjBmOBFOIF3bgfT+GRxRUazgUDDXixCUZGDEtEboY9pBol5NHY40DJQcsOLC1GUd2WFBZ1ALe3W7hI/j5EfOk91ggoqBKo4LBqIbeqEZKpg5pBTFIydYhOUOHhFQNTClaGEyBD2MOGb6nLoiiICkGPQNjt3sh88KfcImCJXWFouMzE3Kwu3Sb+Fifjd4sCrb7cvMuVDdX4ONt/8PH2/6HrIRcTOg7EzMHzcPwnHEIY43UAAAgAElEQVRgoVapoYb8O8TNu7GrdLP/GLopClLtJqQkavRYnDMIH5ceiHQoRA9gUkoOBsWnRjoMgohKSBAkiCDDHz0C/tAhz2cSBUkU5AGuqgKa/fvgHDxEat1r0KjVOH3urJD7EbQfBWEomKKgWsOh/ygTZi3LwNAJCdDo5EKg28WjqrgV+zc3Yd/mJhTvt8DS6PKx6FoPP3+iIMfxMCZqkZShQ1ZfPbIH6JFRoEdimhamVG2XFjAJHwEO+e6SKEj0dnjhX8azqd0myKJgeWMJ3LwbKs5Tv3OT+7Cfg6LQer8o6HuCyxtL8Mm2/6HOXCUSBGvNVdBpYhCvN0F+JQCLrRnf7/8M3+z9mHGuQtBTkCDa0KhUuHbgRBIECQDAZf3GIU6j7diQIIhOQ4IgQQQbixW8xSJskihIoiBnswMWs9SKUKCjxT6CIQpmFsRi/kU5GDE1CTq9XAhsrHVg18/12PJNHcqPtqCluU0EbBfthLy7PuzX9x5LSNUgd5AB+YMN6DcqDonpOhgTNdCwhvV2AaedR6vFs5qxo5WHy8XD2uyS2dksbjhE8xyyZALfRE6U1Nrs6S4ZElGQiAr8PpvabYIoCpY3lMDtdkOl9tTzrMQ8SDM9HkRBHkBiXIpg53K78NKPj+Fg5W6kxKUhKzEfiYZkxMUYYXfaUd1cjv0V2z2CqtslP8+sGEgUJILIQGMKzu8zCm8W7gRPk00etyzIGoCpqbmRDoMgohYSBAkiyDjeeVuWRqIgiYK6dWvhHDteakUoECpRUKvnMHNpJk45NxuGePEj0O3iUXrIih/WVGL3r41oMTuFCe9Zqw93VRTkOECj45A7yIDB4+MxeHw80vJioItRKc5ZyDhBcPM8eDfgaHWjtsKBxmoH6ivtaKpxoqnOCUuDE+YGF8wNTricAO/m4Xa3hcfD8xnt5fP863bznnvcJxWirxWfT5xk28deXGJ0WxQkooS2e89TTcMjCpbVl8DNu9D+ypuZkA21Wguny8EW5Hw2ok0UbF85GACcbgeKaw+jorEYFY3F2F32p7BPGqe8TgZXFCQIFmqOwyMjZ+Pj0gNodLRGOhwiAhg0Wjw4YhbiNbpIh0IQUQsJggQRbNxu6ZswABIFj3dRsFalxqbvfgAADBo8CFnZWVJrgbqGRnz69Y9QqVRYcPJ0aDXKX9WffbMRTqcT6SlJmDJ+tKJdVU0dft2yAwAwZvhgFOQq+9+2ez8KS8oBoEP/oSTYomBGfizOurEvBp5gEl0/p4PHwa2N+O79Suzf0ijMCchB2XdnRUGVhoMxUYO+I4wYOS0Bg8bFIy4hsPPqdvFotXoWMKkptaGysBWVhTbUltlRV2ZHc4MTcsmus2JeW8yi7wPW94a0zvh+V3Rt1eDAREEiqgijKNjqsKLeUouMhGwAQLopCxqVBk6XQ1mQ89mIFlFQw2mRlZAv7He6HKgxVzLfQaRxKtXJYImCVMMJf7wzZSnO+uVDNDltkQ6FCCNalRovjjsNmfrAV7EnCKLzkCBIECGALaKRKHg8i4JOToXGxiYAgMPukFqJcDpcqG9sBsdxHQ6TaWhsgt3hRKw+xn+eThfqGjz+bTa7X1urtVWwDf8wHV6yFRxRcOBoEy64ewCSM7zniXfzOLrHjK/fKsee3xvgloyg7ch3IKJgYpoOfUcYMWZWIvqNNAYkAtpb3aivdKC6pBXF+1pQdrgFteV2NFQ64HLyPjejZFr+bol58rrS00RBIsoIoyhYXHdMIghqAbR4bY8DUVCn0SElLk3YZ7Y1obm1kRk7K86QioIE4YeRCel4d+pSLP9lDZpJFDxueGPSGZiemhfpMAgi6iFBkCBCBImCJAr6mmc4bVh8xiLpHibpack4bc4MaLUdf0Wfu3QBAOBIYQk2btqG6RPHMO2yM9Nw8VmLA/I/dcJoTJ2g3NswlLD0x2CIgsMmJ4rEQGuzE1+8XorfPq9Gq8WrBMoaxV0QBVVqFfqNNGLcnGQMHhePhDSdTAAQ+XADlUWtKNpnxdGdFpQctKKx2oFWi1ti6cmko7kJvaHJ63usUQVjogYGkxqxRs//cUkaxMapoTeoYEhQQ6vjoNGphFWLA260c8AHT1airswRfFGQiE7CJAqWNRQBmAoA0GtjkWJMg7m1SWwb5aKgThODFGO6kF7eUOw3dlacIRMFqY4THTAyIQMfTFuGv/66BnX2lkiHQ4QQDafCW1OWYmoKzRtIEOGABEGCCDZ8+z/SOcR8TUgUPB5FwVBSWFqB7bv3KwqCvQlmwzQIomA7JQcteP1vh1F+zAoAkkZ+5323iwV6gwYTTknGxPmpyOyjh5axanE7DrsbR3ZYsP+PJuzf3IyGajvsLTyjbnR+wRK1VoXUHB1Sc3RIy41Bak4MkjK0SMzQQm9QQa1RQa3loFYj8DkLA0Qb014zg9xTkIhewiAKltYVieyyk/JRWHNYLmxFsSgYF2NCvD5RSKtsKpV930RKFCSIQBhuSsMbk87Aswc3YX3F4UiHQ4SAaal5uKL/eBIDCSKMkCBIEKHA58WfREESBYnOE3RREADv5rH1xzq8/fgRtJi9vQKlx3XGN6cCUrP1mLQgFVMXpsJgYj9WeTcPS5MLh3eYse27ehza1ty2yq8kYlndYM9NCAAaLYcYgxppuTHIGRCL3EGxyOyjR0afGKjU0voYfoIpChLRA1PkDbEoWCbpDZef0he/HPyOIbZFryiYbsoRxVRaXygvIyN2VpwkChKRYnRiBp4fuwB7mqpx+ZbPUNrSHOmQiCCQqNXjn+PmY1JyDmLVJE8QRDihGkcQoYJEQa8nEgVDzuSxIzF2xJAweQsPwRQFeTfw+5c1eO+Zo7C1uMQ2jOM68s1xQHpeDGYsycD4OSmINaqZZbA2u3Bsjxnbv2/A3k2NMDd4hEhO+Ic97JclCmp1HBJStcjoo0f/0UbkDTYgoyBG0Xdn4N2A3eaG28nD6fA0z20tbllLnec9cxwKiL5aODha25cxbq+ZwREFSTKILsItCpbUFor2ZybktLs8bkTBnMR8+FLeWKQg1EVAFCSITqBTqzEmKRMfTz8L5a1mvHBoM/Y11+GwuS7SoRGdICs2HmMTM3BOwSj0j0tErsEU6ZAI4riEBEGCCDK8dINEQZAoGHpi9TEdLizSOxALP8ESBQ9sbcSxPWbYWlzyYxSOU/KdlqXHzGUZGHtyCoyMRUJ4HqgsbMWf39Zh508NqCpulcyN2PGw3/a6oTeokd1fj8HjTeg/Og5puTGIM2kYlcY/lkYXzPVOmBudsDS40FTngLneieY6FyyNLtha3LC3uOFy8nDY2gRBq9sTi4/qx7sBe4sbQoJEEBQ+hWChESJKUBDV2veFQhSsaCyFy+2CWuURz3OSCqThRL0omJkgnpzfM6+i0jMtzKIgQXSBDL0RGXojXhx/GipazahqtUQ6JKITJGj1KIhLiHQYBHHcQ4IgQQQdntF4IFHweBcFqckTGDxYDe3ui4J7/2gAAE8a6xiF43x96/QqzF6ehemnp8OUomXGv39zE37+uAoHt5nRavZdtjjwuQDVGg79RhkxcnoCBo83wZSq8TsfoS+tFhcqi2yoKbZ5/pbYUVNqR6vVBXsrD6fNDZdTCElBzJNsi3e0pbG+N6R1hkRBQgzv+yGMoqDdaUNNc6Ww0nBWYg5E9yuEahi1omBWgnhOrqqmMq8XEgWJXk6m3ohMvTHSYRAEQfQ6SBAkiJAg7fEDEgWPc1GQCBC+/U/wRcEOj1E4jlMBQyckYOnVBUjP1ctuVLvNjb2/N+LbdytQvN8Kt4sXbHxXH2bNBdhef9RaDqnZMRg3JxknzE5CYroWKpWyEOZ2eXry1ZbZULjXiuL9LSg90ILaCjtcTs8QaVEbWyTmtf0bsJgnryvK3xuhEQWJ6EEqaoVDFHQ4HahoLBUEwZykAmhUGjjdTsjvc/jcn9EhCoJTIdNHEKyzVMNqt4q9RFwUJAiCIAgi3JAgSBAhg0RBEgUlRScCQ7GhHX5RMCkjBgsuzsGEU1OhlqzIa291Y/evDfjuvQoU7bd4rrnkphPnLRcFY+PUGDAmHpMXpmLg2HhotArNYx6wml2oK7fh4FYzjuywoPRgC8wNPt392v8VspAPQ/aG1lkxL8KiIPusEL0N3vsnnKKg0+1AVVOFsK1SqZFuykZZfZH8WSb6ECWiIHhk+cwhWNZQBLfbHeAzLfSiIEEQBEEQkYEEQYIIBT5v6yQKkihIdIEeIAqOmJaIJVcVID1PLzrW7eJxaEczvnqjDAe3NvsVt5REQWOiBiOmJWDa4jTkDDAo3idNtQ6UHLBi1y9NKNxjRU2pzdMDEQAQ+DDktpPXq0VBIkqQClZhEAXdvBuldYXCtopTISsx1yMIsp5log+9XxSM1yfAoIsT8qpqKgPPuxm+SBQkCIIgiOMJEgQJIsjwvh9IFASJgiQKdgbet2kYIVFQq1NhzjnZOOWcbOj04rn7aitsWP96KbZ9X+dZhbcNf759y6DRcRg/JwUzz8xARp4eHGNqQIfNjYN/NmPHxkYc3mZGY42jbRiyJ0/fe8zfMGQSBYkeSwREweK6Y8JnlUqFdFOW/2eZ6EPvFgWzEsQrDFc0loq+ayMuCpIiSBAAgN07tiMzOxspqWlh81leWgKz2YyBg4eEzSdBED0HEgQJIgTIX9JJFDzeRUEicDruZRc6UdCYpME5t/THyKlJIrHO7eaxaX0NPn6pGM31jk775lTAoLHxWLgiB7mDDLL5AXk3UFdhw6Yv67BlQx0aa9tEQIaYJ73HSBQkeg8swT88omB5Q7Fgx4FDTlK+bxhRLQpmJ4kFQc8Kw9KYIigKEkQPp662BiXF3noTo4tBanp60IW7u2+7AReuuAJnLFse1Hz98fHaD7Bj61Y898rrYfNJEETPgQRBggg2vPcPiYKS0hzPoqC0HEHmtz93Yu/Bo7j4rMUh9hQeIiEKpufHYuUDA5EzIE60v6bMhrXPF2LnxnpB3O2M7+RMHRZckoMTZifL5iF0OXgc22PBzx9XY9cvjXDaPQ444R+2mHe8iYJE9MCu26EXBWuaq9DqaIFeGwsAgiDo4zZqRcGcxALR8eUNRcznK4mCBMHmt5834h9/fwwqlQocx8HlcgEA+vUfiFU33IThI0dHOEKCIIiuQYIgQQQdXvSJREFJaY5bUTC0tLTa0NjUHHI/IYf3/Rg+UTCrfyyufHQoUjJjvPm4gd2/N2DNs8dQVdIKcOiUb44DRs9MwhlX5CEpQyeyczl5HNlpxo8fVmHP703g3b73SGBi3vEkCoahChFhJBKioMVmRr2lFlmJntV2c5Ly2WJVFIqCGaYc4Tin24mqpnJFQS4SoiBVb6K3sO7L76DV6WC323Hk4AH84++P497bb8Gb769DrCE20uERBEF0GsbsRQRBdBufMaI844Po5Zf37uRFdr4mPDtdYSyqLJ2XeRXFxHuNGLu9RuK4lcooSZe55RlDaHlpliIfzFLy8vPIiEieLt4l8tNhuvzCsdN5qYV8K9jExxmQnpocUh/hQXqN5BdMei+z6oG0zkjz8d3O6R+Hy1cPkYmBG94pxWsPHPCIgYzj/PnWxaiw6NJcnH9HX5kYWHakBW8+fBT/vvMQdv3SALfLzby3xPVHer+z6oa0bgWej8RasT7xrDoelHzklYb5nUVEDey6Ld1mP7f8PpvazST3mKXVggZLnbCdEp8OnTZG4ZkgPlb+HG83YT51/HxXseJUev5IYlB6hPt93/DEkJWUJ2zXW6phc7YImSqfO5/MmM80he8/2XsEq277OYAgegE6nQ5Dho/AJVdcBYu5GUXHjshs3G43jh05jJrqKsV8XC4Xjh05jKamRub+8tISlJV4pjuwtlhx+OB+2O12kQ3P8ygrKUZJcSHcbjcrG8GuvLQEhw/uR2tLi9/ylZUUY8e2P4WekARBRC/UQ5AgQoXfX+6pp+Dx2VMwdIwfPQzjRw8Lg6fQwkN+r4eyp2Bqth4rHxqEtBzvSsJOuxtrXyjCjx9VwO2Srz4srUdS38ZELc69rS+GTUoUzUPosLnx7bsV+P79SrRYPC/Z0tWHu9LDT3yPRXFPQaLXI2hcfut2aHoKtjisqG6uxNC2fXptLJIMKahoLJV8T0RfT0HfHoJ1lmq0OHzEgB7RUxAE0Sux2WzQaLUo6NtPlP71V+vx/FNPwGa3weVyYfio0bjj3geRmpYu2Hz+yTq89Nz/wdbq+dFx+KjRaLGKhbqP136AmppqJCUl47OPP4LL6cRjzzyH0SeMBQD8+N03+OdTT6C5uQk8zyMhMQnX3Xw7ps44UZTPpl9/wdOPrUZ9vedHEZ1Oh/sefgLjJkyUlenwoQO45eorsfTsczBqzNjunySCIHo0JAgSRAhQbiCLP5AoePyIgkTnCIcoGJ+oxcoHBiMjzzvMp9Xqwjt/P4I/NtSI8whQFExI1WHl3waiYEiczz6gaJ8F7z11DKWHfF72ZWUgUVBJFKRaFD1InwfhFAXLG0qE9FidAanx6cKKu9EqCqaaMmDQeb+P6sw1sDlskjgjLQpS/SZ6Bzu2bYVWpwXAYdf2rfjwnbdw5dXXQx/rfY/Ysul3/N8Tj+DWO+/D1BNnoqqyAg/dfQeefvxhrH7iGQDALz/9iH8+9TguW3UdTl14Ghrr6vDeW29i1/ZtMp8/ffctJkyaggcfeRKZWVnIzMoGAGz7czMeffBeXHHNDThl3kI0NTXgxX8+g7/deweee/l19O0/AACwb/cu3H/nLVhxxSrMXbAITqcTu3Zsx8BBg2S+KivKcc8tN+LE2SfjvItWhOAMEgTR0yBBkCBCBImC4gIc76IgESi8z6fQiYIajQp/ubovCoYYBbtWqwvvPXMUf2yo9lxHKPhu8y+tR/FJGqx8aIBIDHS7ePz2eQ0+fbkEliYnAHRQBhIFlYQDInqIlChYUlcopMVo9EgxpvlkFZ2iYLIhDVq1d9qCisYS8LxbLuxFUBQkiN7CvbffBF2MDnabXRhOu33bn5gx+2SYTAkAgDf/8wrmnDofM06aDQDIys7Biiuvxl03X4emxgaYEhLx1n9fxazZpwirCRtyDLj25tvwxafrmH7v+duj0OnE04/85+UXMXvOqVi8dBkAINYQizvufQiXnLsc7731Bm675wEAwGsv/wszZs3GX846Rzh2+sxZMh9NTY246+YbMGDwYFxz023dOEsEQfQmSBAkiGDDg9GgCZ4oyGnUMC6cD+P8edCkp3YzWLZSxXVsEnxkfsIzUJBvaIDt2+9h+/Ir8HZ76ERBavV0Aok4FAJRcPL8dEw81UcM4IGPXy7C7+urhCmt/Ppu898uChriNbjo3gEoGOoVGJ0OHp++XIwfP6yEy4lOlIFEQZZwQEQXkRAFyxqKhTw4jhMWGPFmFX2iYGp8BnQa7/yo5Y3FkphIFCSIQPlo/bfQtglzTocDv/36M/7+yIN4+rHVuG/143C73Th8cD+ysrKxZdPvwnENjfUAgPLSUhjjTTh29AiWLDtLlDfHccyFSfoPGCQTA91uN44cPIDTzviLKF2r02HilKnYs2unkLZ/7x5ctuo6v+VqtbXivttvQX1tDZ57+T9Qq9UBnA2CIKIBEgQJIlSEQBRUxcYi/ZEHEXfSLEBNawIFC+3YExAzexaa7roHvLUlNKIgERDe+eVDJwqmZOtxxuUFokbqxo8r8MOH5cwJ8TsSBVVaYNFleRgwxiQkuxw81j5fhI3rKsG3zfHduTKQKCgSDogoQnKvhFEUrG2uRqu9BbE6AwAgJ6mAEV10iYJp8ZlQ+UxmWt5QIhPleoIoSBC9DY1Wi+knzsKxw4fwv9dfhbXFCrfTBbvdjm+//hI1NeLFREaNOQHxJhOsFgucDgdiYvQKOXeM1WKB3W6HXhcj25eQmITWtnkJm5ub0NrSgthY/ysga1RqaLVa2Bx21NZUIzs3z689QRDRAwmCBBESxG/ZQREFwSH52qsQN2d2GMtxnKBSQTt+HIw3XIfmhx/zNGgAEgUjhPe8BV8U5FTAkiv6wJioFdKO7TVj7QuFcLt4gINMbOhIFDxhZgqmLEgTrrXTwWPtc4XYuK5KJDB2vgwkCtKiIlEGU/APnyjYYK2D1W4RBMGspDwFUS16RMGcpD5Cut1pQ6250lvGniIKEkQvpk+/AeB5HuamJqRnZMIYH495Cxdj5ZVXKx5jiDPi2NHDmD7rpC75NMbHI84Yj6NHDsnyKC0pQl5+vsfOGA9dTAzKSktY2QhotFrc/eBqXHPZJbjvjlvxzIsvI84Q5/cYgiCiAxIECSLI8KJPwRMFNdlZMM6f683d6YKjsBDupmblYBTa0crN6wAa3h2YBNZ0D0omHZgzUiVJnMEATUE+oPF8FepmTIc6/224CguVxT+l9IBEQSJQQiUK9h9pwsipScJ2i9mJd585jBazU8iHNcemku/ENB0WXZoHtcZ7vX9aW4GfP66C2925RU5IFFQWBYnogIdS3Q6PKNhgqYPVZhHmDkwxpiJGo4fN2Rq1omBmgndYtMXWjObWJnEZSRQkiG6xa8dWJKekIj0jEwAwaep0fP7JOixasgwZmZnMYyZOmYJPPlqDBYvOQHKqZ/qfyooK2SrD/pg4eQo+XbcWCxcvEfIoLS7CLz/9iBtuuxMAwHEcRowchS8+WYcly5bDEGdUzM+UkIgHHnkCN6y6FI8+cA8eeORJqFQ0Gokgoh0SBAkipARPFNTkZEOdnCzkbP7sC9Q8+gTczWYAgO8CCL6wFhphpnOQN64AIU/Oa8TY7TUS7fbxwYk+SNJlbqULjfh4kqZzogjE9rJ4xJ45gwFxl61A7JmeOVg4gwHqggK4CgsB+BH/lNL9iIKhbu80m61oaW1Fempyx8Y9Gh9JPciioFrDYfaZ2YiJVQv2P39WiWN7zbJ8AhIFOR4nLslASpZ3yE7hXjM+f60ULhcv8u03HxIFO8yHiC4iJQpa7RbUWWqQl9IHAJBkSIEpNgHVza1R2VNQrdIg3ZQlbAuCIOs8R1AUJIjewgfv/A9qjQY8z6OlpQUH9+/Fzm1bce/qxwSby666Bvv27MaqlRdg7oJFSM/IxJFDB8DzPG68/W4AwEUrr8COrZfj6ksvwsyT58DpdGKzz5yDgXDxZVdi5/ZtQh4A8PX6LzB52nTMnuPtQLDiyqtx6zVX4erLLsbJp86HXq/Hzu1bsWTZ2Rg9dpwozz79+uOWO+/HQ/fcjtdeegErrljV1VNFEEQvgWR/gggBPGuLl+zzGUvIMz6I8uABTqUCVN63aOvGXwQxUDiC8V7NSydFU0rnFV7MRXHLffASI3HcSmWUpMvc8rK53ARP0nReFIHYnpefR1/PvNUK+8ZfvPs5DpxaJcqMdb38pksdMj6Ggs079uCttV+E1knYEIuCsjTJjcYzzrP0XuZ5Hhn5sRg20ds7sKHWju/eKwPv5uXHKNQHX98GowbTT88Q9rndPNY8X4gWq1Pm218+gZVBWid87nvF7w1W3eh6PhJrWX0Sm7PqfvfyIaILdt0WbSrUC+k2+7mldI8dqz4kmKWbMjEkewQjJkkMzGcCI3ZZ/GDc9/7jZ8ag+PyRxCA5NjupAGlGbw+lemsdzLZmRpwK7yltmbJqoex7hHUsI3ZWnCQKEj2dlNRUjBpzArZu+QObf/8VWzb9hvLSEgweOhyvvvU+xk+cLNgmJCbhhVffwHkXrURDXR02//4rNFotTpw9R7DJzMrG86/8F6cuXITyslLExRlxz0MP468XXIzUtHTBLjsnDwOHDGHGlJ6RiX+99iYWnL4ElRXlsFosWHX9zbjr/tUiu/4DBuGF/7yJaTNm4cC+Pdi/dw9GjBqDvv37M31MnXEiLrvqWuzfuxuHD+4PyvkjCKLnQj0ECSIU8JDMXcSj2z0FpS7sDoZbcW8GIZ3xKz0znQezZ5Q4blnhvOmyHj/+yihsSTe9peGlPQXbPPGSnhDM3lDefaIeDqL4ePBul/QAqRHzevlNF20yoyIUaDv78L2aweopOPakVOjjvCvnbfmmGrUVNs+GQj7+egqeMCsFhnjvY3T7T/U4urOZeRz1FOxuT0ESDKKRSPQU/P3wT1h0wplQqdRQqdS4cf59qG6uxP7y3eB5Pmp6CqYY03H9qfcjweD9EWR78e/g21Y5kscZ2Z6CBNGTmTR1OiZNnR6wvU6nwxnLlvu1SUxKwkUrLxel9es/ULS9aIl4FWEpxvh4nHfRig7jSc/IVOztx/KxZPnZWLL87A7zJQii90M9BAkiVHh/MPcmyP+IfirnGR/8NoNZPQnkjtvcsHOK/p6Cnn3ieJTlBV7BiHW9/KZLHYaY/gW5mD7xhJD7CTnS+6w9WV45ZPe6v1522hgVRkz2Dqd22t34bX0V+Lb//OWj1FNw7Ekp3m03jx/XVHjjZBxHPQW7kw8RLcgeOcy6LdpUqBfSbfZzS3qP/bT/Gxys3CeYZCfl46VLPsC1p96J/JS+UHGqXttTkOM4JMel4vQTzsULF36IMfmTBNs6Sw2+2rm2gzjFJ1da/1lVMZg9BQmCIAiCCC/UQ5Aggo5ETAhST0HmizhYPevajqCegtJCMnsKyk+GT3ySQrCul9900WZoWz75OZnIz2FPXt274OX3WRB6CsaZtMgb6F0xr7K4BcUHxUPu/eUjrQ+GeA3yBvnm14qiA978lI6jnoJd6ykY4upDhBnZPHLMuh2anoKt9hY8+smd+McF/0W8PgEAEKPV45ypl2LhmGX4cf/X+GrnOuwu2Qar3SzJqmf2FEyMTcLQnNGYPmgOJvabibR48bPA6XLg3z88iZL6Qk/uiu8bPjFIz3FbQKHoKUgQBEEQRGQgQZAggo3QW8BXTOi+KKjgqMuioCreiNjJkxAzZjRihgyCOiNdeFHnbTY4Skph37cfrb/9AdvOXYDLxQi/94uCSkuTWCEAACAASURBVKdWJEoETRQkAkPaoOy+KFgwxAiN1tspfs+mesY8Vv4FCF9xLy1XD53em1/RPjNsVlebO3GFIFEwSKIgEVVEUhTcXbwdt71zJe5Y9LCwwAgAJBiSsOiEMzFv1OkorSvClmO/4s9jv+NA+S6U1Bd6hhT3AFGQ4zgUpPTH4KyRGNdnKkbkjEVGQg7UKjWktDiseOWHp/DVrrX+YyBRkCAIgiCOO0gQJIggw4s+hUMUlDbeffdKREGOgyY7Cwl/XY74MxZBFR8PqNgzB2gH9Idh1ongV14MZ0kpmt/9AOaPPgHf0hJdoqASQRYFicAQ1Z8gioKZBbEiP0f3NDMapnzbvaecT7u4l5iqg1rjPbb8WItwnWWCBImCQRAFieiAh/y+8NkbJlGQB/DH4Z9x+avLccGMK7F0/DnQabyrhWvVOvRJG4A+aQOwZPy5aLFbUWeuxsGKvThQuQeF1YdQVHsMpQ2FcDjtEIYT83xQREHAI/px4KBRa5CX3Bd5KX1RkNofgzNHYEDGUCTEJkGvNTB7/befp4MVe/Ds13/DnrKtoiG7PVEUJAiCIAgi/JAgSBAhgNWo6bYoyHQEofHRkSjIxeoRv/R0JF2xEuqkJHleCnAaDbR9CpB8200wLl6Iuieehm3bdsDNkygoKUtH6URgiO6CIImCiakxvi5QXdLSlk/nhTme46GPU0Pls+p3Y42d3Zj2KRSJgt0RBYloQCJJeT5FSBQEOFQ3VeLvn9+Pd397DedMWYFZw+YhxZgGFef9oUzFqRAXY0RcjBF5KX0xe/gCYZ+bd6O6qQJVTeWobq5CdVM5ai3VaG5phMVmRq2lGi6XZ9XxOksNnG7PYmA6tQ5JcSkAOGjVWiTFpcKgMyDBkIQUYzqSjWlIjU9HZkIO0uOzOiWetTqsOFy5D+9vfg0bD3wNV9vCWfKFUkgUJAiCIIjjHRIECSJE9CRREDE6pN5+M4xnLAKnlg8pctXVwVVdA97paTioDLHQ5GSD0+lEdrqhQ5D+1GOoe+RJWL76ui3O3i0Ksk+r0jXrnihIBE6wRUFjglaUv9XsXV26S8KchNYWl/9jhKKQKNgVUZAE9SiBl8l8nk8RFAXBAyV1hXjis3vx6g/PYvKAEzFz6FwMzxmN1PgMv6KVilMhIyEbGQnZXT4lwaDeWovi2qPYcuwXbDryA/aX7wLPu9tOBvscAyQKEgRBEMTxDgmCBBFCgikKShvEvHRDSRRUqZB6202IX3q6WLSy22H94SeYP/4M9gMH4W5uBu9yAwC4GB00aWkwzJgG4+KF0PbrKxynSkxE8j23e47/7gdJ3L1PFJQlSfJr/0iiYJiQDmtr/9RNUVBag6xmh8RtJ4U5CXEmTWDHkCjYJVGQiCL83hc+ZmEWBXkOqDVX47NtH+Lz7WuQkZCNARlDMKZgAgZnjUB+Sj9kJGSJeg9GAofLjrKGYpTVF+FI1X7sLtuGwppDqGwqg9Pl/V5jPk97qChIEARBEERkIEGQIIKO+OU2WKKgkidxu13eeI9fvFAmBtoPH0HN/ath27kLvKt9OJFPNC0tsDc0wn7oMJo//Aimc89GwsUXgIvx9BhUGY1Ivud22Hbsgqu2NipFQWljtduiIBE4zPm1uicKOh3ia2BM1MLc6AhAmPMjQPjgu8AIiYIhEAWJ6KIHi4IcPPWxoqEUFQ2l2Lj/G2g1Whhj4pEQm4T81H7IT+mL3JQCZJiykWbKRLopEwmGJOZ3Q1dpdbSgsqkMlY1lKK0vRHHtURytOYjSukKYbc1odViE4cDtSFcf7j2iYCdODEEQBEEQQYMEQYIICZLmdchEQWmjHCJRUJOYiKRLLwGn8Vb11i1/ovKG2+CqrxfnxBq6w/NwNTai4YWX4Dh8BKkP3QtOrwcAqJOTkXDpxah79ElG+L1MFJQertBY7Z4o6M9p9zlSWIKyyhpMnzgmtI5CTNvpV5h0v+ui4C9fVKCiyAoA4MDBbnV5bfwKc+yFRor2m/HRvwoFq8M7myTlIFEwuKIgKQZRRw8XBX1xOB1ocNWhwVqPwtojADwxeRb+UHn+chwyTNlIikuGUW9CYlwyYrUGmGJNbblw0Gp0SIxNRr2lBk63U4i9wVILm7MV9ZZaNLTUo8FSi6aWBgA83DwPHm299yWRyR/ZfK8VBQmCIAiCCD8kCBJEsOHlDV0gCKIgw0/7ByVRMHbaFGjz84RDnKVlqLr7ATjr6jxHdNCY8E23fPU11BnpSL7pOuHt3jB3Dhr+9W+4GxoZ4fdiUbAti2CKgqGmsLQC23fv7/WCYDvBFgX3/9mA/X82AJA0qhlCQSDCXOkRC8qOWEX5SJvCJAoGTxQkopReJArK7lW+3atLuElL6wtRVl8kOpgTfeAU0n1NGDZgx88U9kgUJAiCIAgiQCI7EQpBRDHtjQV5miSdl1mx/gQgCkrTecROmuB9C+d5NL7zPhzFJd4jWFkqjN3heR7mtetgP3BQSFPFx0M3bCgzJp5dOG86a7dk/jjfsihsCqnysHlpliIfAYkMvMwzO128S+SHcTThF+m1Zl0BHrL7rH0Po45J73WeccEkNYhZDzrKR5pHh8coHNcV3/K8pXXC50wpfm+w6kbX85FYK9Yn6Xel3+88Ivrwe1+Asa38PGDXC+k2+1nq99kkikE5RiF/5jOBEbssfnGmjKrH+L5gxanw/AkofoUYWOdZeo7bjlU+dz6ZsY4lCIIgCCKskCBIECEk6KKg3MJPoxzQpKcJm26zGdYff5bkwW71KImCLrMF1m++E7Y5jQbqpETF4IQGllwDERn5FxPaPyg3AttTgyUKKrRbxHuk6cwGYPiaOpPHjsTFZ50eNn+hRXqtmXKB/D5r38MUDqTXiCUcSOuq/PqRKNi5fCTWivWJRMHjB+bzxe99Aca28vOARMH2NGktVoiBfSr8PIslMUjPcduxyufOJzOq3gRBEAQRUUgQJIgQEyxRkJk344OSudvaAmd1NSMP9ks5u9HGw37wMDsPheCEBpZcAxEZ+RcT2j8oNwKFSBhpkixFPliyi6wxo9BYlaUzG4DhafHE6mOQYDKGxVdIUWzwM+UC+X3WvoeZj/QasYQDaV1l3SH+8yFRUJyPxFqxPpEoePxAoqDSM87XhPnU8fNdxYpTWosVYlB6hJMoSBAEQRBRDQmCBBEGgiEKMoUrsF7SFV7CbTa4GpuYL9+dEQWdNbWsDBQbV6JI5RoIFMsYNlFQoTXSC0XBaEG5wc+UC+T3md98pNeIJRxI6yqr9vnPh0RBcT4Sa8X6pCwKgogySBT0f58rf+cpx0+iIEEQBEEQnYEWFSGIICO8QEsXBuC7udAI05HEwucDrzBVNw/WwhxtRzBmUpctcuB2M/P1xM2esL1nLzTCLk67f9EE6aL4lK6ZuBDtVtvi4nH4o08AAPMWzIVOp1N0e7iwGG98+BlyMtMwd9ZURbvyymqs//5XAMDU8aMwuH8fRdtfN2/HvsOFAIBzzpiHmBhl/2+t/QI2uwPZGakR8Q+w64bnWjPuCZ9zLrqfFPPp7CIdjHoQQD6s+kALjXRtoRHSC6IT9ur2/u4L32N75kIj8uJI66qfZ5m4OH6+85TjZ8bA94KFRgiCIAiCCDskCBJEqAi6KOjfB0sUZBwAeePdd2+AoqASvVUU9Fum4IiCercbCQkmAOjwXOp0WiQlxCM+Ls6vnUajQXKiJ88YPwIjABgMsYItp/LvPzEhHg6HM0L+2+UfjkRBEgVFXonej7d2+6SRKAhZSY9LUZAgCIIgiHBDgiBBhADvy3KkRUFWYMEVBWVRdSAKcgYDElZcxC6LL7IQxFvuujqY33lPSJeWx3TV5cKGY9dutP60URSIUkOEeZaDIAoOsZrR/6SZHRYbAPKyMnHanBnQav1/RaelJOH0ubMCynP0sEEYPWxQQLYLZk8PyC4k/lWs+gKQKHh8i4IcTXASFag5NQASBUXRkihIqiBBEARBRAgSBAkiRIRGFOzYh+glXfGgrouCrPxkjTk/oiAXq4fpkgsVggscx5GjML/9nrwh1bZpvOgCwdby/hofQVCwVJzaj6mnBkEUJDpm7jkF+OD5g213JyAWb0kUPF5FwWmnJ4Ho/SyduhJv/fgPuVgEEgWPZ1HwlJEXgCAIgiCI8EO/uRNECBH0JtbCALzIQmLmk84ra3tKPvzZew146UeJCdsxe4pwhljIK9h2GFwnkRRAsTyyNJ/yMwyZYUonSOdlntnpwS5zFJOUGgNAfl6VFxFgXQHvOZdeTXY+vOTyia+lLA2M+z2AfGihEXE+EmvF+mRM0pCoHiVoVBokGJIl9dMLLTTCKKnUVulZr/hdxYpTWosVYlB6hLNiYJ1n1nWWPEdVnAqJhjS5I4IgCIIgQg4JggQRbBRftBmNeIZ6pSQKsn0p++AZh8kbD6zGu69J58SsgEXBINFhQ0qUIhUu2JaeZJbw4d0nPY9Mz9L00J0GAMBvf+7Ea+9+HFonYWDy3Ew/YoHwCaJPJAp2sQy9QxQcMd0ElZoUwWggTp+AiQNPgrx+eiFRkFFSqW0UiYIqlQbj+s2ROyEIgiAIIuTQkGGCCAWSsTY8gjN8WOJElLk/H77HiIfvocvDh5XoaPiwq64exTPaXv450Z+2De+wRtHAIkkIvNvbNGMNdyqfPVfIm3c4vKVhLjTCLAhjiKR3X5eGD4eQllYbGpuaQ+ojHGh1akxfmI2Nn5V1YtgvDR8O1HdvHD48YV4CiOhh3rhzsGH7B5DXTy80fFgSu7g4fr7zlOPvqcOHZw5bBoIgCIIgIgMJggQRZHjIX5Tb07stCjK9ed6yVXEGaNJSfbLmoIqNFSw5rQbagnxA3sRpy94nneGOa1PkNJmZonR1akpbvm0RORxwVVYBbrcoTEHM4Hm4m32EK5EoKG9ZcRIjlnjIasS4m82+RfOBJQoqEERRMLRyIBAfZ0B6anKIvYQejgNGT0vFxs9KGWIePJ9IFOyW794kCmb2iUFiuhZE9JCfNgCZyX1QUXcMJAqSKDi6YCYIgiAIgogMJAgSRIgIvigoz7/9E6fXI/PRhxA/5yRAxZ4JQJOVhT5frOtyeZRIvvFaJN94rbDttlpR98TTaP7wo4AXGhGJNZKWFUskUBYTIG/EiDeFXMMtCoaa8aOHYfzoYaF3FAbGTE9DnyEmHNvXxBAL2u4IEgW75bu3iIJTT0+GPk4NInpIjEvF4gnn48UvH1Kon15IFIxuUXBw9ngMzZ4IgiAIgiAiA80hSBAhhAcQvDkFlVHHG/2KgeFEZTAg7lTPkODOLjTCe40Yu71Got2K8xhJ0mVu2+Y9k/riGec8GHMKEgGjj9PgzFWDYIjXwveEKlwWyK816wpI8/HZw8xHfKPRnIIK0YRwTsGhk40YOcMEIvqYe8LZGN1nip/66YXmFFR6xvmaKDx1FL+rWHEqvatIYlB6hHdyTkGjPgl/mXgtNGqdPEOCIAiCIMJC5NUDgog2WGJWEERBuUglseoBYqCA2tujp6eLgkqQKBhZRk1NxZmrBrZtscS8tk+KDX6mXMDIB37y6ayg1jVhjkRBcT4AEJ+ixdm35VLvwCjFZEjCg+e+Br3O4Kd+eiFRsCOxTZwpo+oxvi9YcSq9q0hiUHqEd0IUPHfGnRiUPV6eEUEQBEEQYYOGDBNEKOAhH/bazeHDSn5Y89NZfvwZlp9/BaQ5KGbHBWgnOcLHLnHFRVCnsOew8x2OpIozIPGqy5Uy9fnjzbzlh5/QunlL2zlrOy9tZY8ZPgyGeacoB84B9m070PLt923XIZDytXmSXppuDR8mOstJS/Owf2s9fvuyHL4n1Hv+pddJsoeGD3exDJEdPqyNUeGcO3Ohi+1BP3IQQScuxoR7l7+Ee9++GE6Xg4YPt8cQ5cOHAWD2iLMxacA8EARBEAQRWUgQJIgQwBKeQikKSmnZuh31/3lTIrBB5INjfJCLgpz0I8Qm3oaLadkSRUEQ8DYyOL0epvP+qmjHwlVdjdbNWzz5QNzw0vTrC+M5Z/s93qLRoOXb773HR0QUJDqLWs3hqtWjAIBEweNEFNTHqXDB/QXoM9wAIvqZOGg27jvrZTzywSpY7WYSBdtjiGJR8KQRZ+HCmfeCIAiCIIjIQz+/E0TQ4eF55YZMrPOk8fI0Rro3iaH4sVyyEnjJbr/DeeTDXtt3KoUhHeLkJ6A29wGUJYDseFZiJzIJ9LQKnqS2XR4+THQWjuNw2f0jMWd5PgzxGvieUOndTMOHu+dbnnd4hw9n9tPj3Lvz0W9UnCx2InqZMuQU3Lr0/9AnbbCf+umFhg/7e477+85Tjj8cw4eN+iTMG3MRLjjxbvkBBEEQBEFEBOohSBAho+13eB5B6inI9qHc/6xtn/iPyAcPgFOpYJg6GabFC6HJzgIcDtj27kPjOx/AUVwi9AbwxC13J/RmkLhm9uQAu/HQMbysqN6oAjtcWgBhs8Ms2jxJL01newp2qdwEAGh1Klx42zCccGI61vzrEA7vaoByDyLqKdgd35HoKahWcZi6OBmnXJgBvYHmDDwemT5sPsb0m4qXv1qNTze/ST0Fwaqrvben4ODs8Thz8nUYrDBnoN1uR0tLK3OfyM7WCpvdgYYmc9d/YCQiQrPFilabDY2NTZEOpddhMsUz36cJgiCCAQmCBBFSgicKSpUrVk8Hln9/oqAq3oj0O29F/KIF4HwWAomdPBGm5X9B9UOPovmTz4V8/ImCrChYjTZXbS2OjZsqF9E4zz/MdLcbrJYVD8Dy6eewfv6lKF342O7b7fY5HeKGlDxunnEJgiAKhphmsxUtra1IT1Uett3bGTUlFUPHJWPnrzVY8+IhFB30NArF4jANH+4toqBaA0yYm4w556XDlKIFcXxj1Cfg+sWPY/n0VXjz+6fw7c6P4HI5SBTspaIgx6kwIHM0lkxchWE5E/2uJrxn9x78svFXxf1Sdu07GLAt0bPYsm1XpEPoday47BLExMREOgyCIKIUEgQJIsgI2p3Pm3dQREGWL8bLOzsihiioUiH5ipUwnbGIeZQqLg5p99wOZ3klWv7YLLz4c7F66AoKZK0bTsd+2WcKEg6HJw5p8JzwDyO9rYElFQXd7jbBjxPZeo/1JrAaMWykAohwYI8VBTfv2IPtu/fj+kvPDYO3yKHVqTB2ZjrGzkzHlu+rUF/Vig3vF8Fp55liMvPss+bS9BiDuYdjWYvvN06yX7bFqKjShXlE+fqJX3qczDcnTWuru+KAZB+lvuRlkubhcxQn2Zbl7U3oMyIO+UMMGD7VhIRUEgIJMdnJBbh16f/hvJnXY/OhH7Cz6DfsL90BRnUBwL7/xSneBD+PB7G15CZmfAVIsmZnJI2N/R0l2cOK03/h5RGwHocKj0gwnlGB2Ah2khMWqzNi1vAzkZGYj1H50xlHyRk0eBBycnI6tLPbbDiwezfGjRoGk5HmGe1NFJWWo6SiBgOHD490KL0OrcL7NUEQRDAgQZAgQkWwRUGFjoA8D2b/PGnPHKkoGJOXi8TlywQL6y+/ofH9tdCkpiDpkgugycqEKi4OSSsuROv2HeDtdoDjoRs4ALlvvx74eYBCTw5WukLPKHH47J6Cir0xFCc3D68oSASfcbPSAQBzludHOBKCIIJNdkpfLE7pi8WTLop0KESIMRgMMBg6FvhaW1pgiNUjIy0ZSQnxYYiMCBZmqxX1zVakpadFOhSCIAjCBxIECSIEsIbvBKunoKJDRppYNxOLgvrxY6Eyeibvtx85irLrb4W7uRkcAEdhEbKeexqcVouYYUOgSUuFo7RMUZQMhJ4rCvorVBBFQT9egkH/glzEx1GPCYIgCIIgCIIgCKJjSBAkiBARelEwAInJjyjYLgYCQMu27XA3NwsW1k2bwdts4LRacDE6QKMR5RkQDGWsR4qCrLglCcESBUNJfk4m8nMyQ+qDIAiCIAiCIAiCiA5IECSIYOMziWBQRUFFZx30IFQQBd2NzUJK7OjRUBmNcJvNnu0J48C1TWDsbrXB7bALnhwlpai672+yuYuSV10OdVqqjxfxZOiCdZwBKTddL49TPnET2Cn+i9z06utwlZWjq6KgfA7IttIEQxQkCIIgCIIgCIIgiB4ACYIEEQp85qgLmigoUa54tGtP7PkDRQ4ZomDL1m1wmy1QGeOg698X2c88job3PoQmLQ3JKy4Ep/VM9m/btx+umlohZlddHZreX+PJxkfES7jgHJEgKJRSIgpyMTGIX7ZE4cR1H/Paj+EsKw+4pyAL9hSDJAoSBEEQBEEQBEEQ0YEq0gEQRNQidDXzEZ54sQEvS2s/TC7+KbrxO+yVF6X5mtqLitHw7vvCtmHaFGT/35NIv/s2aLI8Q0/dFgvqX/4PeJtdHLM4WD/RtR0R6gn0mH69/8pC8Dlp/kRB9vBhBU/SdF5y7YmQ89Q/nsWadR/7tSksKsKKK65EcUlJmKKKbgI55wRBEARBEARB9DyohyBBBBmZYBbEnoK+iDqkseIQDlfoKehyofaFl6FOToZp8UJwarXoeLfZgqqHHoX1jy3iuDkAao3viOG2v8p94aQ9BXmnU9G220jEvkB6CipmheD1FCQ6j9PpxNU33oQxo0bhipUrmDbvr1mLjb/8giceXo133v8AQwcPxtLTFyvmabFY8ceWP2FtaQlV2DJ2792LL778ShAhszIzMXXyZEyZNBHatp64tXV1aGhsRP++fcMWV3dxOBwBnXOCOF45sH8vvv9mA8pLPXU/PSMT4yZMxtjxE6Bpq/uVFeX47uuvUHzsGJrNTcjJzcO8RaejoKD3fBcQBEEQBNE7IUGQIIIOL9X8giYK+nHJTu5AFHQ3N6PizvvQ/MnnyHnpOXAajyjYsnU7Km69C46SUoiO5gH9qBHIe+e/HcckC9EjCrpq63D0hMmifayFRpjpXPuMhVJD3z+dXGiEEal0oHYwREGi82g0GsQZDHjz7bex4sILBPHMlzfffgdjx4yBTqfDxx+8hzhDz1pp+Zl/PofX3/wfpk+dgr59+sDpdKK0rAx33/8A1r73DlKSkwEAaz5ah/c+XIMNn30S4YgDR6vV9shzThA9gVdffB4fvvsWxk+ajLz8PnC5nKgoL8OTDz+IF//7FpKSkrF7x3bcev0qDB85Gn369UN8gglbNv2OdR++j3seehRTps+IdDEIgiAIgohiSBAkiGDTNrkfz3GhFQUDXLW2w56CbjcsP/8KuF0APIKg/chROIrbhlRKF+EIFMYBSguNRHT1YdaYbYkKGBRRkOgSixcuwIZvvsUvv/2OmTOmi/btO3AAR48dw/133QkAyMzIiESIiuzctRuvvv5fPPX4o5hz0kmifUr3fG+jp51zgugJ7N+zG++99QbufugRTD9xlmifb90fOGQoXn93DVLT0oX9brcbD9x1K/79wj9IECQIgiAIIqSQIEgQoSLYoqA0+zYf7N5nkjkIOxIFFXLgJD46I2uxRbSeKgp2XICeLgoeKSxBWWUNpk8cE1I/4WbalClISkrC+q82yATBL778CjnZ2RgzehQA4P7VD2PIoEE4+8xlgk1RcQnWrFuHo8eOYcigQcjNzWX6KSsvxwdr1uLg4SPIzcnGX5cvR36e2Lamthbvf7gG+w4cQHJSMk6cPg0nzTxRMfadu3cDACaMGyfb53tP/+fN/+HZF/4FAFhxxZWestx9F/Jyc3H/6odx6sknQ6NW48uvv0ZjUxMevOceGAyxAcW9Y+cubPj2WxQVF0Or1WL0yJE4+8xlot6W969+GKefthBl5eX4Y8ufaGxoxMQJ43HWsr+gtq4O6z79DLt374HJFI8zly7BiOHDRcf6nvP7Vz+MMxadhvLyCmzavAX1DfUYO2YMzjlrOTQa8StH+7U5cvQohg4ejLmnnIJnn38BN153DfIUrhNB9Ab27d0DABh9wljZPt+6r9PpRGIgAKhUKkydMQv/ePJRuN1uqFQ03TdBEARBEKGB3jIIIpTwyotw8KI07wZrMQv2AhdeHwqzCMrNpOm8f5HPe4jXylldg4Y33pL8/zZcjU3s4xkOlBYa4RVEM1k6L5wpZsC814ix22vkb8Cw15SHwqaQGvBCIyGksLQCm7fvDp/DMKHRaDD/1FPw/Y8/wmazCek8z2P9VxuwaMF8oYG9Z89eFBUXCzZbtm7FWeedj81//ol+ffti9969uOu++2U+du7ajeXnnY9DR45gxLChOHDwIM489zzsP3hQsNm9dy+Wnn0Oftv0B/r37YvKqipcd/MteOLpZxRj75OfDwB4+bX/wO12K9oNGzIEqSkpAIBTTj4Zp5x8MuKNRqFMTzz9DK6+8SZUVlUhVh8riIEdxV1fX4/Lrr4apaVl6FNQAK1Gi2f++RxuvO0Okf9t27fjwpWX4e333keCyYTY2Fg89vensOyc83D+JStw4MBB9OvXF/sOHMB5l6zEzl3e+0x6zrdt344LVlyKN956G/HxRiSYTHjmn8/h9nvuFfn0vTb9+/XD7r17ccbys/DN99+HdX5HgggFuXmeuv/OG6/7rfssykqK8dEH72LoiJEkBhIEQRAEEVKohyBBhJog9RRkZu3HxNNDTWzhr6egUubSnoKOsnJUPfyEbFERw7TJUCeYZBn0+J6CjKL7ZBP8noJEp1m0cAHeevc9/PTzL5gz2zP0dtuOHSivqMBpCxYwj3G73Vj92BOYMmkSnnz0YaFh/fhTT+PNt98R7Hiex8OPP4FTZp+M++7yCGWXrbgEl161Cs8+/wL++fRT4Hkef3vkMUwYNxZPPvKwcB++9MqreO7Fl7Bg3lwMHzpUFsPUKZOxfNlf8MZbb+OzL9bjlJNnY8G8uRg9cqTIbuL4cfjr8jPx3odrRL0b2zl85Ai+Xf+5IBoGGndSUhJ++OpLxMTECMdNnzYFd9xzH4qKS4SehFqNFomJiXjz1VcEu7zcHLzw75fx47NkAAAAIABJREFU5quvYNTIEQCAKy9dicXLluOtd9/DIyMeYJ53rUaLxIQEvPX6a0LasKFDsPqxJ1B1YzXS09Lgdrvxt0cf7/DaEERvZdzESVh4xlKsff8dfLfhS0yfdRJOmnMqhg4fybTft3sXXnnxedTV1aKspBj5BX1xwy13MG0JgiAIgiCCBf30SBDhIEg9BZlZ+3crs1DqKVh++z0ov/lOlN98Jxrf+1BkwuopyI5bGhgv/Sgx6Rk9BZXoTT0FJ48diYvPOj30jiLA8KFD0a9vH6zfsEFI+3z9VxgzapRsWG87RwsLcejwYVxy4fmiXjanzZ8vsisqLsbuvXuxbOkZQhrHcTh1zhzs2rNHZHPxBeeLROmLLzgf8fFGbPz5F8XY777tVnzy4fuYP/dUrN/wNc6/ZCWWn3cB1n+1QfEYKYtPWygSAwONG4BIDASASRMmAACKS4pFx502fx7TLjY2VkjTaDQ4YcxoFPkcK4XjOJy2QHyOJ0+cKMQMAMcKi3D4yJEOrw1B9GauueEWvPLmu5g55xT88O03uOGqy7Bq5UX44ZuvZbamhESMHT8Bk6ZOw6Chw5CanoaG+voIRE0QBEEQxPEE9RAkiBDA7LkX4p6CivsC7CnY9Ol66QK98O0iKO0pKDrabze7nt5TkBW3Qhm701OQ7SloxOpjEKuP6diwl3LaggV48eVXYLW2QK+PwYZvv8FVl12maF/ctihOftvQPSWOFRYBAG667XakpqYK6Q0NjTCbLW02hZ68cvNEx2q1WvTr0xdFJSV+feTl5uKWG67Hjddeg983/YGXXnsNt951NzRajWyxERam+PguxQ0Adrsdv236A39s2YLqmhqUlZW3pTv8+tTr9QAANy8e7hir18Pt6twQyHZR0eVyAfAKgx1dG4Lo7WTl5OLyVddh5RVXY9uWzXj7zf/gkQfvgVqrES02kp2bi79ecLGwvfGH73HbjdfgqWdfwKChwxk5EwRBEARBdB8SBAki6PBy8U/Y1Q1RsDsRdXL4sHgF3ugWBRUDD7ooSHSH0+bPw7PPv4Dvf/wRiQkJaG42Y+4pcxTtY2M9glZDYyNMJrmg1o6+TUQ9/5xzMHjQQNE+tVrdZtOeV4Msr9bWVlnvPSXUajWmTpmMiRPGY/b8hfj62+8CEgS7GrfZbMZlq66B0+XCafPnYcK4cXC5XLju5lu65DNYBHptCCJaUKvVGDdxEsaMHYe/Ll2En3/4Trb6sC/TZ85C+kuZ+Pqr9SQIEsRxhtVqxY5tO5Cdk4P8gryODyAIgugGJAgSRKgIsigo05R4HkoT1HFaHVRtixIIadJJ//ylM1fg5eTpvhs+Q/94eRF6rCjoFxIFewyZGRmYMH4c1m/YAJPJhJkzpiPBZFK079enL1QqFb794QdcdN65QrrvwiQAMKB/f6hUKjQ1N2P8WPmKoADQr29bXt//gIvOP09Ir6quxuGjR7Hy4os6VRaNRoN4oxHxRrEYZnf477XX2bg3/vor9uzbh1+//1bopWc2mwEANruNeUw4EM5nB9eGIKINtUaDOKMRcUb/QrjT4YC5uRmxsYYwRUYQRKRpamrCti3bsHfPPrjcLhji4kgQJAgi5JAgSBChJKiioFhQEkQ3Xj5HXuqqy5C6Snk4ZejxRCeS53qLKMhLT30wRUGiOyxaMB/3PPAQAOD/nnzCr21aWioWzp+Hf/3738jMSMdJM2eisrIS1996m8guJTkZy/+yFK++/l/kZGVhwby5UKlUOHL0KHQ6HfLz8pCWmorFCxfgXy+/jMzMDMyeORPVNTW4+/4H0b9fP2GhEyk/bvwZv23ahOlTp6JPQT5M8fEor6jE6//7HyoqK7F4oXdBlKysTNTX1+PHjT/jxOnT4Ha7/a4wGkjcsfpYuN1ufPrFeiyYNxcupwsvvuJZOCRGF7nh5WmpgV0bguitbPr1F2zdsgnjJ01Fbl4e4uPjUVVZiQ/efQvVVZU4Za5nvsxvNqzHgb17MHX6TGTn5sJgMKC0uAhvvv4qHA4bZp86N8IlIQgi1NTV1eHPzVtx8MBBcBwHt9sNtVoFi8/0HwRBEKGCBEGCCDKyBSSCJgoq+APAaXtqVe7FoiBHomBPY87s2YIgOGPa1A7t77jlZrS2tuLWO++GSqWCwWDAX844XbaS7U3XXQu9Xo/7Vz+MBx5+BDqtFja7HddedaXQI/C2m2+Cy+XCbXfdI7ywT5syBU88slpRuNNoNDh85Ajeevc9uN3eefcGDRyAZ5/6O0aO8A4FPPXkk/Hh2nW4+oYbYYyLw6orLse5Z5/lt3wdxT1j2lQsnDcPDz3yKFY/9jgAYO4pcxCj03V47kIN69pMnzqlU4utEERPRa3RoPDoEaz78H1R3e/bfwAeeORJDB7mqftJSSkoPHoUn6z9UGQ3dPhIrH7iGRT06Rf22AmCCA811dXY+ud2HDpwCJyaA8/zwuJ5bjcv9OgnCIIIJRyvtJwnQRACa7/4DgOHDkNyelqHto3X3wDbF+vlO1iiICudE/7xpnOAcdoU9H3zFcGs6Mrr0PSlZ7VCdYIJA774CNrMjI4LEwYa31+DqnsfEhXAbxkZJ4Zjj1tmioLMdE7m1ce317t+/Fik//t5YXftbXfBuuFbnzxETqTZyArALg8Hbvw48E8+zYzdl8b6euzbsQOnzZkBbY8VeiPHvv37oVZrMHBAf9m+PXv3IT7eiLxc8crDDY2NqKyqwsC2Yba79uxB/759RSvoAp4FOAqLiuFyu5CbkwNjXJzMh9liQVFRMXJzcgKe/85ms6G8ogJmsxlZWVlISU5m2vE8jyPHjoEDhz4F+VCpVIpl6kzclVVVqK6pQV5uLhJMJhw8dBhpaalITEhQPG9Wawv27NuL4UOHis5TUXExLBYrhg4ZzDyWlZfD4cD2nTsxeOBAxEsWSPG9Npv/3IqVV16FHzd8icTExEBOLdED2PDTJiSmpiGnoCDSofQ47DYbqqoqYDWbkZaZhaQkdt23tbaisrICLS1WZGVlw5RA9z8Lq9WCnX9sxskzJsJklH8/Ez2XA0cKcbioHKPbVp0/niktKcUfv/+BsrJyqFQq0Y8BvmRmZWLpsiVhji462L9jOxKNBpwwYnCkQyGIns5L1NokiBDAnNqvuz0F/eBqakLR5dfANGc2OI3ajyVLNAvA1k8PN6nQ52poQtPadZ5tnwL02J6CTLxGwespqOCK6BRDBiu/3A0bOoSZnpiQIIhfADBi2DCmnU6nYwqNvhjj4hT9KBETE4M+AYglHMehf9++orRAfHUUd0Z6OjLS04VtqS3Lh8EQy5ybMD9PPJ+R9FhWXlqtVnGeQ99rs3ffPqQkJ5MY2MuI0Wrg6MT8l8cTupgY5OZ1XPdj9HrkF/QJfUC9HGfb6ug6rTbCkRBE13G53KioqAQHKIqBAGCmIcMEQYQBEgQJIkQEXRRkOmnbyQMtO3ejZefuth5q4iO8vdkYS4UwurQFttAIx/oj70XXw0VBWR7wFQuDKQqGlt/+3Im9B4/i4rMWh88pQXSRmtpa7D9wAOPHjoVWq8XW7dvx2htv4IqVKyMdGtFJ4o1xqGumoW1E6GmxWqHVaqCPify0BwTRVfIL8rBg0QJ8/unngNs7TFhKi9Ua5sgIgjgeIUGQIEJIMEVBqXrFgy08CQuN+Dj2ClfygDxJ4ky8Zj7psmn3RF3tmD7kcyH2DlHQu7v3iIItrTY0NjWHxxlBdJPi4hLcce/9aGhogLatt88VK1dg+V+WRjgyorMkJ5pQVFYBt8sFldpfD3WC6B7NDfVITlReXZ4gegv5+XmYv3A+vvj0CwBgioIulws2mw0xMZFbBIwgiOiHBEGCCAk+wlAwRUGGHx4ciYLSs9IZUdAPvUkUjI8zID2VPT8VQfQ0ThgzGt9+8RmKiktgd9jRr08f6HrAYidE58lISwHv5tFQV4fktI7n2SWIruByudBQV48RQ/xP60AQvYWCgnwsWDgfn3/2hef9n2FjNltIECQIIqSwl0YkCCIIeB/tzNEACg9/WbrQPVBsrY4zCAZKPQiljoUtRkA8IxOvmU86L7Ni/RH5kGejVEYwyyIcwUpXGGohS+dlXgEAKqNRZiff9BZOHLdSGSXp8ssXdMaPHoZzlswPrROCCCIajQb9+vbBkEGDSAzsxehjdMhIS0FlWVmkQyGimJqKCgA88rJ6xuJpBBEM8vvk49R5p3p+xGb8wG2x0DyCBEGEFuohSBBBhufZveu621OQt9nAOxzg2obXpVx4HmxHC+EoKft/9u47PqoybeP4NTOZ9EpCCBB670UE6b0j1kVFULCtru1d115W1t7WVdeK3bU3pCpF7KgIKlUpCaRACAmkt0ky5/0DCExmJiRkkkkyv+/n4xKe85znvs+ZrMKVU44GXSfMr+K5fg7jlX/nfBHeCbtX2nIKzxSsGK+0nsl5o7v2XBSoNF7tvk2yxEQrbO5Fx7eVl8soLnK4KFLy0JWCTt0BQNPQtWNbffvTr8rKPKSomGhvt4Mmpry8TPuSktW+TStZrfzVBU1Lx04dNHHKJK36YpXDz47NJrMKeLEIgDrGf1WBOuLpULB4526V7ElSYNfOkqSgPr3U6ZN366x/X1SWkaGSbdvl4t5oQkEAcCM6KkJtWrVQcmKCIppFyWzmBhR4zr69STKZpB6dO3i7FaBOdOrcUZOnTNLKL1ZV3LFjMpm4QhBAneNPbIDHubw/+PhXp3j7cHlOrg4++6KMElvtW4Qzu105L7+h8sNZx28T9vDtwwDQVPXq1kllNptS9+zxdiuNwqsLX9OeRM7VyeRmZyt93z716tqBqwPRpHXs3FETJ0+U6egPnA0Zys/nDe4A6haBIFCHHMO/2oeC2Us/1757/qXynFyP9QjJXlCgrH8/rfxFiys9C9GToSDBIICmKygwQAP79lBaaqoO8jzBkyopKVF5ud3bbTRoJcXF2r19u+JaxKhdfEtvtwPUuc5dOmnchHEyTCbZ7Xbl53GFIIC6xY/agDrheJuw5KHbh+12Hf7gU+Wu/Vbh48fI2qK5TnYjqqvH6Ll83p77Ta7nV+v+1+P31VY5/YTiJ13W6ZGAbvZwO+y4oTwrS0Xf/aDygxnHP6zjdwYfuU3YE7cPA0AT1zquuXp06aAdu3fLGhCgqGieJ+hOfJt4BQUHebuNBqvUVqI/t2xRaHCQBvXteeSlC4AP6Na9qwzDrrVffq38vDxvtwOgiSMQBOpCpefHSZ59pmBZRqYOv/+xQ9rnOtAzuX9Ph7sXjbj4Q7erl3OYXBU8hReNOC9jqnwIcjhGF38nMLl5G4q7v0A4jZtcBIueDgUBwAd079xeRcUl2rVtm9p27KS4+NbebqlBmnn2md5uocEqyM/Xrq1b5W+16IzT+shi4YYm+JbuPbrLbjf080/rvd0KgCaOQBCoK3UcClau4fgyi+MTDJkqt3F0N8fCx/d3bujI0MmPxTk3c0jVXNZw7vtoz+6O0UXCZsiQqVJgd6SM4TIUdBo3JMNk1G0oWMdXCeblF6qouFixMc3qthAAnMSA3t0UGhykbTsTVFSYr7YdO8nixx85cXKZ6enas2uXoqMiNKR/L54bCJ/Vs1cPSZLdbudFTQDqDP92AepAVS+VcPGUuVN+pmDlGo51j//G1bstDBeFj+/vXNlwdSyuCjo9ds9w9UsVz9s7oWfHZit/WamK8/P+jpRxncQ5jRtOVV30ferPFKxrGzZv17uLPq+3egBQlS4d22rIgN7KOXRIm9b/ooNpB9z++xjIz8vT9t9+V+KOHerYppWGD+pLGAif17NXD8JAAHWK/9ICdcTxyjfHq+gqXf525CuuFGzyVwoCgC9p2SJGMc3O0J+79ypx104dSE1W87iWioqOUSDPz/N55WVlyj58WBnpB5Sbla3oqAidPnyQIsJCvd0aAAA+gUAQ8DhDlSIip1DQoy8aObEsoWDDDQXrWKd28QoLCa7zOgBQE1arn/r06KwObVspISlVqSkpSk5MlNXqr6CQYFn8LDKZuALGl9jLy1RcVKyS4mJJUouYZuo5sI/iYnkJDQAA9YlAEPAwx9to3YeCx+YSCjrWaLKhoKvbkT2obes4tW0dV6c1AOBUhYYEq1/Prurbo4sOZ+cqKydXBQVFspWWcSuxj7EGBiqwWYQiw8MU0yySW4MBAPAS/gsM1IHK4VhVoeAJe1WMEwo21VAQAHybyWRSdFSEoqMivN0KAACAT+MeDaCOVH7hhuNvDRfzqho/PujyOgpeNOLyArwG+aIRAIDPS9ibovyCQm+3AQAAfBiBIFCHahIKugrSCAWdvyAUBAA0dq9/sER7UvZ7uw0AAODDCASBOlbdUNDVXMcxx4mEgg7NVv6yUpWGEQoCAAAAANAQEAgCnuYyeHLcWFUo6GohQkHnLxplKAgAgKSzJo9R67hYb7cBAAB8GIEg4GGugjTHoapDQcMhUyIUdK5bqWfHZit/WakKoSAAwPtO799LzSLDvd0GAADwYQSCQB2obSgow3WQRijo/EXjCgXrTmJSqr5f/3sdVwEAAAAANAUEgkAdqXUo6GKumyUJBZ2brfxlpSreCQXrUtK+A9qwaVv9FQQAAAAANFoEgkAdIhQkFOROYQAAAABAQ+Pn7QaAps6QZDIMyWRyHK8YMiSZjv5vxQ7HfudqtUr7Oy5qmEzOe1YeP6GGY93jEwyZnNpwdSzH93d3jI6LVD7uY4sYJodZR7Y5/uJQw7nvoz27O0YXp9SQIZNj4aM9GjI5nVwX44ZkmByqumj/yMF9G9tSiQtfkyTNv2KezGb3P4/ZtH2ntu9MULdO7XX+jAlu5+1I2KuPl62RJE0bP0LzLzjL7dzPvvhK23YkSJLuuP6yKus//N/XZLfba1T/7Clj1atbJ+pTn/rUp34t6gMAANQXAkGgHtQ2FHTclVCwMYaCnfJyFTvzSGDnat0TtY5rrj7duygmOrLKebExzTRp9FBJUrv4looID3U7t0+PLhVvtDxZ/YmjzpBhGIo6yQPvT6zfskVMlXOpT33qU5/6J68PAABQX0yGu/vjAFRY9PlX6tKjp5rFNj/p3MPX36CiZZ+7vMDPJLlI8E4cMp3wvxU7VDnXzZKSq1DQ1fgJNVwsLR2Luiot5upYju/v7hhPfixyyuZMrn5xqOG8zEmO0eVn4xwKHinj+i9vTuMmp6oOPZkHnS7L08+4XOtEOVlZ+nPzZs2YMFJWKz+zAQAAjdvOxCQlJKep3+DB3m4FPmDH5k2KDA3WgN7dvN0K0NAt5J4FoA64fT6dxDMFncYqjTfRZwoCAAAAANBQEAgCHmbpeOQ5QnUZClZardL+josSCjo0W/nLSlXqMBRs187lGgAAAAAA1DcCQcDDgseOrvi6rkJBw+BKwcYWCpqGDnO5PwAAAAAA9Y1AEPAwc+vW8otvU/F7bh8mFDQ1ayZT+/Yu9wUAAAAAoL4RCAIeZmneXNY+vSrlWoSCLso6LdJkQ8EOHWRq2dLlfgAAAAAA1DcCQaAOBM+ceeSLegoFK61WaX/HRQkFHZqt/GWlKp4JBU0TJ7mc70k//bpFr3+wpM7rAAAAAAAaPwJBoA4Ejh4pS8u4I7+ph1DQcE66XIwfHyQUdGi28peVqtQyFAwKknnCBJdzPamouEQ5uXl1XgcAAAAA0PgRCAJ1wBQUpLDrrzs+UE+hILcPO9fwdihomX+ZTMHBLud5UlhIsGJjmtV5HQAAAABA40cgCNSR0NkXKviCvxwfqIdQ0NVcN0sSCjo3W/nLSlVqHgqaJ0yQ5aLZLrd72qB+PTX7nKn1UgsAAAAA0LgRCAJ1KOruO2WOa3F8gFDQd0LBqCj53XijZLE4bwMAAAAAwIsIBIE6ZAoLU8xrL3slFHRVkFDQ+Yu6CAVNkZHyf+xxKaa580QAAAAAALzMz9sNAE2df8+eav6/15UxZ57s6QePDBqSTMe+NGQyTBW/P8aQZDIMyeS44fjQkUUqljqyQ8XCjru6Gz++qGEyVW7BefyEGo51j08wZDqxDbfHcnx/d8fouEjl4z62iOOpO7rN8ReHGs59H+3Z3TFWOpaKPVx9ZoYhU3iE/P7zlEw9esjb3vxoqXYlJivA36p7/n6V23kltlLd/5+FkqTT+vbUOVPHup27cfN2Lfr8K0nSpX85U106tqU+9alPfepTn/rUr3F9W2mpXnnxFUlSj549NHb8GLdzAQCeZzLcPQALQIVFn3+lLj16qlnsqV/xVZqQoLznX1ThJ4uOD5pO/NI5YKqY4pTgnThkclzKVGlhF3PdLCm5CgVdjZ9Qw8XS0rGArdJiro7l+P7ujvHkx+J86kyufnGo4bzMSY7R5WfjWNg8fpys8y+TqUtX58nVlJOVpT83b9aMCSNltdbuZzZ7U/crP79QZrNZPbt2dDvPbrdr+85ESVJUZLhax8W6nZuVk6t9aUeC7fZtWik0xP0LU6hPfepTn/rUpz71dyYmKSE5Tf0GD3aqvydhjyQpLCJMsbHu6wPVtWPzJkWGBmtA727ebgVo6BYSCALV4IlAUJKMsjIVLVuuvJdfU+m2bUcGCQUbfSho7tRJlgsvlGXKFCkgwHlSDXgyEAQAAPA2d4FgfbMbhnKK8mUrK/NqH5D8zGZFBIfJz+z5J5gRCALVtpC/bQL1yOTnp+Czz1LQxIkqWvOl8ha+ciQYrLgDtm5uHz4+o9JX3D5cq9uHzR07yu/iObKMHSOFhlU+YwAAAGggCm1FenbtZ/o1ebe3W/F5zcMidP9Z89UiPMrbrQA+jUAQ8AJTSLCCzzpTQZMmyCgqUtGatSrbs6fqfSq+cHn9npu5Dr9zP9f1JYHOw26Xqvoqusr7V7qu0O08F6tXq5+qrhR0u/JJT+vx82FqGSfLhPEyBQRKQUEn2xEAAABeZjcMHS7I0/7sTG+34vMMGSq3l3u7DcDnEQgCXmQKCpIpKEghs873disAAAAAAMBHeP6mfQAAAAAAAAANFoEgAAAAAAAA4EO4ZRgAAAAA4JPio5rrkqGTvN1Gk7X2z1/1U+If3m4DgAsEggAAAAAAnxQdGqGz+g/zdhtNVvLhdAJBoIHilmEAAAAAAADAhxAIAjipFUs+05TRQ1Vqs7nc/uJ//6Mpo4fqgXvvrHL/dd99W2Wdz5ct1pTRQ7Vx/c+17hkAAAAAALhGIAigVsrLyrR29Sp16dZd69f9oILCArdz33ptoQzDcLmtrLRU7731Rh11CQAAAAAAjuEZggBq5acff1BxcZFuv+dfuvKSi/Tjt99owpRpLuempiTru6/XatTY8U7bPl+2RAUF7sPExs5WWirDbpfJZJK/v7/beYZhqKy8XEXFJZJJsvq5/9d0WVm5SsvKJEkB/laZze5/xlNiK5X9aP3AgKrrF5ccuRLUz89CfepTn/rUpz71qV+r+jZbqcrKy93OOVbfdvROlICAgCrnAgA8g0AQQK2s/nyZzhg2Qq3btFXvvv301ZqVLgPBoOAgTZwyXW+//opGjB7r8IdHm82m995+Q3MuvUwvPfd0fbZfb5YsWqqD6ekKCwvT3Hlz3M4rLCzUpm07tGnbDo0cMkCTx7h/yPWPGzdr5dfrJElXX3K+4lu2cDv39fcXKzUtXZHhYbr5mkvczsvJy9cTL7wlSdSnPvWpT33qU5/6Hqkf4O+v04YOdTsvPz9f/3vj7SNr/u0qmS0Wt3MBAJ5BIAjglGVnZemXn37UPx94RJI0euwEPff0v5WVdVhRUc2c5l8451J9sXypvl67WuMmTK4YX754kYKDQjRm4qQmGwiOGj1cNlupLCf5A25gYJC6dmirIQP7KCY6ssq5fXp0VqsWMZKk5s2iqpw7Y+JIlZTY5FfFT/wlKTQ4WPMvmClJiowIoz71qU996lOf+tSvVf2EvSk6kJld5bzgoGDNPPtMSZKpiisOAQCeQyAI4JStXfWFgoNDNGjwGZKk4aPH6rmn/61v136ps877i9P8ZtExmnnO+Xr79Vc1ZtxEmc1mlRQX68N33tLV1//9pGFZYxbbwv1Pz09ksZgVFhaqju3iZbVW/a/oyPAwRYZX/Yf2Y6r66f2J/Pws6tS+TbXmUp/61Kc+9alPfeqfrH5hUbEKS8qqnGfxsyi+TXy11nTHMAwZR391xW4Ykpy3GYahcrvd7bomk0mmo79Wh90w3PbQmJnNZlXvDABoLAgEAZyyVV8s16jxE2Q5+lPnyKgo9ek/QF99ucplIChJsy6eqxWLF2nNys81aep0LVn0scIjIjVy7Djl5+fVZ/sAAABoIvZnZ2rV9o0qLrW53F5SZlPS4Qyn8QM5h7Tw22Vu1/WzWDSyS191jzt5YFpgK9byzT/pUH5u9RtvJAa266ohHbp7uw0AHkQgCOCU7N65Q3sTE7Q3MUHLP/vUaXvavlS1bO38k97w8AidM+tCvfvmaxo6YqQ+eu8d3fCP26p8IDUAAABQlf25h/X++q+UXZRfo/0O5mXrjXUr3W4P8g9Qq8iYagWChSXFWrrpR+1MT61RD42ByWwiEASaGAJBAKdk1edHfpL66FPP6cQ7KHKysvXggrv0zdo1unDuPJf7nnfBRVr86Uf622WXKCamuYaPGl0PHQMAAAAAAIlAEMApKCst1ddrVuvCufPUb8BAp+0Dlp6utatXug0Eg0NCdf5Fc/TGwhd07f/dXO1nsgAAAAAAgNrjHj0ANfbTuh+Um5ujcRMnu9w+atx4JSftVWLCLrdrnD/rIr3+7kc6Y/iIumoTAAAAAAC4QCAIoMZWf7FMnbt2U9t27V1uHz5qjCwWi9aucv88Fj+r1eUzBgEAAAAAQN0yGU3xneiAhy1d/a3aduqs5nFx3m4FTdzhjEzt2r5NZ08Zw63UAACg0duZmKSE5DT1Gzy4TusYhqGq/mKbW1ygfy15U+sStjuM943vpJfm/r3KtU1Stf9cZm8tUxSqAAAgAElEQVSif702mSSTav5n0/+uXaS3f1rjMNYyMlrPz75BrSJjPNVehR2bNykyNFgDenfz+NpAE7OQZwgC1RAQECBbSYm324APsNlK5O/vTxgIAABQAyZT1XGV2WSSXMwwmUxHt3mGJ9cCgLrELcNANUSEhaggP8/bbcAHFOTlKTwsxNttAAAAAACaMAJBoBqaN4tSbna2DLvd262gCTMMQ7lZWYqNjvJ2KwAAAACAJoxAEKiGli1iZC+3KyvzkLdbQROWm50tm82mVi08/zwVAAAAAACOIRAEqiEoMEBxzaOVlprq7VbQhKWlpiimWaTCQrllGAAAAABQdwgEgWrq2a2jCvLzlJme7u1W0ARlZR5SzuEs9ejSwdutAAAAAACaOAJBoJrCQ0PUoU0rpSQmqry8zNvtoAmx2+1KTkxQfMsWimkW6e12AAAAAABNnJ+3GwAakx5dO2hfeoZ2//GnuvbqJZPJ5O2W0ATs2bFD5WWl6t29k7dbAQAAaJRKSm3KKsqX3c1LAPNLilVcanMat5WVan92ptt1TSazIoJCFOwf4LFeAaAhIBAEasDfatXQ0/rqu59/U0piotp2IsBB7exLStKhjAydcVofBQXyB00AAIBTkZCZphe+XqL84iKX28vtdqW6CP6SDh3QXYtec7tugNVfc4ZM0IguvT3WKwA0BASCQA1FRYRpYJ9u+uX37TJbLIpv397bLaGROpCSqtS9e9W/V1fFNY/2djsAAACNVoGtWDsPpCq7KL9G+xXaSrQ9Lcnt9iD/AOUUF9S2PQBocAgEgVMQ37KFysrKtWnbThUXFaljt24ym3kkJ6rHMAzt3bVLGQcOqHf3zurQtrW3WwIAAAAA+BACQeAUtW/TSiHBQfr5t63a/ttvate5s8IiIrzdFhq4grw8Je3eraKCAg0Z2FstY2O83RIAAAA84FBBrhYseVOJGWnebsXjLhw8VnPPmOjtNgB4EIEgUAvNo6M0dtgg/b5tp7b//rtiYmPVul17BQYHebs1NDAlxcXan5ykjAPpahYZocFDT1N4WIi32wIAAICH2O12ZRfmKzM/x9uteFyBrdjbLQDwMAJBoJZCgoM0/PR+SjuYqc1/7NamX9YrPDJCUdExCg0PV2BQkCx+fryR2MeUlZWquKhI+bl5yj58SLlZ2QoM8Negfj0V3zLW2+0BAAA0KTEh4ZrY6zQV2kpcbi8tL9PvKQk6mJvlMN4sOExDO/dyu66/xaL4SJ71DKDpIRAEPKRlbIzimkcrPeOQUvana39ykkpLy7zdFrzMz89PLWKi1L1/L8W1iJGZYBgAAMDjOsS01M2TZrndnltcoHsXv+kUCLaJbqF/zphb1+0BQINDIAh4kMlkUlxsjOKOPheusKhYBYVFKi0tkyHDy92hPlmtVoUEBSo4KJCrQwEAAAAADQqBIFCHgo8GQgAAAACatiD/AI3u2k/d49p6uxWP6xHXztstAPAwAkEAAAAAAGopJCBQlwydKLvR9O4Mspot3m4BgIcRCAIAAAAAUEsmmeTvZ/V2GwBQLWZvNwAAAAAAAACg/hAIAgAAAAAAAD6EQBAAAAAAAADwITxDEAAAAADQqB3Kz9Wm1ESV2stcbi8sKVFmfq7TeHZBnlZu3+B2XbNM6tmynVpHxXisVwBoCAgEAQAAAACNWtLhdD2z9lPlFha43G7IkK3MOSxMzc7Qoyvec7tugNWqGyecRyAIoMkhEAQAAAAANGrlhl1FJSUqsBXXbD+7vcp97DJUbrfXtj0AaHB4hiAAAAAAAADgQwgEAQAAAAAAAB/CLcMAAAAAgEbNYjIryN9ftvIAl9sNGbKVlqnccLz912I2K8DP6nbdQD9/WcxcRwOg6SEQBAAAAAA0ap2at9Jd0+eotNzdW4aL9c76tdq+f6/DeLvoOF0/7my365pNZnWMiatWDyWlpdqyf4/yi4uq3Xdj0S46Vh1iWnq7DQAeRCAIAAAAAGjUIoJCdHr7bm635xYXaPmWn53GwwKDNaxTL4/0kF9SqJe/W67d6fs8sl5DMnfoBAJBoIkhEAQAAAAAoJbshqHCkmLllzS9KwSLy0q93QIAD+NhCAAAAAAAAIAPIRAEAAAAAAAAfAi3DAMAAAAAUEsmk0l+Fj/5WZreX7MtJq4lApqapvdvKgAAAAAA6ll4YLCuG3tWk3yGYLvoFt5uAYCHEQgCAAAAAFBL/n5Wndauq7fbAIBq4bpfAAAAAAAAwIdwhSAAAAAAoFHbfXCf3vn5SxW4uV23tLxcfx5IcRrfm5mmWz9+ye26Vj8/nTNgpAZx5R+AJoZAEAAAAADQqGUV5Wvd7m3KLsqv0X45RQX6Zudmt9uD/AM0rFPv2rYHAA0OtwwDAAAAAAAAPoRAEAAAAAAAAPAhBIIAAAAAAACAD+EZggAAAACARi0qKFTDOvc66UtFDhfkOoxHBIWof5tObte1+vmpRXiUR3sFgIaAQBAAAAAA0Kh1jm2te8+8xO323OIC3bv4Ta1L2OYw3j6mpR47/6913R4ANDjcMgwAAAAAAAD4EAJBAAAAAAAAwIdwyzAAAAAAALWUX1Kk99d/pQO5h+ul3gWDxqhLi/h6qQWg6SEQBAAAAACglopsJfpm5ybtTE+tl3pjuvUnEARwyrhlGAAAAAAAAPAhBIIAAAAAAACADyEQBAAAAAAAAHwIzxAEAAAAADRqOUUF2pmeqtLyMpfbC0uKlV1U4DSeV1yodQnb3K5rNpnVMSZOseFRJ+3BbDYrNjxShaUl1W+8FoKsAfVSB0DTRCAIAAAAAGjUEjL268EV7yinMN/tHFuZc1iYdOiA7lr0qtt9Aq0BunHCuZrS6/ST9hAVHKb7Zs5Tmd1evaZrKcSfQBDAqSMQBAAAAAA0auWGXUUlJSq01ezqvHK7vcp9jKNzqsNsMikkIKhG9QHAW3iGIAAAAAAAAOBDCAQBAAAAAAAAH8ItwwAAAACARs1iMisoIEC28lK3c2xlZSqzlzvuZzYrwM/qdp9Aa4AsZq6jAdD0EAgCAAAAABq1ds1a6IZx56rU7u4twyX69NfvtDM9xWE8PrK5Lh81ze26ZpnUs2U7j/YKAA0BgSAAAAAAoFGLDg3XuO793W7PLS7Qtzs3aWe643hkSJgm9xxUx90BQMPDtc8AAAAAAACADyEQBAAAAAAAAHwIgSAAAAAAAADgQwgEAQAAAAAAAB9CIAgAAAAAAAD4EAJBAAAAAAAAwIcQCAIAAAAAAAA+xM/bDQAAAAAAUBt7MtP0ya/fqdBW4nJ7aXmZdmfsdxpPOZSu+5b9z+26/haLpvYerH5tOnusVwBoCAgEAQAAAACNWmZBrlZv26jsovwa7Xe4ME/LN//kdnuQf4D6xHciEATQ5HDLMAAAAAAAAOBDCAQBAAAAAAAAH0IgCAAAAAAAAPgQniEIAAAAAGjUQvwD1TUuXnnFRS632w27UrMyVVDiuD3YP0DtouPcrhtgtSoiKMSjvQJAQ0AgCAAAAABo1DrFtNRd0y+W3W53uT2/pFj/Wf2xfk3e5TDeLjpOD51zmdt1TSYzgSCAJolAEAAAAADQqAVY/RVnbeZ2e25xgQKt/k7j/n5WtYqMqcvWAKBB4hmCAAAAAAAAgA8hEAQAAAAAAAB8CIEgAAAAAAAA4EMIBAEAAAAAAAAfQiAIAAAAAAAA+BACQQAAAAAAAMCH+Hm7AQAAAAAAasMwDBlVbLcbhuRihmEYR7e5Z5JkMplq1R8ANDQEggAAAACARm1D8k7d/elryi7Kr9F+m1MTNPTh69xuD/IP0C2TL9D0PkNq2yIANCjcMgwAAAAAAAD4EAJBAAAAAAAAwIcQCAIAAAAAAAA+hEAQAAAAAAAA8CG8VAQAAAAA0Ki1Cm+mCwePVXGpzeX2kjKbvt21VfuyMhzGY8MiNa2KF4b4WSzq1LyVR3sFgIaAQBAAAAAA0Ki1iozRpcMmyzAMl9vzSgqVdCjdKRCMi4jWVaNmuF3XZDLJ5NFOAaBhIBAEAAAAADRqFcGdyXV8ZzaZJBfRnslkksXMk7QA+B7+zQcAAAAAAAD4EAJBAAAAAAAAwIcQCAIAAAAAAAA+hEAQAAAAAAAA8CEEggAAAAAAAIAPIRAEAAAAAAAAfIiftxsAAAAAAMAbDuXnaPHv67zdRpO1++A+b7cAwA0CQQAAAACAT0rNytBDK97xdhsAUO+4ZRgAAAAAAADwIQSCAAAAAAAAgA8hEAQAAAAAAAB8CM8QBAAAAAA0aWaTSc1CwtQqMsbbrfi85mERspgt3m4D8HkEggAAAACAJi3YP0jXjTtbtrIyb7fi8/zMZkUEh3m7DcDnEQgCAAAAAJo0s8mkKEIoAKjAMwQBAAAAAAAAH0IgCAAAAAAAAPgQAkEAAAAAAADAhxAIAgAAAAAAAD6EQBAAAAAAAADwIQSCAAAAAAAAgA8hEAQAAAAAAAB8CIEgAAAAAAAA4EMIBAEAAAAAAAAfQiAIAAAAAEAtpO1L1a4df3q7jQbBW+cibV+qUpKT670u0FgRCAIAAAAAPMpms2lvUpJ2796tnJxsb7ejw4cytfn3X1Vqs1U5r7CoUJt//1X5eXk1Wn/Joo/11GMP16bFGjt2TLlVnN9tmzfp8OFD9diVd87Fsbrvv/u/eq8LNFYEggAAAAAAjygoLNTDjz+hYWPHa+b5s3T7XXfqoQfu1aUXnKuN63/2Wl8//fC9br3xWi377NMq5334vzd1643Xascf2+ups1N37JgeWnCPDMNwOefu2/6u9T+uq/HayUl7dd/dt9V7mAig/vh5uwEAAAAAQNNw+933aNfuBD39xGPq16eP9qam6betO1RqlKtNu3bebk8fvPuWpp55lgKDgpy25WRn6ZOP3vdCV7WzZdNvWr74U804+zyPrZmXm6N1332rK6+53mNrAmhYuEIQAAAAAFBrmYcO6Zvvvtf/XXethg8dqtDQUPn7+ysmJkZTpp+p2BZxDvNLbTalJO/Vrh1/qqCwwO265eXl2puYoNzcHEnS/tRUHcrMcJpnt9u1NzFBmRkH3a5lGNLSzz5xue2jd99W69ZtXG6rbq8n2p+aos2//6ry8vJq95m2L1X7U1MkHbl9OWHXDtmquM05JDRMF8y5VK+8+JzS9u+rVl+SZBiG9qemKDUlSXa73WFbdlaWtvz+myRp0++/afPvvzqd7+qda0MpyXu1d0+CU43q9nIq806UnJKiDb86fwYAuEIQAAAAAOABhYVFkqT0g+5DomOef/rfWrlimUqKiyVJflarLr5kvi66ZL7DvBVLF2vhc09XzOvdt78yMw7qrPNm6ezzZ1XMW7PqCz3/5OMqsZWovLxcvfr20x3/vE8xzWMr5gQFB+mC2XP1/ttvavrZ5yo4KLhi2+HDh7R08ae69e4Fuv/u20+p1xMl7N6pW667RudeOFt9+w+sdp9LFn2szMwMRUU10/Iln6m8rEyPPvWc+g0Y6K6ULr5kvn5e94P+/cgDeuyp52Q2V33dz7dffalnn3xceXm5MgxDEZFRuvHm2zVs5ChJ0tZNv+uNV16SJD312EMKj4jUvCv+qmkzz672uU5J3qur581R0t5ESVJwSKiuv+kWjZ0wqUa91HTeif7cuVPzr/yrLplzsQYNdH/+AF/FFYIAAAAAgFpr2yZefXr30jPPv6D/vvCiEvfsdTu3fYdOeuCxJ/XJ52v0weIVOuf8C/Tmqwu1fevmijnrvvtWzz75mOZdcbU++XyNXnvnQ8W3aet0JdzG9T/r6ccf1t9vu0tLVn+j19/7WEUFhfrPYw851Z1xznny87dq8UcfOIx/+M5b6tW7j/r0639KvZ4o/UCa7rnlJo0aN15z5l1e4z6/+2qt0vbt030PP6FX3/5Avfv0dXseJcni56db7rpHO/7YrsWffFTl3N9/3aBH7vun5sy/Qp+u+FJvfvCpevXpowf+eYf2JOyWJI0YM1b/fvZFSdLr736kD5d8XhEGVucYysrKZLPZNHnaDL3/2Qq99eEiDR46VI/ef6/DOatOLzWZd6L9aWn62w3/p8kTJ+iaK6+o8pwAvopAEAAAAADgEc8//ZQunXOxPl70mc6edYFuuuVm/bTuexUXFTnMmzbzbPXpN0AhwSGKiIzSZX/9myIio7R186aKOe++9ZrGjJuos8+fpeCgYLVsHa8bbr7Nqebbb7yqCZOmauTYcbJYLGrZqrUuv+Y6bVz/s9MbeP39/XXx3Pn6+IP3VJB/5E3ChzIztGLJZ5p72ZUuj6k6vR6Tm5uju27+uzp366br/+HYa036vOeBR3Ta4CFq3aatLH4nv7GvfYdOuuSyK/X6yy8oNSXJ7bw3XnlJ4yZM0sxzz1dQcJBaxLXUHf+8X9ExzfVhNd7QW51jsB99wcm5F1ykyKgoxbaI0613LVDrNm0dalS3l5r2nJ+fr6uvv1E9e3TXPXfc7rQdwBEEggAAAAAAj4gID9cNf7tGq5ct0WMPPqDY2FgtWbJIs8+b6fKKulKbTQfS9itx906ZTSZlHX2rrd1u1949iTpt8BCH+SaTSUHBx18IYrfblbBrh0qKi7Vx/c8V/2RnH5Ykpe1zfq7elBkzFRoaqk8/PPICkXf/94b6DTxNPXr1qfLY3PV6THFJse69/RZlHcrUXQselMViOaU+O3XuKn9//yp7ceW8C2arc5dueuLhB1w+Y89utytx1071P93xnFr9/TV46DDt3ZNY5frVPQZ/q1WdOnd12NdsNmvosBFK2rOnRr3UtOeSUpv+89STyszM1BMPP+TwGQBwxDMEAQAAAAAe5e/vrymTJqpj565a/9sWvfbqS3rx2Wf0zIuvSJL27knQy889oz+2b1eLuDiFhIYqK+twxf6FBQUqKy1VQEBglXUKCwpks9m0ds1KZWY6Pruwb/8BCgsPd9rH4uenOfMv14tP/0dDR4zSyuVL9eRzL7mtcbJej/EzW2S1WlVSatOhzAy1ij/+gpJT6bOmzGazbr7jHl1z+Vx9/P47mjV7rsP2Yz0E+gc47RsRGaXio89IdKe2xxDZrJmKigpr1EtNe7aYzfLz81OJzaaDGRlq28b1S2IAEAgCAAAAAOpQdHSMho0cpa/XrJZ05K3Bt1z/N42dOEkLHnpc1qNXw503dYL2H73KLDQsTMEhodq7J0Ejxox1u3ZoWJhCw8I0ZfpMXXHNddXuafykqfrg7f/puivnaeiIkerarYfLedXp9Rg/q1V33/egrr/qMt17x6166qVXFBIcUqs+a6pVfLyuuPo6LXz+GQ0ZNtxhW2hYmEJCw7QncbfTOd2Xmqw2bdtWuXZNjsHVm5H3p6Yovm27GvVS0579LH66/trr9eDDD+j6m27WO2+8ptCQkCp7BXwVtwwDAAAAAGrNbrcr1cUtuiUlNm3+7Td179VLkpSZcVB5ebk6fciwioDNbreroLBA1hOelzd46FAt/exTHc7MrBhLP3BARYWOzyMcMmyEVixdrPQDB6rdq9ls1rwr/ipJmjPf/UsnqtvrMeERkfrXw48rMzNdj/zrHodbd0+lz1Mx4+xz1at3Xz3+4H0qKyt32Db4jKFatniRwzndl5Ksdd99qzEnvAE4MPDIlZmVQ8/qHENRUZFSkvfq8CHHz+2rL1dp5OhxNe6luvOOCQ0L03+f/LfSD6brtrvudnn7NACuEAQAAAAAeMBvmzZp/lVXq2OH9urapYtioqOVuj9NGzZuVEBgkP71yBOSpNgWcWrfoZMef+g+jRg1WuERkfrph+8lSc1btKhYb94VV2vzb3/VdVfO0+jxE1RWVqYN6392qnvV367Xn9u36dorLtHkaWcqtkWcEnfvlGEYuun2u932O2LMWH3xzY9VHlN1ez1R+46ddMudC3T/Pbfr9YUv6PKrr61VnzVlMpn0jzvu1l/nzVFppSv15l91jbZs+r3inErSmi8+1xnDR2jchMkV89q066CY5rF6/pknNXXGTLVsHa/hI0dX6xiCgo484/Hayy/V0BEjFRAUpLWrVqpL1+6acdY5Ne6luvNO1KVzJz30r3/p77fepqefe15/v77ursoEGivLggULFni7CQAAAABA49aqZUtNnzpV/v7+ysvL1/60NPn5WdWzZ18tePhxRURGSjoSWA0fPUa2khLt358qs8mk8y6cre49eiksPELdevSUdORKr/GTpqq0rEypyUmKjY3TJZdfqdWfL9eQYSPUpVt3SVJgYJCmzjhLQUHB2p+Soj2JuxUWEaERo8eqVet4SdLhQ5nKzsrSuImuA6RjysrL9ee2LTpjxEjFxDSvdq9p+/bJZDbpjOEjJUlt2rVTSHCIfv91gzp27qxm0THV6rPyOlU5fChTOTlZGuviKrmQkFDFxbVSbk62Bg0eqtZHn2cYEhqqSVNnqNxuV2pykswms2ae+xddUukNyxaLRUOGDldmxkEl7d2r6GbR6tq9R7WP4bTTh6hv/4Hak7hbpaWlmjRluq654SaHl3xUt5fqzkvbt08FBXkaPOh0xcVGq0P79goNCdH6DRvUrUsXxcTEnPScAj5ko8kwjr4THAAAAAAAD9qbsl9bdiTotErPsztV+Xl5On/GJD361HPqN2CgR9ZE07Ft40a1ahGtXl07ersVoKFbyDMEAQAAAAB1Ijg4SGWlZU63rp6q1V+sUFRUM7cvAYFvKyouUsjRW5YBVI1nCAIAAAAA6kRkeKhMJpPyc/MUFRNdo31Liot13ZXzNWDQIEXHNFfK3j369puvdOud9yoomNAHjooKClReVq7I8FBvtwI0ClwhCAAAAACoE/5WqyLCw5R1whtnq8vPz09z5l2ugoICbd38u8IiI/X0C69oxJixddApGrusQ4fkH+CvCAJBoFp4hiAAAAAAoM7s3pui7bv2aMAZZ8hi4SY1eJ5hGNr8yy9q3SJafXt08XY7QGPAMwQBAAAAAHWnXeuWMptM2p+c6u1W0ERlpqerpLhYHdu29nYrQKNBIAgAAAAAqDNWq5+6d26vA6kpKi4s8nY7aGLKy8uVumePOrZtrdCQYG+3AzQaBIIAAAAAgDrVsV28QoKDlJyw29utoIlJ2ZMoyVCPLh283QrQqBAIAgAAAADqlNlk0oDe3ZSTna3UPXu83Q6aiIwDB5S+b7/69ewqq5XnUwI1QSAIAAAAAKhz0VERGtC7m/YlJyszPd3b7aCRy83O1t6dO9W9c3vFt4z1djtAo0OEDgAAAACoF21bxymvoFC7duxQaWmpWsbHe7slNEKHMzKUsONPtYqL5VZh4BQRCAIAAAAA6k2vrh3lb/XTth2JKi4sVPvOnWUyc/MaTs4wDKWlpChlzx51ahevPj06e7sloNEiEAQAAAAA1KsuHdoqNDhYGzZtV15Ojtp26qTIZs283RYasPzcXCXtTlBBfp769+qqDm1be7sloFEzGYZheLsJAAAAAIDvKSwq1tYdCdqXdlARUVGKi2+jiKhImUwmb7eGBiIvJ0fp+/fp0MEMxURHqV/PLgoPDfF2W0Bjt5BAEAAAAADgVZmHs7V91x4dOpwtP6tV4VGRCgkNldXqL4vF4u32UI/sdrtKS20qzC9QXna2SkpKFBERpu6d2qlVi+bebg9oKggEAQAAAAANQ35BkdIOZijzcI5y8vJVaitVWXm5t9tCPbJYzLJarQoPDVF0VIRaxsYoIjzU220BTQ2BIAAAAAAAAOBDFvIqJwAAAAAAAMCHEAgCAAAAAAAAPoRAEAAAAAAAAPAhBIIAAAAAAACADyEQBAAAAAAAAHwIgSAAAAAANAALHnxI73/0sbfbAAD4AAJBAAAAAHDj4cef0OVXX6Pv162r81rbt/+h5JSUOq8DAACBIAAAAAC4cDAjQx98/Il2J+7Rx4s+83Y7AAB4DIEgAAAAALiwdPkKxbdupauvuFzf/bBOeXl53m4JAACP8PN2AwAAAADQEC1etlzTp07VxPHj9Oi/n9TqtV/p3LNmOsxZ8OBDOvvMGUpLO6D1GzYqKztLA/v31+wLZsnP7/hftzZv2arVa9cqOSVFVqtV/fr00YV/OV9Wq9Vt/ZtuvV29e/XUZZde4jD+4iuvqrCwUC1iY7X266+d9rNarXrxv89U/H5/Wpo+/nSRdiUkKr51K100a5batok/xbMCAGgKuEIQAAAAACrZtGWL9iYlafqUyYqJjtaggQO0YuVKp3m/b9qkSy6/Uv979z2FhYUqIjxcTz37nG6/558Vc7KysnTVdddp3779at+unax+Vj317HO66bY7quyhWXQzvfPBBzIMo2KsrKxMb7/3ntq2aaPu3bpq4vjxFf+MHDFCv2z8VQEBARXzt2zdpllz5mp3YqJ69+yhnbt26S8Xz9GOXbs8cJYAAI0VVwgCAAAAQCWLly5Tn9691LZNG0nSpAkT9NBjjysjI1PNm8dUzLP6WRUZEaF333y9Yqxnj+568NHHdfCmDMU2b66oqCh9s2qlQ1A3YvhQ3XHPvUpOSXV7td7MadP04cefaNOWLerft68k6edfflFxcYkmjR+v8PAwnTZgQMX8x//zlJo1i9KCu+6UJBmGoYcee1wTx43XvXcdCR+vuvwyXfm3a/Xf51/Qs/950kNnCwDQ2HCFIAAAAACcoKSkRF+sXqPpU6ZUjE0YO1aS9MXq1Q5zTSaTZkyb6jB2xuDBkuTwxuATw0BJGnL66ZKklFT3bxXu26e32rZpozVrv6oYW7l6jUaNGK7w8DCHuRt/+03vvP+B/nX3XYqKiqqov+2PP3T+uWc79DtpwgRt3b7dbV0AQNPHFYIAAAAAcIIvv/pa+fn5+vCTT/TlV8fDOLvdrlfffFNzZ19U5f5BQUGSpPLy8ooxm82mn9b/ol82blRGZqb27087Ol5a5Vozp0/Tp4sX6+b/u1FlZWVa+803uv+f/3SYU1hYpLsX3Kdzz5qp0SNHVozvTUqWJBM881QAABxiSURBVP3jttsVE3P8qsbs7Bzl5xdUWRcA0LQRCAIAAADACRYvWyZJmjxxosP43qRkZWRmKik5We3atq32evn5+brq2utVVl6uGVOn6PTTTlN5ebluvPmWk+47Y9o0PffSQm374w9lZWXJbDJr5PBhDnOeeOopWSxm3fL3/3MYDww8clXi3Nmz1a1rF4dtFoul2v0DAJoeAkEAAAAAOOpAerp+/mWDHrn/Pk2bMtlh20V/OV9jJk/VipWrdM2VV1R7ze9//FHb//xTP369tuLqwfz8fElSia2kyn1btYzToIEDtGbtV8rMPKQpkyY6vL34hx9/1KIlS/Xmywsr1j6mc6dOMpvNys3L06CBA6vdLwCg6eMZggAAAABw1NLlKxQQEKCxo0c5bYuMjNSQ0wdpxRfObxuuSlBgkOx2u5Z9/oUKCguVm5unF15+RZIU4H/82YKBgYFKSU112v/M6dP1+cqVWvvNNzpz2rSK8dzcPN17/4O6cv489e3T22m/6GbNNOu8c/Xam29pybLlKisrk91u1+6EBIfnGwIAfA+BIAAAAAActXjZMo0fM8bpartjJk+YoKTkZG3/489qrzly+DBNnzJF9z/8iIaPHa9REycp89AhBfj7O8w7c/o0ffv9Dxo5fqJ+27SpYnzi+HHan3ZAYaEh6tO7V8X4G2+/rYMZGXr/o481bso0h3/2JiVJkv5x4w26aNZftODBhzRk1BgNHztes+ZcorVff1OT0wIAaGJMhmEY3m4CAAAAABqCDb/+qnZt2qp58xiX24uKirTtjz/Utk0bxTZvru1//KmwsFC1iY+vmFNaWqpNW7aoW5cuCgs7/jbg9IMHlZGZqTbx8YoID9eu3Qlq3jxGkRERFXNS9+1Tic2mDu3ayWw+fv3G1LPO0cwZ0x1uVU5OSdXBjIMu++zds6cCAwMrfm+z2ZSUnKJye7niW7dWaEhIzU8OAKCpWEggCAAAAAAN2G+bNunSK67Sko8/VPt27bzdDgCg8VvILcMAAAAA0IAtXrZcPbp3IwwEAHgMgSAAAAAANFAlJSVatXqNpk6a5O1WAABNCLcMAwAAAAAAAL6DW4YBAAAAAAAAX0IgCAAAAAAAAPgQAkEAAAAAAADAhxAIAgAAAAAAAD6EQBAAAAAAAADwIQSCAAAAAAAAgA8hEAQAAAAAAAB8CIEgAAAAAAAA4EMIBAEAAAAAAAAfQiAIAAAAAAAA+BACQQAAUKUHHnlUfU8f4u02PKKwsEhJycnVmnswI0N9Tx+il197vY67gis1+ayaipr8f80Xzw8AAPAcAkEAAE5Rwp49uudf9+vcC2dryKgxGjVxsmZdPFdPPv2MEvbs8XZ7TZrdbtf4qdM1bOx4lZaWup237Y8/1Pf0IXrj7XckSVdee63OPO8v2rxla321esp8/furoXxWB9LT1X/IUPU9fYje/+hjr/ZyooZyfgAAQONEIAgAwClY/eVanXfhbK3fsEGnnzZQV8y7VOeeNVPt27fTkhUrtDshwdstNmlms1lTJ09Sfn6+1v30k9t5X6xaLbPZrGmTJ0mSunXporgWLRQd3ay+Wj0lNfn+2rU7QbMunqsvv/7aew3XgYbyWS1dvkJms1mhoaFa8cVKr/ZyIlfnpz6/F5rq9x0AAL7Cz9sNAADQ2BQUFurOexdoQL9+Wvjcf2W1Wh22G4YhwzC81J3vmDFtqt565119sWqNRo8c6bTdMAx9sWq1Bg8apNjmzSVJ/7zzjvpus8Zq+v1VXFysP3fuVE5Obn23Wqcayme1ZPkKjRg2VC1iW+jDTz7R/rQDatUyztttuTw/9fm90FS/7wAA8BVcIQgAQA1t2bpVJSUlmjp5klNYI0kmk0lmM/+JrWvdu3ZVp44d9fW336rEZnPa/vumzUo/eFAzpk7xQnenju+vhmPTli1KSk7WtCmTNXni+KMh8ypvtwUAAFBrXCEIAEANBQUFSToSFsw679xq7ZOTm6tnnnteG379TRkZGerUsaMunXuxJowd6zDvgUce1Y6du/TEIw/pvy+8qB9//llWP6s++/B9zZ53mQ4dPqy1ny+XxWJx2O+m227X75s2a82KZRVhkSdqBgYGeuS4iouL9fZ772vFylXan7ZfZpNZrVu10sUXXaizz5xR7TmVnTltqp569jl9v26dxo8Z47BtxcpVCggI0Phxx3t54JFH9eEnn2rzLz87zM3Ly9PTz7+gDRs3an/aAXVo304zp0+v1TFLUklJiV565VX98NNPSkpOVpvW8Ro+bKiuufIKBQQEuFy/Jt9fz774kha++pokacEDD2rBAw9Kkjb88J38/f2r9dlW53gMw9D3637U4mXL9OeOnUo/eFAx0dEaNHCgrrvmr2oRG+twjvftT9P8uXP03ocfafO2rTLshk4fdJr+ceMNCg0J1Uuvvqr1v2zQnqS9atumrebPnaOpR2/rruqzOrb25fMu0bvvf6jNW7eqrLxMA/v31z9uvEGtW7VyWOPY5/rLho1KO3Dkc73ysvl68eVXNHnCBF152fwqz++SZcsVEhyssaNGyWq1KiY6Wp+vXKXLLr3EaW51znVpaaleef0NfbfuRyUkJio8LEwDB/TXjdde63DV4Zat2/TmO+9o0+YtKi0rdXl8lc/Pyb4XqvtZH1NVr58uXlxlrcuvvkaZhw5r8UcfOKy5/IsvdMc99+q1l17QoIEDq33eatI3AACoHgJBAABqqGf37mrXtq2WLl8hGYYuOP989endSyaTyeX8jIxMXXTpPPn7++usGdMVGhqq79at00233q7bb/6HZl8wy2H+pi1bdNlfr1FEeLgmjB0rPz8/BQYG6uwzZ+iJp57W+g0bNXTI4Ir5BYWF+u77H3TRBbMqwkBP1axKTWrcfMed+vHn9Zo4fpzOmXmm8vLytGt3gswnnLPqzKls2pTJevq557Vy1RqHQNBut2v12i81bsxohQQHV3kchw9n6aJL5yk7J0czp09XXItYbd66VY/++8laHXN+fr4unn+50g+m6+wzz9Sk8eO14dff9Nqbb+nb73/Qe2++7jIUrMn31+QJE1RYWKi333tfZwwerHPPnilJ8vM7/ke8qj7b6h6PyWTSf/77rOJatND4sWMUEhysxL17tWLlSv22aZM+fvdth++XH378UVu3bdOYUaM0d/ZsJSQkaumKFfrqm28VER6uVi1baviwoRozaqSWrvhct919jywWiyZNGF/lZ3Vs7S3btmr0yJGaM/sipaamatGSpdq6bbsWffh+xed96PBhzb50vtPnetOtt1ecu6rYbDZ9sXqNxo0dU/E5TRg3Vu9/9LES9+xVxw7tnfap6lwXFxdr3lV/VUJComZMm6YpEycoOztb637+WVar4x/J/3bj/2nEsGG6+KIL3R5fZSf7XqjJ9+7Jeq3O911NeOJ7FAAA1JABAABqbN/+NOPm2+80+g8ZavQZNNiYOP1M4+nnnjcOpKc7zb3lzruMsZOnGnl5eY7jd9xlnD5ilFFSUlIxdv/Djxh9Bg02nnn+Bad1Dh06bAw4Y5hx7/0POIwvWb7C6DNosLE7IcHjNU/cfqrHdfBghtFn0GDj2Rdfcrl+dee4c/nV1xiDR442ioqKKsbW/fSz0WfQYOO7H3446bEseOAhY+DQ4cbOXbsdxt98+x2jz6DBxsJXXzt+bDU4r4888W/jtGEjHD4XwzCMl1973egzaLDx/MKX3R5TTb6/Nm/ZavQZNNj45LPFTttO9tnW5HjsdrvT/p8uXmL0GTTYWPPVV0410w4ccJj7yutvGH0GDTau+/s/HMZzcnKNEeMmGLPnzXfZu6ux/WlpDuOLliz9//buPUrruk7g+AcGgkSQSBjuIniFQXRXQUGspVAuDuJiaHoydet4KWI1s1Ony9m1zM06kdcu7nbR1OSUhiADA8NVEAHzFoKogLWlC+aNEIZxZv9AWGGegefBSfb4eb3+cp7nN7/v9/v8fs7R93me59voNfjmtd8q+roWUlVd3TDwxMENDy1ZuuuxFY8+2uR9uq/X+qbbftRw/JBTGv6w6ukmx9x5jueeX7fP9RV6ffZ2L5RyrYuZ697GuuTSyxrGnTOx0ePTZ85sGHji4IblK1c2Wkdz3KMAQNF+7AtoAGA/dO/WNW74zrejatr98ZmLL4qWLVvE7T/7eYwaNz6u+erXYvPmzRERUVdXF3Nq5sXoM06Pgw8+eLdzjDp9ZGzdujWee35do/N//rJLGz3WqdOHYviwoTFn3ryoq6vb9fjMWbOjYsCA6Ne3b7OP2ZRSxmj9gdbRokWLWPLww/HiSy8VPF8xxzRl7OjR8eabb8bCxQ/teqxq9uzo1OlDccqQIXv93fr6+pg+c2acOXpUHHlEv0breKdS1tzQ0BD3TZsWY0edseu67HTJpy+MHt27x5yamibnVez9VaxC17bU+6TQOxSHnHRiRERs2PBCo+e6lpfv9vNHT9ux8csJg47b7fEOHdrH8YOOi3XrNxS5mohuXXff1GPnudetXx8RO67rjJlVRV3XpvzugRnRqdOH4uR3vBv3hEGDovOhh8bMWU3vNtzUv0f3TJ0aI0eMiP7HHrPPsfd89+Ge6ytVqde6lLk2l+a4RwGA4vnIMAC8C+VdusQXrrg8Jl1+WTz2xBPxo5/eHlXV1bGtdlv88Hs3xAt//FPU1dXFHXfdHXfcdXfBc9Rub7whRlMfPx5fWRnzFiyMpcseieHDhsarr70WS5cti69c/cVdxzT3mIWUMkbHQw6JSVdcvuN72yrPimOOPipGjhgRZ581Lj7cqVPRxzRl5MdGxHXfvSGqqqvj9I9/LLZv3x5z5s2PcWPHNPquxT29+NJLsW3btjjqyCObdc0vvvRSbNnyZsHztmzZMgYOGBA1CxZEfX39XjcI2df9VaxC17bU+6ShoSGq59bE4iVL4sk/rIrX33g9Nm7cFBERb7311j7n0L59+yaPbX9w+9heYGOYYnV4+9y1b5/jLy++GNtqa4u6roVsevnlWLxkSURE3H3v1N2e27hpx5qfWrUqKvr3b/S7hV7rTS+/HK+//kajOFmsPddXqlKu9bud6/5qjnsUACieIAgAzaBFixZxwqBBcduNP4zxE8+LxUuWRm1tbbRrt+P7voacdFJcOenzBX+3X9/Dix7ntFOHxYc7dYqq6uoYPmxoVM+tibKyshh1+v9tyNDcYxZS6hifuejT8Yl/PjumPzgz5s6bH7f8+Cdx209vj8mfuyIuvOD8oo8p5OB27eKfTjst5i1cGFu2vBmPrFgRb7zxRlSOGbPPdewMLNu3b2/WNW/dunWv523Tpk18oHXroncLbur+2rlZxP4o9Rpe89WvxbyFC+PccybE5M9dEV27lsfmzZvjkksv3+85/L3sfN2Lua6FTJ9ZteufC32XZMTb78wtEAQLefXVVyNixzsXD4RSrvWBnus7vRd/ywAgK0EQAJpRy5Yt48gj+sUf//SnqK+vj/IuXeKggz4Yr7/xerN8/K6srCzOHDM6fnP/73ZsejB7doz4yEeiQ4f2u45p7jEL2Z8xDunQIS4479y44Lxz4+W//jWumPyvMeXmW+Lccybs2rShmGMKGTt6VFRVV8eCRYti/qJFcXifPkXNq2ePHlFWVhZPPPlUs665V8+eUVZWFo8/8WTB59esXRt99yNk7Hl/vRulrGf9hg0xa86cRps4/M/GjRER8d9//vO7mktz2/n6F3NdC5k2fUb06tkzZtz3m0bP1dfXx8gzK6Oqujq+OPkLRUXdnj16RIsWLWLtc8/t13zerVKudXPMtXXr1iV/rL2Q9+JvGQBk5TsEAaBEf9uyJdY+W/h/lp9ftz6WLnskjhtYsWuXzLPHjYunV6+Jqb+9r1nGH195ZmzevDnuf2B6rPz9Y3FW5dhGxzTrmG9/lG/bHh9XLGWMhoaG3X7+cKdOcfLgwVFXVxdbt20r+pimnDr0lOjYsWPc/8ADMX/hoqgcM3qfc4rYsSvqR4afGnPnz49ly5fv9tzylSsbHV/smlu1ahUfHT48ahYsaHTe6rk1sXrNmpgwfnzB3y31/jrooA9GRMSz+xFwil3PK6/seNfYO7+7cseYz0dE4+/0O9DKysrio8OHF31d3+np1Wvi2eeei7Gjzij4fMuWLWPkiBGxceOmWPn7x4qaT9u2beO4ioqYUzMv1qxdW9wi9sPe7oVir3Wxc93bWH0OOyw2btoUT69es9vjCxYt3uca9nfeAEBpvEMQAEr0YNWsuPY710f3bt3iuIEV0a1r12jdunWs37Ah5i9cFB9s2zau/cbXdx3/ucsujaXLlsW137k+lq9YGUMGnxht27aNZ9Y+G7W1tfHlL15V0vj9+vaNiv7941vX/0d07nxowY0zmnPMw3r1ioiIKTfdHENPPjmGDxta0hh//suLcf5FF8WpQ4fGEX37Rrt27eLp1avjgQdnxmmnDotDOnQo6pi9KSsri9Gnj9z1fW9jmog5hVz1hUmx4tFH47JJk6NyzOg4ol+/eObZZ2Pa9BmNji3ldb36ysmx8rHH4rJJk+OsM8fuOO/atTFtxoMxfNjQGF95ZsH5lHp/Hda7d3QtL4/7pz0Q7du3j/IuXWL40KHRufOh+1x7ses59pijo2t5edx0623x1B9WxcCKAbF+w4ZdkabYjz6/l64s4bq+07QZO54ffcbpTR5zxsc/Hnf9+t6YOWtWnPSP/1DUfL589VVx8WcvjU9/5rNx/sSJcUS/fvHXV16JhYsfin//xtcabcKyP/Z2L5Ry7xYz172NNXHChJj62/vi0s9PionnTIh2Bx0Uv3/88Zi/cFHJa2ruv58AwA6CIACU6OxxldGlc+eYVT0n1qx9JhYvWRotW7aInj16xIXnfzIuvOD86Nix467jD27XLn595x3xnz/7eSxe+nAs/MGUaNOmbfQ5rHecNbbxu/uKMX5cZTy1alVUjhlTMMY055jnnD0+lq9cGfdNmxaPP/FknDJkcLRq1aroMdq0+UCcO2FCLHpoSSx6aEls+dvfory8PD71yfPiXy6+qOhj9qVyzOi4+96p0b1bt+jerVvR6+vdq1dM/dWd8YMbb46HH1ke1XNrYmBFRdzzy1/EV77xzd2OLeV17dG9e/z2nrtiys23xIpHH43Zc+bGEf36xTVXXRmfnPiJJjdxKfX+atWqVdz0g+/H9Td8P35x551R3qU8unXtWlQQLHY9bdu2jdtunBLfm3JjPPTww/HIyhUx4Nhj466f/1d8/d+uLfq1fi/17tUz7v3VHY2u6w+/d0NMvvpLBTecqaurixlVs6L/scfE4X36NHnu4wcdF507HxrVc2viq9d8KVq12vd/Ulf07x+/vvOOuPHWW2P6zKp49bXXokvnzjHslJP3uflNsfZ2L5Ry7xYz172N1ffwPnH7rbfElJtviV/dfU90LS+PE44fFPf88hdxwcWXlLSmv8ffTwAgokXDnp/PAQCA96nVzzwTEy/4VHz3um/FqJEjD/R0AAAOhJ/8//t8BwAA/J2sW7c+IiL69O59YCcCAHAACYIAALwvvfXWW7v9XFtbG3fcfU9UDBgQxxx99AGaFQDAgec7BAEAeN+pr6+PUePGx5DBJ8UxRx0V27Zti9lz58YLL/wxfnTzjQd6egAAB5QgCADA+05dXV2cc/b4mDtvfsypqYlDOhwSFQP6xw3XXRe9e/U80NMDADigbCoCAAAAAHnYVAQAAAAAMhEEAQAAACARQRAAAAAAEhEEAQAAACARQRAAAAAAEhEEAQAAACARQRAAAAAAEhEEAQAAACARQRAAAAAAEhEEAQAAACARQRAAAAAAEhEEAQAAACARQRAAAAAAEhEEAQAAACARQRAAAAAAEhEEAQAAACARQRAAAAAAEhEEAQAAACARQRAAAAAAEhEEAQAAACARQRAAAAAAEhEEAQAAACARQRAAAAAAEhEEAQAAACARQRAAAAAAEhEEAQAAACARQRAAAAAAEhEEAQAAACARQRAAAAAAEhEEAQAAACARQRAAAAAAEhEEAQAAACARQRAAAAAAEhEEAQAAACARQRAAAAAAEhEEAQAAACARQRAAAAAAEhEEAQAAACARQRAAAAAAEhEEAQAAACARQRAAAAAAEhEEAQAAACARQRAAAAAAEhEEAQAAACARQRAAAAAAEhEEAQAAACARQRAAAAAAEhEEAQAAACARQRAAAAAAEhEEAQAAACARQRAAAAAAEhEEAQAAACARQRAAAAAAEhEEAQAAACARQRAAAAAAEhEEAQAAACARQRAAAAAAEhEEAQAAACARQRAAAAAAEhEEAQAAACARQRAAAAAAEhEEAQAAACARQRAAAAAAEhEEAQAAACARQRAAAAAAEhEEAQAAACARQRAAAAAAEhEEAQAAACARQRAAAAAAEhEEAQAAACARQRAAAAAAEhEEAQAAACARQRAAAAAAEhEEAQAAACARQRAAAAAAEhEEAQAAACARQRAAAAAAEhEEAQAAACARQRAAAAAAEhEEAQAAACARQRAAAAAAEhEEAQAAACARQRAAAAAAEhEEAQAAACARQRAAAAAAEhEEAQAAACARQRAAAAAAEhEEAQAAACARQRAAAAAAEhEEAQAAACARQRAAAAAAEhEEAQAAACARQRAAAAAAEhEEAQAAACARQRAAAAAAEhEEAQAAACARQRAAAAAAEhEEAQAAACARQRAAAAAAEhEEAQAAACARQRAAAAAAEhEEAQAAACARQRAAAAAAEhEEAQAAACARQRAAAAAAEhEEAQAAACARQRAAAAAAEhEEAQAAACARQRAAAAAAEhEEAQAAACARQRAAAAAAEhEEAQAAACARQRAAAAAAEhEEAQAAACARQRAAAAAAEhEEAQAAACARQRAAAAAAEhEEAQAAACARQRAAAAAAEhEEAQAAACARQRAAAAAAEhEEAQAAACARQRAAAAAAEhEEAQAAACARQRAAAAAAEhEEAQAAACARQRAAAAAAEhEEAQAAACARQRAAAAAAEhEEAQAAACARQRAAAAAAEhEEAQAAACARQRAAAAAAEhEEAQAAACARQRAAAAAAEhEEAQAAACARQRAAAAAAEhEEAQAAACARQRAAAAAAEhEEAQAAACARQRAAAAAAEhEEAQAAACARQRAAAAAAEhEEAQAAACARQRAAAAAAEhEEAQAAACARQRAAAAAAEhEEAQAAACARQRAAAAAAEhEEAQAAACARQRAAAAAAEhEEAQAAACARQRAAAAAAEhEEAQAAACARQRAAAAAAEhEEAQAAACARQRAAAAAAEhEEAQAAACARQRAAAAAAEhEEAQAAACARQRAAAAAAEhEEAQAAACARQRAAAAAAEhEEAQAAACARQRAAAAAAEhEEAQAAACARQRAAAAAAEhEEAQAAACARQRAAAAAAEhEEAQAAACARQRAAAAAAEhEEAQAAACARQRAAAAAAEhEEAQAAACARQRAAAAAAEhEEAQAAACARQRAAAAAAEhEEAQAAACARQRAAAAAAEhEEAQAAACARQRAAAAAAEhEEAQAAACARQRAAAAAAEhEEAQAAACARQRAAAAAAEhEEAQAAACARQRAAAAAAEhEEAQAAACARQRAAAAAAEhEEAQAAACARQRAAAAAAEhEEAQAAACARQRAAAAAAEhEEAQAAACARQRAAAAAAEhEEAQAAACARQRAAAAAAEvlfKTx7ZaoIoMIAAAAASUVORK5CYII=" vertex="1" parent="1">
          <mxGeometry x="40" y="40" width="600" height="400" as="geometry" />
        </mxCell>
      </root>
    </mxGraphModel>
  </diagram>
</mxfile>